<svg width="161" height="18" viewBox="0 0 161 18" fill="white" xmlns="http://www.w3.org/2000/svg">
	<path d="M9.35919 0.781738H0V3.91577H9.35919V0.781738Z"></path>
	<path d="M12.4758 7.47314H0V10.6077H12.4758V7.47314Z"></path>
	<path d="M16.6345 14.1648H0V17.2993H16.6345V14.1648Z"></path>
	<path d="M30.9428 0.781738L26.8854 13.0044L22.92 0.781738H19.1685L24.7842 17.2992H29.0079L34.6003 0.781738H30.9428Z"></path>
	<path d="M35.497 2.00849C35.4572 0.939743 36.2911 0.0411716 37.3597 0.00136757C38.4284 -0.0384365 39.327 0.795542 39.3668 1.86405C39.4066 2.93281 38.5726 3.83138 37.5041 3.87118C37.48 3.87213 37.456 3.87261 37.4319 3.87261C36.3972 3.90598 35.5313 3.09417 35.4979 2.05926C35.4974 2.04234 35.497 2.02542 35.497 2.00849ZM35.7565 5.17041H39.1072V17.299H35.7565V5.17041Z"></path>
	<path d="M48.7817 5.17041V8.19075H47.4603C45.4782 8.19075 44.7231 9.51215 44.7231 11.3527V17.299H41.396V5.17041H44.4163L44.7231 6.98733C45.3838 5.9019 46.3277 5.17041 48.2154 5.17041H48.7817Z"></path>
	<path d="M51.66 7.97832H49.6543V5.17034H51.66V1.77246H54.9866V5.17034H57.7712V7.97832H54.9866V13.2873C54.9866 14.137 55.3172 14.4907 56.1903 14.4907H57.8418V17.2987H55.1296C52.8172 17.2987 51.6609 16.1424 51.6609 13.8302L51.66 7.97832Z"></path>
	<path d="M67.4695 5.17041H70.7966V17.299H67.847L67.5403 15.836C66.7616 16.7798 65.6998 17.4403 63.9772 17.4403C61.476 17.4403 59.1626 16.1897 59.1626 11.8954V5.17041H62.4897V11.4471C62.4897 13.6179 63.1976 14.6795 64.8493 14.6795C66.5011 14.6795 67.4685 13.4763 67.4685 11.2347L67.4695 5.17041Z"></path>
	<path d="M85.0485 14.4907V17.2989H83.35C81.6275 17.2989 81.0857 16.4731 81.1095 15.3166C80.2601 16.6618 79.0331 17.4403 77.1453 17.4403C74.5261 17.4403 72.6387 16.1897 72.6387 13.8775C72.6387 11.3055 74.5733 9.84248 78.2072 9.84248H80.6145V9.25256C80.6145 8.16713 79.8358 7.45924 78.4436 7.45924C77.1458 7.45924 76.2728 8.04915 76.1317 8.94581H72.9202C73.1559 6.58617 75.3275 5.02881 78.5359 5.02881C81.9338 5.02881 83.8923 6.53898 83.8923 9.44134V13.7356C83.8923 14.373 84.1518 14.4907 84.6709 14.4907H85.0485ZM80.6123 12.0596H78.1812C76.789 12.0596 75.9867 12.6259 75.9867 13.6405C75.9867 14.4898 76.671 15.0327 77.7801 15.0327C79.5262 15.0327 80.588 13.9473 80.6116 12.2953L80.6123 12.0596Z"></path>
	<path d="M89.6733 0.781494H86.3462V17.2987H89.6733V0.781494Z"></path>
	<path d="M92.2451 0.781494H96.8929L101.47 12.9098L105.907 0.781494H110.461V17.299H107.087V6.23203L102.792 17.2987H99.9139L95.6194 6.23203V17.2987H92.2451V0.781494Z"></path>
	<path d="M112.085 11.258C112.085 7.48259 114.562 5.02856 118.314 5.02856C121.948 5.02856 124.402 7.29287 124.449 10.8569C124.452 11.2366 124.42 11.6155 124.354 11.9895H115.553V12.1547C115.625 13.8772 116.733 14.9155 118.409 14.9155C119.754 14.9155 120.697 14.3256 120.981 13.1929H124.26C123.883 15.5526 121.783 17.4403 118.55 17.4403C114.515 17.4403 112.085 15.0091 112.085 11.258ZM121.099 9.81864C120.863 8.3323 119.848 7.50666 118.338 7.50666C116.898 7.50666 115.813 8.37973 115.624 9.81864H121.099Z"></path>
	<path d="M127.093 7.97832H125.087V5.17034H127.093V1.77246H130.419V5.17034H133.204V7.97832H130.419V13.2873C130.419 14.137 130.75 14.4907 131.623 14.4907H133.275V17.2987H130.561C128.249 17.2987 127.093 16.1424 127.093 13.8302V7.97832Z"></path>
	<path d="M142.194 5.17041V8.19075H140.872C138.89 8.19075 138.135 9.51215 138.135 11.3527V17.299H134.808V5.17041H137.828L138.135 6.98733C138.796 5.9019 139.74 5.17041 141.627 5.17041H142.194Z"></path>
	<path d="M143.421 2.00849C143.381 0.939743 144.215 0.0411716 145.283 0.00136757C146.352 -0.0384365 147.251 0.795542 147.291 1.86405C147.33 2.93281 146.496 3.83138 145.428 3.87118C145.404 3.87213 145.38 3.87261 145.356 3.87261C144.321 3.90598 143.455 3.09417 143.422 2.05926C143.421 2.04234 143.421 2.02542 143.421 2.00849ZM143.68 5.17041H147.031V17.299H143.68V5.17041Z"></path>
	<path d="M148.848 11.2347C148.848 7.48284 151.303 5.02881 155.148 5.02881C158.452 5.02881 160.505 6.82214 160.976 9.70042H157.508C157.225 8.49724 156.399 7.74216 155.101 7.74216C153.355 7.74216 152.246 9.18154 152.246 11.2344C152.246 13.3109 153.355 14.7265 155.101 14.7265C156.399 14.7265 157.271 13.948 157.508 12.7208H161C160.528 15.6231 158.334 17.44 155.03 17.44C151.184 17.44 148.848 15.0566 148.848 11.2344"></path>
</svg>