<svg width="132" height="15" viewBox="0 0 132 15" fill="none" xmlns="http://www.w3.org/2000/svg">
<g clip-path="url(#clip0_8552_182985)">
<path d="M7.67401 1.42773H0V3.94379H7.67401V1.42773Z" fill="#F5F5F5"/>
<path d="M10.2281 6.79883H0V9.31489H10.2281V6.79883Z" fill="#F5F5F5"/>
<path d="M13.6381 12.1719H0V14.6879H13.6381V12.1719Z" fill="#F5F5F5"/>
<path d="M25.3684 1.42773L22.0424 11.2394L18.7907 1.42773H15.7148L20.3189 14.6873H23.7816L28.3681 1.42773H25.3684Z" fill="#F5F5F5"/>
<path d="M29.1027 2.41296C29.0695 1.55578 29.7535 0.834445 30.6309 0.801918C31.5063 0.769391 32.2431 1.43906 32.2763 2.29816C32.3095 3.15534 31.6256 3.87668 30.7481 3.9092C30.7286 3.9092 30.709 3.9092 30.6895 3.9092C29.8414 3.93599 29.132 3.28354 29.1047 2.45314C29.1047 2.43975 29.1047 2.42635 29.1047 2.41296M29.3157 4.95007H32.0633V14.6871H29.3157V4.95007Z" fill="#F5F5F5"/>
<path d="M39.9954 4.95117V7.37539H38.9128C37.2869 7.37539 36.6694 8.43539 36.6694 9.91441V14.6882H33.9414V4.95117H36.4173L36.6694 6.40915C37.2107 5.53857 37.9846 4.95117 39.5323 4.95117H39.9974H39.9954Z" fill="#F5F5F5"/>
<path d="M42.3544 7.20507H40.7109V4.95114H42.3544V2.22461H45.0824V4.95305H47.3649V7.20698H45.0824V11.468C45.0824 12.1492 45.354 12.4343 46.0693 12.4343H47.4235V14.6882H45.1997C43.3041 14.6882 42.3563 13.7602 42.3563 11.9043V7.20698L42.3544 7.20507Z" fill="#F5F5F5"/>
<path d="M55.3161 4.95117H58.0441V14.6882H55.6249L55.3728 13.5134C54.7338 14.2711 53.8642 14.8011 52.4513 14.8011C50.4014 14.8011 48.5039 13.7966 48.5039 10.3507V4.95117H51.2319V9.98903C51.2319 11.7321 51.8123 12.5835 53.1665 12.5835C54.5208 12.5835 55.3142 11.6173 55.3142 9.81874V4.95117H55.3161Z" fill="#F5F5F5"/>
<path d="M69.73 12.4339V14.6879H68.3367C66.9238 14.6879 66.4802 14.0258 66.4998 13.096C65.8041 14.1751 64.7977 14.8008 63.25 14.8008C61.1024 14.8008 59.5547 13.7962 59.5547 11.9403C59.5547 9.87579 61.1415 8.70099 64.1196 8.70099H66.0933V8.22839C66.0933 7.35782 65.4543 6.78955 64.3131 6.78955C63.2481 6.78955 62.5328 7.26406 62.4175 7.98348H59.7853C59.9787 6.08926 61.759 4.83984 64.3893 4.83984C67.1759 4.83984 68.7803 6.05291 68.7803 8.38146V11.8293C68.7803 12.3402 68.9933 12.4359 69.4193 12.4359H69.7281L69.73 12.4339ZM66.0914 10.4823H64.0981C62.9569 10.4823 62.2983 10.9377 62.2983 11.7509C62.2983 12.432 62.8592 12.8683 63.7679 12.8683C65.2003 12.8683 66.0699 11.9977 66.0894 10.6698V10.4804L66.0914 10.4823Z" fill="#F5F5F5"/>
<path d="M73.521 1.42773H70.793V14.6873H73.521V1.42773Z" fill="#F5F5F5"/>
<path d="M75.6309 1.42773H79.4415L83.1935 11.1629L86.8321 1.42773H90.5666V14.6873H87.7995V5.80357L84.278 14.6873H81.9174L78.396 5.80357V14.6873H75.6289V1.42773H75.6309Z" fill="#F5F5F5"/>
<path d="M91.8984 9.83744C91.8984 6.80669 93.9288 4.83594 97.0066 4.83594C100.084 4.83594 101.998 6.65362 102.037 9.51408C102.039 9.81831 102.013 10.1225 101.958 10.4229H94.7437V10.5549C94.8023 11.9383 95.711 12.7706 97.0848 12.7706C98.1869 12.7706 98.9608 12.298 99.1933 11.3873H101.882C101.574 13.2815 99.8499 14.7969 97.2001 14.7969C93.8917 14.7969 91.9004 12.8452 91.9004 9.83361M99.2891 8.68369C99.0956 7.48976 98.2632 6.82774 97.0262 6.82774C95.7892 6.82774 94.9567 7.52802 94.8004 8.68369H99.2891Z" fill="#F5F5F5"/>
<path d="M104.198 7.20507H102.555V4.95114H104.198V2.22461H106.926V4.95305H109.209V7.20698H106.926V11.468C106.926 12.1492 107.198 12.4343 107.913 12.4343H109.267V14.6882H107.043C105.148 14.6882 104.2 13.7602 104.2 11.9043V7.20698L104.198 7.20507Z" fill="#F5F5F5"/>
<path d="M116.581 4.95117V7.37539H115.499C113.873 7.37539 113.255 8.43539 113.255 9.91441V14.6882H110.527V4.95117H113.003L113.255 6.40915C113.797 5.53857 114.571 4.95117 116.118 4.95117H116.583H116.581Z" fill="#F5F5F5"/>
<path d="M117.587 2.41296C117.554 1.55578 118.238 0.834445 119.115 0.801918C119.991 0.769391 120.727 1.43906 120.761 2.29816C120.794 3.15534 120.11 3.87668 119.233 3.9092C119.213 3.9092 119.193 3.9092 119.174 3.9092C118.326 3.93599 117.616 3.28354 117.589 2.45314C117.589 2.43975 117.589 2.42635 117.589 2.41296M117.8 4.95007H120.548V14.6871H117.8V4.95007Z" fill="#F5F5F5"/>
<path d="M122.037 9.82026C122.037 6.80864 124.05 4.83789 127.202 4.83789C129.91 4.83789 131.593 6.27673 131.98 8.58806H129.137C128.904 7.62182 128.228 7.01529 127.163 7.01529C125.73 7.01529 124.822 8.17095 124.822 9.81835C124.822 11.4657 125.73 12.6214 127.163 12.6214C128.228 12.6214 128.943 11.9957 129.137 11.0104H131.999C131.613 13.3408 129.813 14.7988 127.104 14.7988C123.95 14.7988 122.035 12.8855 122.035 9.81643" fill="#F5F5F5"/>
</g>
<defs>
<clipPath id="clip0_8552_182985">
<rect width="132" height="15" fill="white" transform="translate(0 0.800781)"/>
</clipPath>
</defs>
</svg>
