<svg width="240" height="60" viewBox="0 0 240 60" fill="none" xmlns="http://www.w3.org/2000/svg">
<g clip-path="url(#clip0_186_86897)">
<mask id="mask0_186_86897" style="mask-type:luminance" maskUnits="userSpaceOnUse" x="0" y="16" width="240" height="27">
<path d="M239.996 16.998H0.0390625V42.9956H239.996V16.998Z" fill="white"/>
</mask>
<g mask="url(#mask0_186_86897)">
<path d="M-0.00195312 18.1621H13.9508V22.8343H-0.00195312V18.1621Z" fill="#F8F7F7"/>
<path d="M-0.00195312 28.1367H18.5946V32.8125H-0.00195312V28.1367Z" fill="#F8F7F7"/>
<path d="M-0.00195312 38.1152H24.7946V42.7875H-0.00195312V38.1152Z" fill="#F8F7F7"/>
<path d="M46.1223 18.1621L40.075 36.382L34.1628 18.1621H28.5703L36.9413 42.7846H43.2408L51.5762 18.1621H46.1223Z" fill="#F8F7F7"/>
<path d="M53.2996 24.7051H58.2951V42.7864H53.2996V24.7051ZM52.9123 19.9938C52.8519 18.402 54.0954 17.0625 55.6872 17.0021C57.2789 16.9417 58.6184 18.1853 58.6788 19.7806C58.7392 21.3723 57.4957 22.7118 55.9004 22.7722C55.8648 22.7722 55.8293 22.7722 55.7938 22.7722C54.2518 22.822 52.962 21.6104 52.9123 20.0684C52.9123 20.0435 52.9123 20.0186 52.9123 19.9938Z" fill="#F8F7F7"/>
</g>
<path d="M72.7202 24.7051V29.2068H70.7518C67.7957 29.2068 66.6729 31.1751 66.6729 33.9216V42.7864H61.7129V24.7051H66.2146L66.6729 27.4125C67.6571 25.7959 69.0641 24.7051 71.8781 24.7051H72.7237H72.7202Z" fill="#F8F7F7"/>
<path d="M77.0057 28.8911H74.0176V24.7056H77.0057V19.6426H81.9657V24.7092H86.1156V28.8947H81.9657V36.8073C81.9657 38.0757 82.4596 38.6015 83.76 38.6015H86.2222V42.787H82.1789C78.7324 42.787 77.0092 41.0638 77.0092 37.6174V28.8947L77.0057 28.8911Z" fill="#F8F7F7"/>
<path d="M100.577 24.7051H105.537V42.7864H101.139L100.68 40.6049C99.5185 42.0119 97.9374 42.9961 95.3685 42.9961C91.6414 42.9961 88.1914 41.1307 88.1914 34.7317V24.7051H93.1514V34.0602C93.1514 37.297 94.2067 38.8781 96.6689 38.8781C99.1312 38.8781 100.574 37.0838 100.574 33.744V24.7051H100.577Z" fill="#F8F7F7"/>
<path d="M120.166 34.9775H116.542C114.467 34.9775 113.27 35.8231 113.27 37.3332C113.27 38.5981 114.289 39.4082 115.942 39.4082C118.546 39.4082 120.127 37.7915 120.163 35.3293V34.9775H120.166ZM126.782 38.6016V42.7871H124.249C121.68 42.7871 120.873 41.5577 120.909 39.831C119.644 41.8349 117.814 42.9967 115 42.9967C111.095 42.9967 108.281 41.1314 108.281 37.6849C108.281 33.8512 111.166 31.6697 116.581 31.6697H120.17V30.7885C120.17 29.1719 119.008 28.1166 116.933 28.1166C115 28.1166 113.696 28.9978 113.486 30.3337H108.701C109.052 26.8162 112.289 24.4961 117.071 24.4961C122.138 24.4961 125.055 26.7487 125.055 31.0728V37.4753C125.055 38.424 125.442 38.6016 126.217 38.6016H126.778H126.782Z" fill="#F8F7F7"/>
<path d="M128.717 18.166H133.677V42.7885H128.717V18.166Z" fill="#F8F7F7"/>
<path d="M137.51 18.166H144.438L151.264 36.2438L157.876 18.166H164.666V42.7885H159.634V26.2918L153.232 42.7885H148.943L142.541 26.2918V42.7885H137.51V18.166Z" fill="#F8F7F7"/>
<path d="M180.522 31.6393C180.17 29.4222 178.656 28.1928 176.407 28.1928C174.158 28.1928 172.644 29.4933 172.36 31.6393H180.522ZM167.084 33.7818C167.084 28.1538 170.776 24.4941 176.372 24.4941C181.968 24.4941 185.446 27.8695 185.517 33.1813C185.521 33.7462 185.474 34.3112 185.375 34.869H172.257V35.1141C172.364 37.683 174.016 39.2286 176.514 39.2286C178.518 39.2286 179.925 38.3474 180.347 36.6597H185.236C184.675 40.1772 181.545 42.9912 176.723 42.9912C170.708 42.9912 167.088 39.3671 167.088 33.7747" fill="#F8F7F7"/>
<path d="M189.456 28.8911H186.465V24.7056H189.456V19.6426H194.417V24.7092H198.566V28.8947H194.417V36.8073C194.417 38.0757 194.91 38.6015 196.211 38.6015H198.673V42.787H194.63C191.183 42.787 189.46 41.0638 189.46 37.6174V28.8947L189.456 28.8911Z" fill="#F8F7F7"/>
<mask id="mask1_186_86897" style="mask-type:luminance" maskUnits="userSpaceOnUse" x="0" y="16" width="240" height="27">
<path d="M239.996 16.998H0.0390625V42.9956H239.996V16.998Z" fill="white"/>
</mask>
<g mask="url(#mask1_186_86897)">
<path d="M211.966 24.7031V29.2048H209.998C207.042 29.2048 205.919 31.1732 205.919 33.9197V42.7845H200.959V24.7031H205.461L205.919 27.4105C206.903 25.7939 208.31 24.7031 211.124 24.7031H211.97H211.966Z" fill="#F8F7F7"/>
<path d="M214.182 24.7051H219.178V42.7864H214.182V24.7051ZM213.795 19.9938C213.735 18.402 214.978 17.0625 216.574 17.0021C218.165 16.9417 219.505 18.1853 219.565 19.7806C219.626 21.3723 218.382 22.7118 216.787 22.7722C216.751 22.7722 216.716 22.7722 216.68 22.7722C215.138 22.822 213.848 21.6104 213.799 20.0684C213.799 20.0435 213.799 20.0186 213.799 19.9938" fill="#F8F7F7"/>
</g>
<path d="M221.886 33.7482C221.886 28.1557 225.546 24.4961 231.277 24.4961C236.202 24.4961 239.261 27.168 239.964 31.46H234.795C234.372 29.6658 233.142 28.5394 231.206 28.5394C228.605 28.5394 226.949 30.6855 226.949 33.7446C226.949 36.8038 228.602 38.9498 231.206 38.9498C233.142 38.9498 234.443 37.788 234.795 35.9582H240C239.296 40.2858 236.024 42.9932 231.099 42.9932C225.365 42.9932 221.883 39.4401 221.883 33.7411" fill="#F8F7F7"/>
</g>
<defs>
<clipPath id="clip0_186_86897">
<rect width="240" height="25.9975" fill="white" transform="translate(0 17.002)"/>
</clipPath>
</defs>
</svg>
