<?xml version="1.0" encoding="utf-8"?>
<svg width="240" height="60" viewBox="0 0 214 60" fill="none" xmlns="http://www.w3.org/2000/svg">
  <g clip-path="url(#clip0_186_86897)" transform="matrix(1, 0, 0, 1, -13, -0.000254)">
    <mask id="mask0_186_86897" style="mask-type:luminance" maskUnits="userSpaceOnUse" x="0" y="16" width="240" height="27">
      <path d="M239.996 16.998H0.0390625V42.9956H239.996V16.998Z" fill="white"/>
    </mask>
    <g transform="matrix(1, 0, 0, 1, -1.285151, 0.001504)">
      <g mask="url(#mask0_186_86897)" transform="matrix(1, 0, 0, 1, -13, 0)">
        <path d="M46.1223 18.1621L40.075 36.382L34.1628 18.1621H28.5703L36.9413 42.7846H43.2408L51.5762 18.1621H46.1223Z" fill="#F8F7F7"/>
        <path d="M53.2996 24.7051H58.2951V42.7864H53.2996V24.7051ZM52.9123 19.9938C52.8519 18.402 54.0954 17.0625 55.6872 17.0021C57.2789 16.9417 58.6184 18.1853 58.6788 19.7806C58.7392 21.3723 57.4957 22.7118 55.9004 22.7722C55.8648 22.7722 55.8293 22.7722 55.7938 22.7722C54.2518 22.822 52.962 21.6104 52.9123 20.0684C52.9123 20.0435 52.9123 20.0186 52.9123 19.9938Z" fill="#F8F7F7"/>
      </g>
      <path d="M 59.72 24.705 L 59.72 29.207 L 57.752 29.207 C 54.796 29.207 53.673 31.175 53.673 33.922 L 53.673 42.786 L 48.713 42.786 L 48.713 24.705 L 53.215 24.705 L 53.673 27.413 C 54.657 25.796 56.064 24.705 58.878 24.705 L 59.724 24.705 L 59.72 24.705 Z" fill="#F8F7F7"/>
      <path d="M 64.006 28.891 L 61.018 28.891 L 61.018 24.706 L 64.006 24.706 L 64.006 19.643 L 68.966 19.643 L 68.966 24.709 L 73.116 24.709 L 73.116 28.895 L 68.966 28.895 L 68.966 36.807 C 68.966 38.076 69.46 38.602 70.76 38.602 L 73.222 38.602 L 73.222 42.787 L 69.179 42.787 C 65.732 42.787 64.009 41.064 64.009 37.617 L 64.009 28.895 L 64.006 28.891 Z" fill="#F8F7F7"/>
      <path d="M 87.577 24.705 L 92.537 24.705 L 92.537 42.786 L 88.139 42.786 L 87.68 40.605 C 86.519 42.012 84.937 42.996 82.369 42.996 C 78.641 42.996 75.191 41.131 75.191 34.732 L 75.191 24.705 L 80.151 24.705 L 80.151 34.06 C 80.151 37.297 81.207 38.878 83.669 38.878 C 86.131 38.878 87.574 37.084 87.574 33.744 L 87.574 24.705 L 87.577 24.705 Z" fill="#F8F7F7"/>
      <path d="M 107.166 34.978 L 103.542 34.978 C 101.467 34.978 100.27 35.823 100.27 37.333 C 100.27 38.598 101.289 39.408 102.942 39.408 C 105.546 39.408 107.127 37.792 107.163 35.329 L 107.163 34.978 L 107.166 34.978 Z M 113.782 38.602 L 113.782 42.787 L 111.249 42.787 C 108.68 42.787 107.873 41.558 107.909 39.831 C 106.644 41.835 104.814 42.997 102 42.997 C 98.095 42.997 95.281 41.131 95.281 37.685 C 95.281 33.851 98.166 31.67 103.581 31.67 L 107.17 31.67 L 107.17 30.789 C 107.17 29.172 106.008 28.117 103.933 28.117 C 102 28.117 100.696 28.998 100.486 30.334 L 95.701 30.334 C 96.052 26.816 99.289 24.496 104.071 24.496 C 109.138 24.496 112.055 26.749 112.055 31.073 L 112.055 37.475 C 112.055 38.424 112.442 38.602 113.217 38.602 L 113.778 38.602 L 113.782 38.602 Z" fill="#F8F7F7"/>
      <path d="M 115.717 18.166 L 120.677 18.166 L 120.677 42.789 L 115.717 42.789 L 115.717 18.166 Z" fill="#F8F7F7"/>
      <path d="M 124.51 18.166 L 131.438 18.166 L 138.264 36.244 L 144.876 18.166 L 151.666 18.166 L 151.666 42.789 L 146.634 42.789 L 146.634 26.292 L 140.232 42.789 L 135.943 42.789 L 129.541 26.292 L 129.541 42.789 L 124.51 42.789 L 124.51 18.166 Z" fill="#F8F7F7"/>
      <path d="M 167.522 31.639 C 167.17 29.422 165.656 28.193 163.407 28.193 C 161.158 28.193 159.644 29.493 159.36 31.639 L 167.522 31.639 Z M 154.084 33.782 C 154.084 28.154 157.776 24.494 163.372 24.494 C 168.968 24.494 172.446 27.87 172.517 33.181 C 172.521 33.746 172.474 34.311 172.375 34.869 L 159.257 34.869 L 159.257 35.114 C 159.364 37.683 161.016 39.229 163.514 39.229 C 165.518 39.229 166.925 38.347 167.347 36.66 L 172.236 36.66 C 171.675 40.177 168.545 42.991 163.723 42.991 C 157.708 42.991 154.088 39.367 154.088 33.775" fill="#F8F7F7"/>
      <path d="M 176.456 28.891 L 173.465 28.891 L 173.465 24.706 L 176.456 24.706 L 176.456 19.643 L 181.417 19.643 L 181.417 24.709 L 185.566 24.709 L 185.566 28.895 L 181.417 28.895 L 181.417 36.807 C 181.417 38.076 181.91 38.602 183.211 38.602 L 185.673 38.602 L 185.673 42.787 L 181.63 42.787 C 178.183 42.787 176.46 41.064 176.46 37.617 L 176.46 28.895 L 176.456 28.891 Z" fill="#F8F7F7"/>
      <g mask="url(#mask1_186_86897)" transform="matrix(1, 0, 0, 1, -13, 0)">
        <path d="M211.966 24.7031V29.2048H209.998C207.042 29.2048 205.919 31.1732 205.919 33.9197V42.7845H200.959V24.7031H205.461L205.919 27.4105C206.903 25.7939 208.31 24.7031 211.124 24.7031H211.97H211.966Z" fill="#F8F7F7"/>
        <path d="M214.182 24.7051H219.178V42.7864H214.182V24.7051ZM213.795 19.9938C213.735 18.402 214.978 17.0625 216.574 17.0021C218.165 16.9417 219.505 18.1853 219.565 19.7806C219.626 21.3723 218.382 22.7118 216.787 22.7722C216.751 22.7722 216.716 22.7722 216.68 22.7722C215.138 22.822 213.848 21.6104 213.799 20.0684C213.799 20.0435 213.799 20.0186 213.799 19.9938" fill="#F8F7F7"/>
      </g>
      <path d="M 208.886 33.748 C 208.886 28.156 212.546 24.496 218.277 24.496 C 223.202 24.496 226.261 27.168 226.964 31.46 L 221.795 31.46 C 221.372 29.666 220.142 28.539 218.206 28.539 C 215.605 28.539 213.949 30.686 213.949 33.745 C 213.949 36.804 215.602 38.95 218.206 38.95 C 220.142 38.95 221.443 37.788 221.795 35.958 L 227 35.958 C 226.296 40.286 223.024 42.993 218.099 42.993 C 212.365 42.993 208.883 39.44 208.883 33.741" fill="#F8F7F7"/>
    </g>
    <mask id="mask1_186_86897" style="mask-type:luminance" maskUnits="userSpaceOnUse" x="0" y="16" width="240" height="27">
      <path d="M239.996 16.998H0.0390625V42.9956H239.996V16.998Z" fill="white"/>
    </mask>
  </g>
  <defs>
    <clipPath id="clip0_186_86897">
      <rect width="240" height="25.9975" fill="white" transform="translate(0 17.002)"/>
    </clipPath>
  </defs>
</svg>