<?xml version="1.0" encoding="utf-8"?>
<svg width="240" height="60" viewBox="0 0 240 60" fill="none" xmlns="http://www.w3.org/2000/svg">
  <g clip-path="url(#clip0_186_86923)">
    <mask id="mask0_186_86923" style="mask-type:luminance" maskUnits="userSpaceOnUse" x="0" y="17" width="240" height="27">
      <path d="M239.998 17.0039H0.0410156V43.0014H239.998V17.0039Z" fill="white"/>
    </mask>
    <mask id="mask1_186_86923" style="mask-type:luminance" maskUnits="userSpaceOnUse" x="0" y="17" width="240" height="27">
      <path d="M239.998 17.0039H0.0410156V43.0014H239.998V17.0039Z" fill="white"/>
    </mask>
    <g transform="matrix(1, 0, 0, 1, -0.286152, -0.000446)">
      <g mask="url(#mask0_186_86923)" transform="matrix(1, 0, 0, 1, -14, 0)">
        <path d="M46.1242 18.168L40.077 36.3879L34.1647 18.168H28.5723L36.9432 42.7905H43.2427L51.5781 18.168H46.1242Z" fill="#272461"/>
        <path d="M53.3074 24.709H58.3029V42.7903H53.3074V24.709ZM52.9201 19.9977C52.8597 18.4059 54.1032 17.0664 55.695 17.006C57.2868 16.9456 58.6262 18.1892 58.6866 19.7845C58.7471 21.3762 57.5035 22.7157 55.9082 22.7761C55.8726 22.7761 55.8371 22.7761 55.8016 22.7761C54.2596 22.8259 52.9698 21.6143 52.9201 20.0723C52.9201 20.0474 52.9201 20.0225 52.9201 19.9977Z" fill="#272461"/>
      </g>
      <path d="M 58.72 24.705 L 58.72 29.207 L 56.752 29.207 C 53.796 29.207 52.673 31.175 52.673 33.922 L 52.673 42.786 L 47.713 42.786 L 47.713 24.705 L 52.215 24.705 L 52.673 27.413 C 53.657 25.796 55.064 24.705 57.878 24.705 L 58.724 24.705 L 58.72 24.705 Z" fill="#272461"/>
      <path d="M 63.006 28.891 L 60.018 28.891 L 60.018 24.706 L 63.006 24.706 L 63.006 19.643 L 67.966 19.643 L 67.966 24.709 L 72.116 24.709 L 72.116 28.895 L 67.966 28.895 L 67.966 36.807 C 67.966 38.076 68.46 38.602 69.76 38.602 L 72.222 38.602 L 72.222 42.787 L 68.179 42.787 C 64.732 42.787 63.009 41.064 63.009 37.617 L 63.009 28.895 L 63.006 28.891 Z" fill="#272461"/>
      <path d="M 86.577 24.705 L 91.537 24.705 L 91.537 42.786 L 87.139 42.786 L 86.68 40.605 C 85.519 42.012 83.937 42.996 81.369 42.996 C 77.641 42.996 74.191 41.131 74.191 34.732 L 74.191 24.705 L 79.151 24.705 L 79.151 34.06 C 79.151 37.297 80.207 38.878 82.669 38.878 C 85.131 38.878 86.574 37.084 86.574 33.744 L 86.574 24.705 L 86.577 24.705 Z" fill="#272461"/>
      <path d="M 106.166 34.978 L 102.542 34.978 C 100.467 34.978 99.27 35.823 99.27 37.333 C 99.27 38.598 100.289 39.408 101.942 39.408 C 104.546 39.408 106.127 37.792 106.163 35.329 L 106.163 34.978 L 106.166 34.978 Z M 112.782 38.602 L 112.782 42.787 L 110.249 42.787 C 107.68 42.787 106.873 41.558 106.909 39.831 C 105.644 41.835 103.814 42.997 101 42.997 C 97.095 42.997 94.281 41.131 94.281 37.685 C 94.281 33.851 97.166 31.67 102.581 31.67 L 106.17 31.67 L 106.17 30.789 C 106.17 29.172 105.008 28.117 102.933 28.117 C 101 28.117 99.696 28.998 99.486 30.334 L 94.701 30.334 C 95.052 26.816 98.289 24.496 103.071 24.496 C 108.138 24.496 111.055 26.749 111.055 31.073 L 111.055 37.475 C 111.055 38.424 111.442 38.602 112.217 38.602 L 112.778 38.602 L 112.782 38.602 Z" fill="#272461"/>
      <path d="M 114.717 18.166 L 119.677 18.166 L 119.677 42.789 L 114.717 42.789 L 114.717 18.166 Z" fill="#272461"/>
      <path d="M 123.51 18.166 L 130.438 18.166 L 137.264 36.244 L 143.876 18.166 L 150.666 18.166 L 150.666 42.789 L 145.634 42.789 L 145.634 26.292 L 139.232 42.789 L 134.943 42.789 L 128.541 26.292 L 128.541 42.789 L 123.51 42.789 L 123.51 18.166 Z" fill="#272461"/>
      <path d="M 166.522 31.639 C 166.17 29.422 164.656 28.193 162.407 28.193 C 160.158 28.193 158.644 29.493 158.36 31.639 L 166.522 31.639 Z M 153.084 33.782 C 153.084 28.154 156.776 24.494 162.372 24.494 C 167.968 24.494 171.446 27.87 171.517 33.181 C 171.521 33.746 171.474 34.311 171.375 34.869 L 158.257 34.869 L 158.257 35.114 C 158.364 37.683 160.016 39.229 162.514 39.229 C 164.518 39.229 165.925 38.347 166.347 36.66 L 171.236 36.66 C 170.675 40.177 167.545 42.991 162.723 42.991 C 156.708 42.991 153.088 39.367 153.088 33.775" fill="#272461"/>
      <path d="M 175.456 28.891 L 172.465 28.891 L 172.465 24.706 L 175.456 24.706 L 175.456 19.643 L 180.417 19.643 L 180.417 24.709 L 184.566 24.709 L 184.566 28.895 L 180.417 28.895 L 180.417 36.807 C 180.417 38.076 180.91 38.602 182.211 38.602 L 184.673 38.602 L 184.673 42.787 L 180.63 42.787 C 177.183 42.787 175.46 41.064 175.46 37.617 L 175.46 28.895 L 175.456 28.891 Z" fill="#272461"/>
      <g mask="url(#mask1_186_86923)" transform="matrix(1, 0, 0, 1, -14, 0)">
        <path d="M211.966 24.707V29.2087H209.998C207.042 29.2087 205.919 31.1771 205.919 33.9236V42.7884H200.959V24.707H205.461L205.919 27.4144C206.903 25.7978 208.31 24.707 211.124 24.707H211.97H211.966Z" fill="#272461"/>
        <path d="M214.184 24.709H219.18V42.7903H214.184V24.709ZM213.797 19.9977C213.737 18.4059 214.98 17.0664 216.576 17.006C218.167 16.9456 219.507 18.1892 219.567 19.7845C219.628 21.3762 218.384 22.7157 216.789 22.7761C216.753 22.7761 216.718 22.7761 216.682 22.7761C215.14 22.8259 213.85 21.6143 213.801 20.0723C213.801 20.0474 213.801 20.0225 213.801 19.9977" fill="#272461"/>
      </g>
      <path d="M 207.886 33.748 C 207.886 28.156 211.546 24.496 217.277 24.496 C 222.202 24.496 225.261 27.168 225.964 31.46 L 220.795 31.46 C 220.372 29.666 219.142 28.539 217.206 28.539 C 214.605 28.539 212.949 30.686 212.949 33.745 C 212.949 36.804 214.602 38.95 217.206 38.95 C 219.142 38.95 220.443 37.788 220.795 35.958 L 226 35.958 C 225.296 40.286 222.024 42.993 217.099 42.993 C 211.365 42.993 207.883 39.44 207.883 33.741" fill="#272461"/>
    </g>
  </g>
  <defs>
    <clipPath id="clip0_186_86923">
      <rect width="240" height="25.9975" fill="white" transform="translate(0 16.9961)"/>
    </clipPath>
  </defs>
</svg>