<svg width="200" height="50" viewBox="0 0 200 50" fill="none" xmlns="http://www.w3.org/2000/svg">
<g clip-path="url(#clip0_182_42731)">
<mask id="mask0_182_42731" style="mask-type:luminance" maskUnits="userSpaceOnUse" x="0" y="14" width="200" height="22">
<path d="M199.996 14.166H0.03125V35.8306H199.996V14.166Z" fill="white"/>
</mask>
<g mask="url(#mask0_182_42731)">
<path d="M-0.00195312 15.1367H11.6253V19.0302H-0.00195312V15.1367Z" fill="#F8F7F7"/>
<path d="M-0.00195312 23.4492H15.4952V27.3457H-0.00195312V23.4492Z" fill="#F8F7F7"/>
<path d="M-0.00195312 31.7637H20.6619V35.6572H-0.00195312V31.7637Z" fill="#F8F7F7"/>
<path d="M38.4352 15.1367L33.3959 30.32L28.469 15.1367H23.8086L30.7844 35.6555H36.034L42.9801 15.1367H38.4352Z" fill="#F8F7F7"/>
<path d="M44.4163 20.5889H48.5793V35.6567H44.4163V20.5889ZM44.0936 16.6628C44.0432 15.3363 45.0795 14.2201 46.406 14.1697C47.7325 14.1194 48.8487 15.1557 48.899 16.4851C48.9494 17.8116 47.9131 18.9278 46.5836 18.9782C46.554 18.9782 46.5244 18.9782 46.4948 18.9782C45.2098 19.0196 44.135 18.01 44.0936 16.7249C44.0936 16.7042 44.0936 16.6835 44.0936 16.6628Z" fill="#F8F7F7"/>
</g>
<path d="M60.6005 20.5879V24.3393H58.9602C56.4967 24.3393 55.5611 25.9796 55.5611 28.2684V35.6557H51.4277V20.5879H55.1791L55.5611 22.8441C56.3812 21.4969 57.5537 20.5879 59.8987 20.5879H60.6034H60.6005Z" fill="#F8F7F7"/>
<path d="M64.1717 24.0763H61.6816V20.5884H64.1717V16.3691H68.3051V20.5913H71.7634V24.0792H68.3051V30.673C68.3051 31.7301 68.7166 32.1683 69.8003 32.1683H71.8522V35.6562H68.4827C65.6107 35.6562 64.1747 34.2202 64.1747 31.3481V24.0792L64.1717 24.0763Z" fill="#F8F7F7"/>
<path d="M83.8137 20.5879H87.9471V35.6557H84.2815L83.8996 33.8377C82.9314 35.0102 81.6138 35.8304 79.4731 35.8304C76.3672 35.8304 73.4922 34.2759 73.4922 28.9434V20.5879H77.6255V28.3838C77.6255 31.0812 78.5049 32.3988 80.5568 32.3988C82.6087 32.3988 83.8108 30.9035 83.8108 28.1203V20.5879H83.8137Z" fill="#F8F7F7"/>
<path d="M100.138 29.1486H97.1184C95.3892 29.1486 94.3914 29.8533 94.3914 31.1116C94.3914 32.1657 95.2412 32.8408 96.618 32.8408C98.7883 32.8408 100.106 31.4936 100.135 29.4417V29.1486H100.138ZM105.652 32.1687V35.6566H103.54C101.4 35.6566 100.728 34.6321 100.757 33.1931C99.7032 34.863 98.1784 35.8312 95.8334 35.8312C92.5794 35.8312 90.2344 34.2768 90.2344 31.4048C90.2344 28.21 92.6386 26.392 97.1509 26.392H100.141V25.6577C100.141 24.3106 99.1732 23.4312 97.4441 23.4312C95.8333 23.4312 94.7467 24.1655 94.572 25.2788H90.5838C90.8769 22.3475 93.5742 20.4141 97.5595 20.4141C101.782 20.4141 104.213 22.2912 104.213 25.8946V31.2301C104.213 32.0206 104.535 32.1687 105.181 32.1687H105.649H105.652Z" fill="#F8F7F7"/>
<path d="M107.264 15.1387H111.397V35.6574H107.264V15.1387Z" fill="#F8F7F7"/>
<path d="M114.592 15.1387H120.365L126.053 30.2035L131.563 15.1387H137.222V35.6574H133.029V21.9102L127.694 35.6574H124.12L118.784 21.9102V35.6574H114.592V15.1387Z" fill="#F8F7F7"/>
<path d="M150.434 26.3664C150.141 24.5188 148.88 23.4944 147.006 23.4944C145.131 23.4944 143.87 24.578 143.633 26.3664H150.434ZM139.236 28.1518C139.236 23.4618 142.313 20.4121 146.976 20.4121C151.639 20.4121 154.538 23.2249 154.597 27.6514C154.6 28.1222 154.562 28.593 154.479 29.0578H143.547V29.2621C143.636 31.4028 145.013 32.6908 147.094 32.6908C148.764 32.6908 149.937 31.9565 150.289 30.5501H154.363C153.896 33.4813 151.287 35.8263 147.269 35.8263C142.256 35.8263 139.239 32.8063 139.239 28.1459" fill="#F8F7F7"/>
<path d="M157.88 24.0763H155.387V20.5884H157.88V16.3691H162.013V20.5913H165.471V24.0792H162.013V30.673C162.013 31.7301 162.425 32.1683 163.508 32.1683H165.56V35.6562H162.191C159.319 35.6562 157.883 34.2202 157.883 31.3481V24.0792L157.88 24.0763Z" fill="#F8F7F7"/>
<mask id="mask1_182_42731" style="mask-type:luminance" maskUnits="userSpaceOnUse" x="0" y="14" width="200" height="22">
<path d="M199.996 14.166H0.03125V35.8306H199.996V14.166Z" fill="white"/>
</mask>
<g mask="url(#mask1_182_42731)">
<path d="M176.638 20.5879V24.3393H174.997C172.534 24.3393 171.598 25.9796 171.598 28.2684V35.6557H167.465V20.5879H171.216L171.598 22.8441C172.418 21.4969 173.591 20.5879 175.936 20.5879H176.641H176.638Z" fill="#F8F7F7"/>
<path d="M178.485 20.5889H182.648V35.6567H178.485V20.5889ZM178.162 16.6628C178.112 15.3363 179.148 14.2201 180.477 14.1697C181.804 14.1194 182.92 15.1557 182.97 16.4851C183.021 17.8116 181.984 18.9278 180.655 18.9782C180.625 18.9782 180.596 18.9782 180.566 18.9782C179.281 19.0196 178.206 18.01 178.165 16.7249C178.165 16.7042 178.165 16.6835 178.165 16.6628" fill="#F8F7F7"/>
</g>
<path d="M184.905 28.1241C184.905 23.4637 187.955 20.4141 192.731 20.4141C196.835 20.4141 199.384 22.6406 199.97 26.2173H195.662C195.31 24.7221 194.285 23.7835 192.672 23.7835C190.504 23.7835 189.125 25.5719 189.125 28.1212C189.125 30.6705 190.501 32.4588 192.672 32.4588C194.285 32.4588 195.369 31.4906 195.662 29.9658H200C199.414 33.5721 196.687 35.8283 192.583 35.8283C187.804 35.8283 184.902 32.8674 184.902 28.1182" fill="#F8F7F7"/>
</g>
<defs>
<clipPath id="clip0_182_42731">
<rect width="200" height="21.6646" fill="white" transform="translate(0 14.168)"/>
</clipPath>
</defs>
</svg>
