<svg width="160" height="40" viewBox="0 0 160 40" fill="none" xmlns="http://www.w3.org/2000/svg">
<g clip-path="url(#clip0_171_117321)">
<mask id="mask0_171_117321" style="mask-type:luminance" maskUnits="userSpaceOnUse" x="0" y="11" width="160" height="18">
<path d="M159.999 11.332H0.0273438V28.6637H159.999V11.332Z" fill="white"/>
</mask>
<g mask="url(#mask0_171_117321)">
<path d="M0 12.1094H9.30183V15.2242H0V12.1094Z" fill="#F8F7F7"/>
<path d="M0 18.7598H12.3977V21.877H0V18.7598Z" fill="#F8F7F7"/>
<path d="M0 25.4102H16.5311V28.525H0V25.4102Z" fill="#F8F7F7"/>
<path d="M30.7501 12.1094L26.7186 24.256L22.7771 12.1094H19.0488L24.6295 28.5244H28.8291L34.3861 12.1094H30.7501Z" fill="#F8F7F7"/>
<path d="M35.535 16.4707H38.8654V28.5249H35.535V16.4707ZM35.2768 13.3298C35.2365 12.2687 36.0656 11.3757 37.1267 11.3354C38.1879 11.2951 39.0809 12.1242 39.1212 13.1877C39.1614 14.2489 38.3324 15.1419 37.2689 15.1821C37.2452 15.1821 37.2215 15.1821 37.1978 15.1821C36.1698 15.2153 35.31 14.4076 35.2768 13.3796C35.2768 13.363 35.2768 13.3464 35.2768 13.3298Z" fill="#F8F7F7"/>
</g>
<path d="M48.4808 16.4707V19.4718H47.1685C45.1978 19.4718 44.4493 20.7841 44.4493 22.6151V28.5249H41.1426V16.4707H44.1437L44.4493 18.2756C45.1054 17.1979 46.0434 16.4707 47.9194 16.4707H48.4831H48.4808Z" fill="#F8F7F7"/>
<path d="M51.3378 19.2614H49.3457V16.4711H51.3378V13.0957H54.6445V16.4734H57.4111V19.2638H54.6445V24.5388C54.6445 25.3844 54.9737 25.735 55.8406 25.735H57.4821V28.5253H54.7866C52.4889 28.5253 51.3401 27.3765 51.3401 25.0789V19.2638L51.3378 19.2614Z" fill="#F8F7F7"/>
<path d="M67.0502 16.4707H70.3569V28.5249H67.4245L67.1189 27.0706C66.3443 28.0086 65.2903 28.6647 63.5777 28.6647C61.093 28.6647 58.793 27.4211 58.793 23.1551V16.4707H62.0997V22.7075C62.0997 24.8653 62.8032 25.9194 64.4447 25.9194C66.0862 25.9194 67.0478 24.7232 67.0478 22.4966V16.4707H67.0502Z" fill="#F8F7F7"/>
<path d="M80.1108 23.3197H77.6947C76.3114 23.3197 75.5131 23.8834 75.5131 24.8901C75.5131 25.7333 76.1929 26.2734 77.2944 26.2734C79.0306 26.2734 80.0847 25.1957 80.1084 23.5542V23.3197H80.1108ZM84.5212 25.7357V28.526H82.8324C81.1198 28.526 80.5821 27.7065 80.6058 26.5553C79.7626 27.8912 78.5427 28.6658 76.6667 28.6658C74.0635 28.6658 72.1875 27.4222 72.1875 25.1246C72.1875 22.5688 74.1109 21.1144 77.7207 21.1144H80.1131V20.527C80.1131 19.4492 79.3386 18.7457 77.9552 18.7457C76.6667 18.7457 75.7974 19.3332 75.6576 20.2238H72.467C72.7015 17.8788 74.8594 16.332 78.0476 16.332C81.4254 16.332 83.3701 17.8338 83.3701 20.7165V24.9848C83.3701 25.6173 83.6282 25.7357 84.1446 25.7357H84.5189H84.5212Z" fill="#F8F7F7"/>
<path d="M85.8105 12.1113H89.1172V28.5263H85.8105V12.1113Z" fill="#F8F7F7"/>
<path d="M91.6738 12.1113H96.2928L100.843 24.1632L105.251 12.1113H109.778V28.5263H106.424V17.5285L102.155 28.5263H99.2963L95.0279 17.5285V28.5263H91.6738V12.1113Z" fill="#F8F7F7"/>
<path d="M120.347 21.0935C120.113 19.6154 119.103 18.7959 117.604 18.7959C116.105 18.7959 115.096 19.6628 114.906 21.0935H120.347ZM111.389 22.5218C111.389 18.7698 113.85 16.3301 117.58 16.3301C121.311 16.3301 123.63 18.5803 123.677 22.1215C123.68 22.4981 123.649 22.8748 123.583 23.2466H114.837V23.4101C114.909 25.1226 116.01 26.153 117.675 26.153C119.011 26.153 119.949 25.5656 120.231 24.4405H123.49C123.116 26.7855 121.029 28.6615 117.815 28.6615C113.805 28.6615 111.391 26.2454 111.391 22.5171" fill="#F8F7F7"/>
<path d="M126.303 19.2614H124.309V16.4711H126.303V13.0957H129.61V16.4734H132.376V19.2638H129.61V24.5388C129.61 25.3844 129.939 25.735 130.806 25.735H132.447V28.5253H129.752C127.454 28.5253 126.305 27.3765 126.305 25.0789V19.2638L126.303 19.2614Z" fill="#F8F7F7"/>
<mask id="mask1_171_117321" style="mask-type:luminance" maskUnits="userSpaceOnUse" x="0" y="11" width="160" height="18">
<path d="M159.999 11.332H0.0273438V28.6637H159.999V11.332Z" fill="white"/>
</mask>
<g mask="url(#mask1_171_117321)">
<path d="M141.311 16.4707V19.4718H139.999C138.028 19.4718 137.279 20.7841 137.279 22.6151V28.5249H133.973V16.4707H136.974L137.279 18.2756C137.935 17.1979 138.873 16.4707 140.749 16.4707H141.313H141.311Z" fill="#F8F7F7"/>
<path d="M142.789 16.4707H146.119V28.5249H142.789V16.4707ZM142.531 13.3298C142.49 12.2687 143.319 11.3757 144.383 11.3354C145.444 11.2951 146.337 12.1242 146.377 13.1877C146.418 14.2489 145.589 15.1419 144.525 15.1821C144.501 15.1821 144.478 15.1821 144.454 15.1821C143.426 15.2153 142.566 14.4076 142.533 13.3796C142.533 13.363 142.533 13.3464 142.533 13.3298" fill="#F8F7F7"/>
</g>
<path d="M147.924 22.5001C147.924 18.7718 150.364 16.332 154.185 16.332C157.468 16.332 159.507 18.1133 159.976 20.9747H156.53C156.248 19.7785 155.428 19.0276 154.137 19.0276C152.403 19.0276 151.3 20.4583 151.3 22.4977C151.3 24.5372 152.401 25.9678 154.137 25.9678C155.428 25.9678 156.295 25.1933 156.53 23.9734H160C159.531 26.8585 157.349 28.6634 154.066 28.6634C150.243 28.6634 147.922 26.2947 147.922 22.4954" fill="#F8F7F7"/>
</g>
<defs>
<clipPath id="clip0_171_117321">
<rect width="160" height="17.3317" fill="white" transform="translate(0 11.334)"/>
</clipPath>
</defs>
</svg>
