<svg width="160" height="40" viewBox="0 0 160 40" fill="none" xmlns="http://www.w3.org/2000/svg">
<g clip-path="url(#clip0_171_117347)">
<mask id="mask0_171_117347" style="mask-type:luminance" maskUnits="userSpaceOnUse" x="0" y="11" width="160" height="18">
<path d="M159.999 11.334H0.0273438V28.6657H159.999V11.334Z" fill="white"/>
</mask>
<g mask="url(#mask0_171_117347)">
<path d="M0 12.1113H9.30183V15.2262H0V12.1113Z" fill="#606770"/>
<path d="M0 18.7617H12.3977V21.8789H0V18.7617Z" fill="#606770"/>
<path d="M0 25.4121H16.5311V28.5269H0V25.4121Z" fill="#606770"/>
<path d="M30.7501 12.1113L26.7186 24.258L22.7771 12.1113H19.0488L24.6295 28.5263H28.8291L34.3861 12.1113H30.7501Z" fill="#606770"/>
<path d="M35.535 16.4727H38.8654V28.5269H35.535V16.4727ZM35.2768 13.3318C35.2365 12.2706 36.0656 11.3776 37.1267 11.3373C38.1879 11.2971 39.0809 12.1261 39.1212 13.1897C39.1614 14.2508 38.3324 15.1438 37.2689 15.1841C37.2452 15.1841 37.2215 15.1841 37.1978 15.1841C36.1698 15.2173 35.31 14.4095 35.2768 13.3815C35.2768 13.3649 35.2768 13.3484 35.2768 13.3318Z" fill="#606770"/>
</g>
<path d="M48.4788 16.4727V19.4738H47.1666C45.1958 19.4738 44.4473 20.786 44.4473 22.617V28.5269H41.1406V16.4727H44.1417L44.4473 18.2776C45.1034 17.1998 46.0414 16.4727 47.9174 16.4727H48.4812H48.4788Z" fill="#606770"/>
<path d="M51.3397 19.2633H49.3477V16.473H51.3397V13.0977H54.6464V16.4754H57.413V19.2657H54.6464V24.5408C54.6464 25.3864 54.9757 25.737 55.8426 25.737H57.4841V28.5273H54.7885C52.4909 28.5273 51.3421 27.3785 51.3421 25.0808V19.2657L51.3397 19.2633Z" fill="#606770"/>
<path d="M67.0502 16.4727H70.3569V28.5269H67.4245L67.1189 27.0725C66.3443 28.0105 65.2903 28.6667 63.5777 28.6667C61.093 28.6667 58.793 27.4231 58.793 23.1571V16.4727H62.0997V22.7094C62.0997 24.8673 62.8032 25.9213 64.4447 25.9213C66.0862 25.9213 67.0478 24.7252 67.0478 22.4986V16.4727H67.0502Z" fill="#606770"/>
<path d="M80.1108 23.3197H77.6947C76.3114 23.3197 75.5131 23.8834 75.5131 24.8901C75.5131 25.7333 76.1929 26.2734 77.2944 26.2734C79.0306 26.2734 80.0847 25.1957 80.1084 23.5542V23.3197H80.1108ZM84.5212 25.7357V28.526H82.8324C81.1198 28.526 80.5821 27.7065 80.6058 26.5553C79.7626 27.8912 78.5427 28.6658 76.6667 28.6658C74.0635 28.6658 72.1875 27.4222 72.1875 25.1246C72.1875 22.5688 74.1109 21.1144 77.7207 21.1144H80.1131V20.527C80.1131 19.4492 79.3386 18.7457 77.9552 18.7457C76.6667 18.7457 75.7974 19.3332 75.6576 20.2238H72.467C72.7015 17.8788 74.8594 16.332 78.0476 16.332C81.4254 16.332 83.3701 17.8338 83.3701 20.7165V24.9848C83.3701 25.6173 83.6282 25.7357 84.1446 25.7357H84.5189H84.5212Z" fill="#606770"/>
<path d="M85.8105 12.1113H89.1172V28.5263H85.8105V12.1113Z" fill="#606770"/>
<path d="M91.6719 12.1113H96.2908L100.841 24.1632L105.249 12.1113H109.776V28.5263H106.422V17.5285L102.153 28.5263H99.2943L95.0259 17.5285V28.5263H91.6719V12.1113Z" fill="#606770"/>
<path d="M120.347 21.0935C120.113 19.6154 119.103 18.7959 117.604 18.7959C116.105 18.7959 115.096 19.6628 114.906 21.0935H120.347ZM111.389 22.5218C111.389 18.7698 113.85 16.3301 117.58 16.3301C121.311 16.3301 123.63 18.5803 123.677 22.1215C123.68 22.4981 123.649 22.8748 123.583 23.2466H114.837V23.4101C114.909 25.1226 116.01 26.153 117.675 26.153C119.011 26.153 119.949 25.5656 120.231 24.4405H123.49C123.116 26.7855 121.029 28.6615 117.815 28.6615C113.805 28.6615 111.391 26.2454 111.391 22.5171" fill="#606770"/>
<path d="M126.303 19.2633H124.309V16.473H126.303V13.0977H129.61V16.4754H132.376V19.2657H129.61V24.5408C129.61 25.3864 129.939 25.737 130.806 25.737H132.447V28.5273H129.752C127.454 28.5273 126.305 27.3785 126.305 25.0808V19.2657L126.303 19.2633Z" fill="#606770"/>
<mask id="mask1_171_117347" style="mask-type:luminance" maskUnits="userSpaceOnUse" x="0" y="11" width="160" height="18">
<path d="M159.999 11.334H0.0273438V28.6657H159.999V11.334Z" fill="white"/>
</mask>
<g mask="url(#mask1_171_117347)">
<path d="M141.311 16.4727V19.4738H139.999C138.028 19.4738 137.279 20.786 137.279 22.617V28.5269H133.973V16.4727H136.974L137.279 18.2776C137.935 17.1998 138.873 16.4727 140.749 16.4727H141.313H141.311Z" fill="#606770"/>
<path d="M142.789 16.4727H146.119V28.5269H142.789V16.4727ZM142.531 13.3318C142.49 12.2706 143.319 11.3776 144.383 11.3373C145.444 11.2971 146.337 12.1261 146.377 13.1897C146.418 14.2508 145.589 15.1438 144.525 15.1841C144.501 15.1841 144.478 15.1841 144.454 15.1841C143.426 15.2173 142.566 14.4095 142.533 13.3815C142.533 13.3649 142.533 13.3484 142.533 13.3318" fill="#606770"/>
</g>
<path d="M147.924 22.5001C147.924 18.7718 150.364 16.332 154.185 16.332C157.468 16.332 159.507 18.1133 159.976 20.9747H156.53C156.248 19.7785 155.428 19.0276 154.137 19.0276C152.403 19.0276 151.3 20.4583 151.3 22.4977C151.3 24.5372 152.401 25.9678 154.137 25.9678C155.428 25.9678 156.295 25.1933 156.53 23.9734H160C159.531 26.8585 157.349 28.6634 154.066 28.6634C150.243 28.6634 147.922 26.2947 147.922 22.4954" fill="#606770"/>
</g>
<defs>
<clipPath id="clip0_171_117347">
<rect width="160" height="17.3317" fill="white" transform="translate(0 11.334)"/>
</clipPath>
</defs>
</svg>
