<svg width="160" height="40" viewBox="0 0 160 40" fill="none" xmlns="http://www.w3.org/2000/svg">
<g clip-path="url(#clip0_171_117289)">
<mask id="mask0_171_117289" style="mask-type:luminance" maskUnits="userSpaceOnUse" x="0" y="11" width="160" height="18">
<path d="M160.001 11.3359H0.0292969V28.6676H160.001V11.3359Z" fill="white"/>
</mask>
<g mask="url(#mask0_171_117289)">
<path d="M0 12.1133H9.30183V15.2281H0V12.1133Z" fill="#272461"/>
<path d="M0 18.7617H12.3977V21.8789H0V18.7617Z" fill="#272461"/>
<path d="M0 25.4121H16.5311V28.5269H0V25.4121Z" fill="#272461"/>
<path d="M30.7501 12.1133L26.7186 24.2599L22.7771 12.1133H19.0488L24.6295 28.5283H28.8291L34.3861 12.1133H30.7501Z" fill="#272461"/>
<path d="M35.5369 16.4727H38.8673V28.5269H35.5369V16.4727ZM35.2788 13.3318C35.2385 12.2706 36.0675 11.3776 37.1287 11.3373C38.1899 11.2971 39.0829 12.1261 39.1231 13.1897C39.1634 14.2508 38.3344 15.1438 37.2708 15.1841C37.2471 15.1841 37.2234 15.1841 37.1998 15.1841C36.1717 15.2173 35.3119 14.4095 35.2788 13.3815C35.2788 13.3649 35.2788 13.3484 35.2788 13.3318Z" fill="#272461"/>
</g>
<path d="M48.4808 16.4707V19.4718H47.1685C45.1978 19.4718 44.4493 20.7841 44.4493 22.6151V28.5249H41.1426V16.4707H44.1437L44.4493 18.2756C45.1054 17.1979 46.0434 16.4707 47.9194 16.4707H48.4831H48.4808Z" fill="#272461"/>
<path d="M51.3378 19.2614H49.3457V16.4711H51.3378V13.0957H54.6445V16.4734H57.4111V19.2638H54.6445V24.5388C54.6445 25.3844 54.9737 25.735 55.8406 25.735H57.4821V28.5253H54.7866C52.4889 28.5253 51.3401 27.3765 51.3401 25.0789V19.2638L51.3378 19.2614Z" fill="#272461"/>
<path d="M67.0502 16.4707H70.3569V28.5249H67.4245L67.1189 27.0706C66.3443 28.0086 65.2903 28.6647 63.5777 28.6647C61.093 28.6647 58.793 27.4211 58.793 23.1551V16.4707H62.0997V22.7075C62.0997 24.8653 62.8032 25.9194 64.4447 25.9194C66.0862 25.9194 67.0478 24.7232 67.0478 22.4966V16.4707H67.0502Z" fill="#272461"/>
<path d="M80.1108 23.3197H77.6947C76.3114 23.3197 75.5131 23.8834 75.5131 24.8901C75.5131 25.7333 76.1929 26.2734 77.2944 26.2734C79.0306 26.2734 80.0847 25.1957 80.1084 23.5542V23.3197H80.1108ZM84.5212 25.7357V28.526H82.8324C81.1198 28.526 80.5821 27.7065 80.6058 26.5553C79.7626 27.8912 78.5427 28.6658 76.6667 28.6658C74.0635 28.6658 72.1875 27.4222 72.1875 25.1246C72.1875 22.5688 74.1109 21.1144 77.7207 21.1144H80.1131V20.527C80.1131 19.4492 79.3386 18.7457 77.9552 18.7457C76.6667 18.7457 75.7974 19.3332 75.6576 20.2238H72.467C72.7015 17.8788 74.8594 16.332 78.0476 16.332C81.4254 16.332 83.3701 17.8338 83.3701 20.7165V24.9848C83.3701 25.6173 83.6282 25.7357 84.1446 25.7357H84.5189H84.5212Z" fill="#272461"/>
<path d="M85.8105 12.1113H89.1172V28.5263H85.8105V12.1113Z" fill="#272461"/>
<path d="M91.6738 12.1113H96.2928L100.843 24.1632L105.251 12.1113H109.778V28.5263H106.424V17.5285L102.155 28.5263H99.2963L95.0279 17.5285V28.5263H91.6738V12.1113Z" fill="#272461"/>
<path d="M120.347 21.0935C120.113 19.6154 119.103 18.7959 117.604 18.7959C116.105 18.7959 115.096 19.6628 114.906 21.0935H120.347ZM111.389 22.5218C111.389 18.7698 113.85 16.3301 117.58 16.3301C121.311 16.3301 123.63 18.5803 123.677 22.1215C123.68 22.4981 123.649 22.8748 123.583 23.2466H114.837V23.4101C114.909 25.1226 116.01 26.153 117.675 26.153C119.011 26.153 119.949 25.5656 120.231 24.4405H123.49C123.116 26.7855 121.029 28.6615 117.815 28.6615C113.805 28.6615 111.391 26.2454 111.391 22.5171" fill="#272461"/>
<path d="M126.303 19.2614H124.309V16.4711H126.303V13.0957H129.61V16.4734H132.376V19.2638H129.61V24.5388C129.61 25.3844 129.939 25.735 130.806 25.735H132.447V28.5253H129.752C127.454 28.5253 126.305 27.3765 126.305 25.0789V19.2638L126.303 19.2614Z" fill="#272461"/>
<mask id="mask1_171_117289" style="mask-type:luminance" maskUnits="userSpaceOnUse" x="0" y="11" width="160" height="18">
<path d="M160.001 11.3359H0.0292969V28.6676H160.001V11.3359Z" fill="white"/>
</mask>
<g mask="url(#mask1_171_117289)">
<path d="M141.313 16.4727V19.4738H140.001C138.03 19.4738 137.281 20.786 137.281 22.617V28.5269H133.975V16.4727H136.976L137.281 18.2776C137.937 17.1998 138.875 16.4727 140.751 16.4727H141.315H141.313Z" fill="#272461"/>
<path d="M142.793 16.4727H146.123V28.5269H142.793V16.4727ZM142.535 13.3318C142.494 12.2706 143.323 11.3776 144.387 11.3373C145.448 11.2971 146.341 12.1261 146.381 13.1897C146.422 14.2508 145.593 15.1438 144.529 15.1841C144.505 15.1841 144.482 15.1841 144.458 15.1841C143.43 15.2173 142.57 14.4095 142.537 13.3815C142.537 13.3649 142.537 13.3484 142.537 13.3318" fill="#272461"/>
</g>
<path d="M147.924 22.5001C147.924 18.7718 150.364 16.332 154.185 16.332C157.468 16.332 159.507 18.1133 159.976 20.9747H156.53C156.248 19.7785 155.428 19.0276 154.137 19.0276C152.403 19.0276 151.3 20.4583 151.3 22.4977C151.3 24.5372 152.401 25.9678 154.137 25.9678C155.428 25.9678 156.295 25.1933 156.53 23.9734H160C159.531 26.8585 157.349 28.6634 154.066 28.6634C150.243 28.6634 147.922 26.2947 147.922 22.4954" fill="#272461"/>
</g>
<defs>
<clipPath id="clip0_171_117289">
<rect width="160" height="17.3317" fill="white" transform="translate(0 11.332)"/>
</clipPath>
</defs>
</svg>
