<?xml version="1.0" encoding="UTF-8" standalone="no"?>
<!DOCTYPE svg PUBLIC "-//W3C//DTD SVG 1.1//EN"
 "http://www.w3.org/Graphics/SVG/1.1/DTD/svg11.dtd">
<!-- Generated by graphviz version 13.0.1 (20250615.1724)
 -->
<!-- Title: DeviceToPipeline Pages: 1 -->
<svg width="389pt" height="116pt"
 viewBox="0.00 0.00 389.00 116.00" xmlns="http://www.w3.org/2000/svg" xmlns:xlink="http://www.w3.org/1999/xlink">
<g id="graph0" class="graph" transform="scale(1 1) rotate(0) translate(4 112)">
<title>DeviceToPipeline</title>
<polygon fill="white" stroke="none" points="-4,4 -4,-112 385,-112 385,4 -4,4"/>
<!-- Syslog -->
<g id="node1" class="node">
<title>Syslog</title>
<path fill="#ececec" stroke="#999999" d="M57.5,-108C57.5,-108 27.5,-108 27.5,-108 21.5,-108 15.5,-102 15.5,-96 15.5,-96 15.5,-84 15.5,-84 15.5,-78 21.5,-72 27.5,-72 27.5,-72 57.5,-72 57.5,-72 63.5,-72 69.5,-78 69.5,-84 69.5,-84 69.5,-96 69.5,-96 69.5,-102 63.5,-108 57.5,-108"/>
<text xml:space="preserve" text-anchor="middle" x="42.5" y="-85.17" font-family="Calibri" font-size="11.00">Syslog</text>
</g>
<!-- P1 -->
<g id="node5" class="node">
<title>P1</title>
<path fill="#ececec" stroke="#999999" d="M73,-36C73,-36 12,-36 12,-36 6,-36 0,-30 0,-24 0,-24 0,-12 0,-12 0,-6 6,0 12,0 12,0 73,0 73,0 79,0 85,-6 85,-12 85,-12 85,-24 85,-24 85,-30 79,-36 73,-36"/>
<text xml:space="preserve" text-anchor="middle" x="42.5" y="-18.8" font-family="Calibri" font-size="11.00">Pipeline A</text>
<text xml:space="preserve" text-anchor="middle" x="42.5" y="-7.55" font-family="Calibri" font-size="11.00">(Syslog Parsing)</text>
</g>
<!-- Syslog&#45;&gt;P1 -->
<g id="edge1" class="edge">
<title>Syslog&#45;&gt;P1</title>
<path fill="none" stroke="#606090" d="M42.5,-71.7C42.5,-64.41 42.5,-55.73 42.5,-47.54"/>
<polygon fill="#606090" stroke="#606090" points="46,-47.62 42.5,-37.62 39,-47.62 46,-47.62"/>
</g>
<!-- Winlogbeat -->
<g id="node2" class="node">
<title>Winlogbeat</title>
<path fill="#ececec" stroke="#999999" d="M161.75,-108C161.75,-108 99.25,-108 99.25,-108 93.25,-108 87.25,-102 87.25,-96 87.25,-96 87.25,-84 87.25,-84 87.25,-78 93.25,-72 99.25,-72 99.25,-72 161.75,-72 161.75,-72 167.75,-72 173.75,-78 173.75,-84 173.75,-84 173.75,-96 173.75,-96 173.75,-102 167.75,-108 161.75,-108"/>
<text xml:space="preserve" text-anchor="middle" x="130.5" y="-85.17" font-family="Calibri" font-size="11.00">Windows Agent</text>
</g>
<!-- P2 -->
<g id="node6" class="node">
<title>P2</title>
<path fill="#ececec" stroke="#999999" d="M215,-36C215,-36 154,-36 154,-36 148,-36 142,-30 142,-24 142,-24 142,-12 142,-12 142,-6 148,0 154,0 154,0 215,0 215,0 221,0 227,-6 227,-12 227,-12 227,-24 227,-24 227,-30 221,-36 215,-36"/>
<text xml:space="preserve" text-anchor="middle" x="184.5" y="-18.8" font-family="Calibri" font-size="11.00">Pipeline B</text>
<text xml:space="preserve" text-anchor="middle" x="184.5" y="-7.55" font-family="Calibri" font-size="11.00">(Normalization)</text>
</g>
<!-- Winlogbeat&#45;&gt;P2 -->
<g id="edge2" class="edge">
<title>Winlogbeat&#45;&gt;P2</title>
<path fill="none" stroke="#606090" d="M143.85,-71.7C150.06,-63.64 157.58,-53.89 164.46,-44.98"/>
<polygon fill="#606090" stroke="#606090" points="167.04,-47.36 170.38,-37.3 161.5,-43.08 167.04,-47.36"/>
</g>
<!-- Kafka -->
<g id="node3" class="node">
<title>Kafka</title>
<path fill="#ececec" stroke="#999999" d="M254.75,-108C254.75,-108 204.25,-108 204.25,-108 198.25,-108 192.25,-102 192.25,-96 192.25,-96 192.25,-84 192.25,-84 192.25,-78 198.25,-72 204.25,-72 204.25,-72 254.75,-72 254.75,-72 260.75,-72 266.75,-78 266.75,-84 266.75,-84 266.75,-96 266.75,-96 266.75,-102 260.75,-108 254.75,-108"/>
<text xml:space="preserve" text-anchor="middle" x="229.5" y="-85.17" font-family="Calibri" font-size="11.00">Kafka Stream</text>
</g>
<!-- Kafka&#45;&gt;P2 -->
<g id="edge3" class="edge">
<title>Kafka&#45;&gt;P2</title>
<path fill="none" stroke="#606090" d="M218.38,-71.7C213.31,-63.81 207.2,-54.3 201.57,-45.55"/>
<polygon fill="#606090" stroke="#606090" points="204.67,-43.9 196.31,-37.38 198.78,-47.68 204.67,-43.9"/>
</g>
<!-- HTTP -->
<g id="node4" class="node">
<title>HTTP</title>
<path fill="#ececec" stroke="#999999" d="M363.38,-108C363.38,-108 301.62,-108 301.62,-108 295.62,-108 289.62,-102 289.62,-96 289.62,-96 289.62,-84 289.62,-84 289.62,-78 295.62,-72 301.62,-72 301.62,-72 363.38,-72 363.38,-72 369.38,-72 375.38,-78 375.38,-84 375.38,-84 375.38,-96 375.38,-96 375.38,-102 369.38,-108 363.38,-108"/>
<text xml:space="preserve" text-anchor="middle" x="332.5" y="-85.17" font-family="Calibri" font-size="11.00">HTTP Webhook</text>
</g>
<!-- P3 -->
<g id="node7" class="node">
<title>P3</title>
<path fill="#ececec" stroke="#999999" d="M369,-36C369,-36 296,-36 296,-36 290,-36 284,-30 284,-24 284,-24 284,-12 284,-12 284,-6 290,0 296,0 296,0 369,0 369,0 375,0 381,-6 381,-12 381,-12 381,-24 381,-24 381,-30 375,-36 369,-36"/>
<text xml:space="preserve" text-anchor="middle" x="332.5" y="-18.8" font-family="Calibri" font-size="11.00">Pipeline C</text>
<text xml:space="preserve" text-anchor="middle" x="332.5" y="-7.55" font-family="Calibri" font-size="11.00">(Alert Enrichment)</text>
</g>
<!-- HTTP&#45;&gt;P3 -->
<g id="edge4" class="edge">
<title>HTTP&#45;&gt;P3</title>
<path fill="none" stroke="#606090" d="M332.5,-71.7C332.5,-64.41 332.5,-55.73 332.5,-47.54"/>
<polygon fill="#606090" stroke="#606090" points="336,-47.62 332.5,-37.62 329,-47.62 336,-47.62"/>
</g>
</g>
</svg>
