<?xml version="1.0" encoding="UTF-8" standalone="no"?>
<!DOCTYPE svg PUBLIC "-//W3C//DTD SVG 1.1//EN"
 "http://www.w3.org/Graphics/SVG/1.1/DTD/svg11.dtd">
<!-- Generated by graphviz version 13.0.1 (20250615.1724)
 -->
<!-- Title: dataFlow Pages: 1 -->
<svg width="546pt" height="200pt"
 viewBox="0.00 0.00 546.00 200.00" xmlns="http://www.w3.org/2000/svg" xmlns:xlink="http://www.w3.org/1999/xlink">
<g id="graph0" class="graph" transform="scale(1 1) rotate(0) translate(4 196)">
<title>dataFlow</title>
<polygon fill="white" stroke="none" points="-4,4 -4,-196 541.75,-196 541.75,4 -4,4"/>
<g id="clust1" class="cluster">
<title>cluster_sources</title>
<path fill="#e3f2fd" stroke="black" d="M20,-35C20,-35 66,-35 66,-35 72,-35 78,-41 78,-47 78,-47 78,-145 78,-145 78,-151 72,-157 66,-157 66,-157 20,-157 20,-157 14,-157 8,-151 8,-145 8,-145 8,-47 8,-47 8,-41 14,-35 20,-35"/>
<text xml:space="preserve" text-anchor="middle" x="43" y="-145.4" font-family="Calibri" font-size="8.00">Sources</text>
</g>
<g id="clust2" class="cluster">
<title>cluster_routing</title>
<path fill="#e8f5e9" stroke="black" d="M200,-62C200,-62 336,-62 336,-62 342,-62 348,-68 348,-74 348,-74 348,-118 348,-118 348,-124 342,-130 336,-130 336,-130 200,-130 200,-130 194,-130 188,-124 188,-118 188,-118 188,-74 188,-74 188,-68 194,-62 200,-62"/>
<text xml:space="preserve" text-anchor="middle" x="268" y="-118.4" font-family="Calibri" font-size="8.00">Routing</text>
</g>
<g id="clust3" class="cluster">
<title>cluster_targets</title>
<path fill="#fff3e0" stroke="black" d="M471.75,-8C471.75,-8 517.75,-8 517.75,-8 523.75,-8 529.75,-14 529.75,-20 529.75,-20 529.75,-172 529.75,-172 529.75,-178 523.75,-184 517.75,-184 517.75,-184 471.75,-184 471.75,-184 465.75,-184 459.75,-178 459.75,-172 459.75,-172 459.75,-20 459.75,-20 459.75,-14 465.75,-8 471.75,-8"/>
<text xml:space="preserve" text-anchor="middle" x="494.75" y="-172.4" font-family="Calibri" font-size="8.00">Targets</text>
</g>
<!-- source1 -->
<g id="node1" class="node">
<title>source1</title>
<polygon fill="#bbdefb" stroke="black" points="70,-79 16,-79 16,-43 70,-43 70,-79"/>
<text xml:space="preserve" text-anchor="middle" x="43" y="-57.52" font-family="Calibri" font-size="8.00">S1</text>
</g>
<!-- preprocess -->
<g id="node3" class="node">
<title>preprocess</title>
<polygon fill="#c8e6c9" stroke="black" points="160,-106 106,-106 106,-70 160,-70 160,-106"/>
<text xml:space="preserve" text-anchor="middle" x="133" y="-84.53" font-family="Calibri" font-size="8.00">Preprocess</text>
</g>
<!-- source1&#45;&gt;preprocess -->
<g id="edge2" class="edge">
<title>source1&#45;&gt;preprocess</title>
<path fill="none" stroke="black" d="M70.4,-69.1C78.06,-71.45 86.57,-74.06 94.76,-76.57"/>
<polygon fill="black" stroke="black" points="93.58,-79.87 104.17,-79.46 95.64,-73.18 93.58,-79.87"/>
</g>
<!-- source2 -->
<g id="node2" class="node">
<title>source2</title>
<polygon fill="#bbdefb" stroke="black" points="70,-133 16,-133 16,-97 70,-97 70,-133"/>
<text xml:space="preserve" text-anchor="middle" x="43" y="-111.53" font-family="Calibri" font-size="8.00">S2</text>
</g>
<!-- source2&#45;&gt;preprocess -->
<g id="edge3" class="edge">
<title>source2&#45;&gt;preprocess</title>
<path fill="none" stroke="black" d="M70.4,-106.9C78.06,-104.55 86.57,-101.94 94.76,-99.43"/>
<polygon fill="black" stroke="black" points="95.64,-102.82 104.17,-96.54 93.58,-96.13 95.64,-102.82"/>
</g>
<!-- transform -->
<g id="node4" class="node">
<title>transform</title>
<polygon fill="#c8e6c9" stroke="black" points="250,-106 196,-106 196,-70 250,-70 250,-106"/>
<text xml:space="preserve" text-anchor="middle" x="223" y="-84.53" font-family="Calibri" font-size="8.00">Transform</text>
</g>
<!-- preprocess&#45;&gt;transform -->
<g id="edge4" class="edge">
<title>preprocess&#45;&gt;transform</title>
<path fill="none" stroke="black" d="M160.4,-88C167.89,-88 176.18,-88 184.2,-88"/>
<polygon fill="black" stroke="black" points="184.1,-91.5 194.1,-88 184.1,-84.5 184.1,-91.5"/>
</g>
<!-- enrich -->
<g id="node5" class="node">
<title>enrich</title>
<polygon fill="#c8e6c9" stroke="black" points="340,-106 286,-106 286,-70 340,-70 340,-106"/>
<text xml:space="preserve" text-anchor="middle" x="313" y="-84.53" font-family="Calibri" font-size="8.00">Enrich</text>
</g>
<!-- transform&#45;&gt;enrich -->
<g id="edge1" class="edge">
<title>transform&#45;&gt;enrich</title>
<path fill="none" stroke="black" d="M250.4,-88C257.89,-88 266.18,-88 274.2,-88"/>
<polygon fill="black" stroke="black" points="274.1,-91.5 284.1,-88 274.1,-84.5 274.1,-91.5"/>
</g>
<!-- postprocess -->
<g id="node6" class="node">
<title>postprocess</title>
<polygon fill="#c8e6c9" stroke="black" points="431.75,-106 376,-106 376,-70 431.75,-70 431.75,-106"/>
<text xml:space="preserve" text-anchor="middle" x="403.88" y="-84.53" font-family="Calibri" font-size="8.00">Postprocess</text>
</g>
<!-- enrich&#45;&gt;postprocess -->
<g id="edge5" class="edge">
<title>enrich&#45;&gt;postprocess</title>
<path fill="none" stroke="black" d="M340.18,-88C347.77,-88 356.22,-88 364.39,-88"/>
<polygon fill="black" stroke="black" points="364.13,-91.5 374.13,-88 364.13,-84.5 364.13,-91.5"/>
</g>
<!-- target1 -->
<g id="node7" class="node">
<title>target1</title>
<polygon fill="#ffe0b2" stroke="black" points="521.75,-52 467.75,-52 467.75,-16 521.75,-16 521.75,-52"/>
<text xml:space="preserve" text-anchor="middle" x="494.75" y="-30.52" font-family="Calibri" font-size="8.00">T1</text>
</g>
<!-- postprocess&#45;&gt;target1 -->
<g id="edge6" class="edge">
<title>postprocess&#45;&gt;target1</title>
<path fill="none" stroke="black" d="M432.02,-71.5C440.1,-66.6 449.07,-61.15 457.62,-55.95"/>
<polygon fill="black" stroke="black" points="459.36,-58.99 466.08,-50.81 455.72,-53.01 459.36,-58.99"/>
</g>
<!-- target2 -->
<g id="node8" class="node">
<title>target2</title>
<polygon fill="#ffe0b2" stroke="black" points="521.75,-106 467.75,-106 467.75,-70 521.75,-70 521.75,-106"/>
<text xml:space="preserve" text-anchor="middle" x="494.75" y="-84.53" font-family="Calibri" font-size="8.00">T2</text>
</g>
<!-- postprocess&#45;&gt;target2 -->
<g id="edge7" class="edge">
<title>postprocess&#45;&gt;target2</title>
<path fill="none" stroke="black" d="M432.02,-88C439.57,-88 447.9,-88 455.94,-88"/>
<polygon fill="black" stroke="black" points="455.86,-91.5 465.86,-88 455.86,-84.5 455.86,-91.5"/>
</g>
<!-- target3 -->
<g id="node9" class="node">
<title>target3</title>
<polygon fill="#ffe0b2" stroke="black" points="521.75,-160 467.75,-160 467.75,-124 521.75,-124 521.75,-160"/>
<text xml:space="preserve" text-anchor="middle" x="494.75" y="-138.53" font-family="Calibri" font-size="8.00">T3</text>
</g>
<!-- postprocess&#45;&gt;target3 -->
<g id="edge8" class="edge">
<title>postprocess&#45;&gt;target3</title>
<path fill="none" stroke="black" d="M432.02,-104.5C440.1,-109.4 449.07,-114.85 457.62,-120.05"/>
<polygon fill="black" stroke="black" points="455.72,-122.99 466.08,-125.19 459.36,-117.01 455.72,-122.99"/>
</g>
</g>
</svg>
