<?xml version="1.0" encoding="UTF-8" standalone="no"?>
<!DOCTYPE svg PUBLIC "-//W3C//DTD SVG 1.1//EN"
 "http://www.w3.org/Graphics/SVG/1.1/DTD/svg11.dtd">
<!-- Generated by graphviz version 13.0.1 (20250615.1724)
 -->
<!-- Title: dirTree Pages: 1 -->
<svg width="693pt" height="260pt"
 viewBox="0.00 0.00 693.00 260.00" xmlns="http://www.w3.org/2000/svg" xmlns:xlink="http://www.w3.org/1999/xlink">
<g id="graph0" class="graph" transform="scale(1 1) rotate(0) translate(4 256)">
<title>dirTree</title>
<g id="a_graph0"><a xlink:title="Directory Tree">
<polygon fill="white" stroke="none" points="-4,4 -4,-256 689.25,-256 689.25,4 -4,4"/>
</a>
</g>
<!-- root -->
<g id="node1" class="node">
<title>root</title>
<polygon fill="#5de2e7" stroke="black" points="421.25,-252 418.25,-256 397.25,-256 394.25,-252 364.75,-252 364.75,-216 421.25,-216 421.25,-252"/>
<text xml:space="preserve" text-anchor="middle" x="393" y="-230.9" font-family="Monaco" font-size="8.00">&lt;vm_root&gt;</text>
</g>
<!-- config -->
<g id="node2" class="node">
<title>config</title>
<polygon fill="#5de2e7" stroke="black" points="162,-180 159,-184 138,-184 135,-180 108,-180 108,-144 162,-144 162,-180"/>
<text xml:space="preserve" text-anchor="middle" x="135" y="-158.9" font-family="Monaco" font-size="8.00">config</text>
</g>
<!-- root&#45;&#45;config -->
<g id="edge1" class="edge">
<title>root&#45;&#45;config</title>
<path fill="none" stroke="black" d="M364.4,-225.24C314.29,-211.64 211.25,-183.69 162.16,-170.37"/>
</g>
<!-- package -->
<g id="node6" class="node">
<title>package</title>
<polygon fill="#5de2e7" stroke="black" points="420,-180 417,-184 396,-184 393,-180 366,-180 366,-144 420,-144 420,-180"/>
<text xml:space="preserve" text-anchor="middle" x="393" y="-158.9" font-family="Monaco" font-size="8.00">package</text>
</g>
<!-- root&#45;&#45;package -->
<g id="edge2" class="edge">
<title>root&#45;&#45;package</title>
<path fill="none" stroke="black" d="M393,-215.7C393,-204.85 393,-190.92 393,-180.1"/>
</g>
<!-- user -->
<g id="node14" class="node">
<title>user</title>
<polygon fill="#5de2e7" stroke="black" points="570,-180 567,-184 546,-184 543,-180 516,-180 516,-144 570,-144 570,-180"/>
<text xml:space="preserve" text-anchor="middle" x="543" y="-158.9" font-family="Monaco" font-size="8.00">user</text>
</g>
<!-- root&#45;&#45;user -->
<g id="edge3" class="edge">
<title>root&#45;&#45;user</title>
<path fill="none" stroke="black" d="M421.57,-219.67C448.6,-207.05 488.89,-188.25 515.55,-175.81"/>
</g>
<!-- devices -->
<g id="node3" class="node">
<title>devices</title>
<polygon fill="#5de2e7" stroke="black" points="54,-108 51,-112 30,-112 27,-108 0,-108 0,-72 54,-72 54,-108"/>
<text xml:space="preserve" text-anchor="middle" x="27" y="-86.9" font-family="Monaco" font-size="8.00">devices</text>
</g>
<!-- config&#45;&#45;devices -->
<g id="edge4" class="edge">
<title>config&#45;&#45;devices</title>
<path fill="none" stroke="black" d="M108.03,-143.52C91.41,-132.74 70.19,-118.99 53.63,-108.26"/>
</g>
<!-- routes -->
<g id="node4" class="node">
<title>routes</title>
<polygon fill="#5de2e7" stroke="black" points="126,-108 123,-112 102,-112 99,-108 72,-108 72,-72 126,-72 126,-108"/>
<text xml:space="preserve" text-anchor="middle" x="99" y="-86.9" font-family="Monaco" font-size="8.00">routes</text>
</g>
<!-- config&#45;&#45;routes -->
<g id="edge5" class="edge">
<title>config&#45;&#45;routes</title>
<path fill="none" stroke="black" d="M126.1,-143.7C120.52,-132.85 113.36,-118.92 107.8,-108.1"/>
</g>
<!-- targets -->
<g id="node5" class="node">
<title>targets</title>
<polygon fill="#5de2e7" stroke="black" points="198,-108 195,-112 174,-112 171,-108 144,-108 144,-72 198,-72 198,-108"/>
<text xml:space="preserve" text-anchor="middle" x="171" y="-86.9" font-family="Monaco" font-size="8.00">targets</text>
</g>
<!-- config&#45;&#45;targets -->
<g id="edge6" class="edge">
<title>config&#45;&#45;targets</title>
<path fill="none" stroke="black" d="M143.9,-143.7C149.48,-132.85 156.64,-118.92 162.2,-108.1"/>
</g>
<!-- agent -->
<g id="node7" class="node">
<title>agent</title>
<polygon fill="#5de2e7" stroke="black" points="270,-108 267,-112 246,-112 243,-108 216,-108 216,-72 270,-72 270,-108"/>
<text xml:space="preserve" text-anchor="middle" x="243" y="-86.9" font-family="Monaco" font-size="8.00">agent</text>
</g>
<!-- package&#45;&#45;agent -->
<g id="edge7" class="edge">
<title>package&#45;&#45;agent</title>
<path fill="none" stroke="black" d="M365.8,-148.41C342.69,-137.7 308.65,-121.89 279,-108 276.12,-106.65 273.11,-105.24 270.12,-103.83"/>
</g>
<!-- database -->
<g id="node8" class="node">
<title>database</title>
<polygon fill="#5de2e7" stroke="black" points="342,-108 339,-112 318,-112 315,-108 288,-108 288,-72 342,-72 342,-108"/>
<text xml:space="preserve" text-anchor="middle" x="315" y="-86.9" font-family="Monaco" font-size="8.00">database</text>
</g>
<!-- package&#45;&#45;database -->
<g id="edge8" class="edge">
<title>package&#45;&#45;database</title>
<path fill="none" stroke="black" d="M373.72,-143.7C361.72,-132.93 346.34,-119.12 334.33,-108.35"/>
</g>
<!-- packageDefinitions -->
<g id="node9" class="node">
<title>packageDefinitions</title>
<polygon fill="#5de2e7" stroke="black" points="425.75,-108 422.75,-112 401.75,-112 398.75,-108 360.25,-108 360.25,-72 425.75,-72 425.75,-108"/>
<text xml:space="preserve" text-anchor="middle" x="393" y="-86.9" font-family="Monaco" font-size="8.00">definitions</text>
</g>
<!-- package&#45;&#45;packageDefinitions -->
<g id="edge9" class="edge">
<title>package&#45;&#45;packageDefinitions</title>
<path fill="none" stroke="black" d="M393,-143.7C393,-132.85 393,-118.92 393,-108.1"/>
</g>
<!-- lookups -->
<g id="node12" class="node">
<title>lookups</title>
<polygon fill="#5de2e7" stroke="black" points="498,-108 495,-112 474,-112 471,-108 444,-108 444,-72 498,-72 498,-108"/>
<text xml:space="preserve" text-anchor="middle" x="471" y="-86.9" font-family="Monaco" font-size="8.00">lookups</text>
</g>
<!-- package&#45;&#45;lookups -->
<g id="edge10" class="edge">
<title>package&#45;&#45;lookups</title>
<path fill="none" stroke="black" d="M412.28,-143.7C424.28,-132.93 439.66,-119.12 451.67,-108.35"/>
</g>
<!-- mibs -->
<g id="node13" class="node">
<title>mibs</title>
<polygon fill="#5de2e7" stroke="black" points="570,-108 567,-112 546,-112 543,-108 516,-108 516,-72 570,-72 570,-108"/>
<text xml:space="preserve" text-anchor="middle" x="543" y="-86.9" font-family="Monaco" font-size="8.00">mibs</text>
</g>
<!-- package&#45;&#45;mibs -->
<g id="edge11" class="edge">
<title>package&#45;&#45;mibs</title>
<path fill="none" stroke="black" d="M420.2,-148.41C443.31,-137.7 477.35,-121.89 507,-108 509.88,-106.65 512.89,-105.24 515.88,-103.83"/>
</g>
<!-- packageDefinitionsModule -->
<g id="node10" class="node">
<title>packageDefinitionsModule</title>
<polygon fill="#5de2e7" stroke="black" points="383,-36 380,-40 359,-40 356,-36 329,-36 329,0 383,0 383,-36"/>
<text xml:space="preserve" text-anchor="middle" x="356" y="-14.9" font-family="Monaco" font-size="8.00">module</text>
</g>
<!-- packageDefinitions&#45;&#45;packageDefinitionsModule -->
<g id="edge12" class="edge">
<title>packageDefinitions&#45;&#45;packageDefinitionsModule</title>
<path fill="none" stroke="black" d="M383.85,-71.7C378.12,-60.85 370.76,-46.92 365.04,-36.1"/>
</g>
<!-- packageDefinitionsPipelines -->
<g id="node11" class="node">
<title>packageDefinitionsPipelines</title>
<polygon fill="#5de2e7" stroke="black" points="457.25,-36 454.25,-40 433.25,-40 430.25,-36 400.75,-36 400.75,0 457.25,0 457.25,-36"/>
<text xml:space="preserve" text-anchor="middle" x="429" y="-14.9" font-family="Monaco" font-size="8.00">pipelines</text>
</g>
<!-- packageDefinitions&#45;&#45;packageDefinitionsPipelines -->
<g id="edge13" class="edge">
<title>packageDefinitions&#45;&#45;packageDefinitionsPipelines</title>
<path fill="none" stroke="black" d="M401.9,-71.7C407.48,-60.85 414.64,-46.92 420.2,-36.1"/>
</g>
<!-- userDefinitions -->
<g id="node15" class="node">
<title>userDefinitions</title>
<polygon fill="#5de2e7" stroke="black" points="653.75,-108 650.75,-112 629.75,-112 626.75,-108 588.25,-108 588.25,-72 653.75,-72 653.75,-108"/>
<text xml:space="preserve" text-anchor="middle" x="621" y="-86.9" font-family="Monaco" font-size="8.00">definitions</text>
</g>
<!-- user&#45;&#45;userDefinitions -->
<g id="edge14" class="edge">
<title>user&#45;&#45;userDefinitions</title>
<path fill="none" stroke="black" d="M562.28,-143.7C574.28,-132.93 589.66,-119.12 601.67,-108.35"/>
</g>
<!-- userDefinitionsModule -->
<g id="node16" class="node">
<title>userDefinitionsModule</title>
<polygon fill="#5de2e7" stroke="black" points="611,-36 608,-40 587,-40 584,-36 557,-36 557,0 611,0 611,-36"/>
<text xml:space="preserve" text-anchor="middle" x="584" y="-14.9" font-family="Monaco" font-size="8.00">module</text>
</g>
<!-- userDefinitions&#45;&#45;userDefinitionsModule -->
<g id="edge15" class="edge">
<title>userDefinitions&#45;&#45;userDefinitionsModule</title>
<path fill="none" stroke="black" d="M611.85,-71.7C606.12,-60.85 598.76,-46.92 593.04,-36.1"/>
</g>
<!-- userDefinitionsPipelines -->
<g id="node17" class="node">
<title>userDefinitionsPipelines</title>
<polygon fill="#5de2e7" stroke="black" points="685.25,-36 682.25,-40 661.25,-40 658.25,-36 628.75,-36 628.75,0 685.25,0 685.25,-36"/>
<text xml:space="preserve" text-anchor="middle" x="657" y="-14.9" font-family="Monaco" font-size="8.00">pipelines</text>
</g>
<!-- userDefinitions&#45;&#45;userDefinitionsPipelines -->
<g id="edge16" class="edge">
<title>userDefinitions&#45;&#45;userDefinitionsPipelines</title>
<path fill="none" stroke="black" d="M629.9,-71.7C635.48,-60.85 642.64,-46.92 648.2,-36.1"/>
</g>
</g>
</svg>
