<?xml version="1.0" encoding="UTF-8" standalone="no"?>
<!DOCTYPE svg PUBLIC "-//W3C//DTD SVG 1.1//EN"
 "http://www.w3.org/Graphics/SVG/1.1/DTD/svg11.dtd">
<!-- Generated by graphviz version 13.0.1 (20250615.1724)
 -->
<!-- Title: dirTree Pages: 1 -->
<svg width="680pt" height="260pt"
 viewBox="0.00 0.00 680.00 260.00" xmlns="http://www.w3.org/2000/svg" xmlns:xlink="http://www.w3.org/1999/xlink">
<g id="graph0" class="graph" transform="scale(1 1) rotate(0) translate(4 256)">
<title>dirTree</title>
<g id="a_graph0"><a xlink:title="Directory Tree">
<polygon fill="white" stroke="none" points="-4,4 -4,-256 676,-256 676,4 -4,4"/>
</a>
</g>
<!-- root -->
<g id="node1" class="node">
<title>root</title>
<polygon fill="#bbdefb" stroke="black" points="419.5,-252 416.5,-256 395.5,-256 392.5,-252 358.5,-252 358.5,-216 419.5,-216 419.5,-252"/>
<text xml:space="preserve" text-anchor="middle" x="389" y="-229.75" font-family="Calibri" font-size="10.00">&lt;vm_root&gt;</text>
</g>
<!-- config -->
<g id="node2" class="node">
<title>config</title>
<polygon fill="#bbdefb" stroke="black" points="162,-180 159,-184 138,-184 135,-180 108,-180 108,-144 162,-144 162,-180"/>
<text xml:space="preserve" text-anchor="middle" x="135" y="-157.75" font-family="Calibri" font-size="10.00">config</text>
</g>
<!-- root&#45;&#45;config -->
<g id="edge1" class="edge">
<title>root&#45;&#45;config</title>
<path fill="none" stroke="black" d="M358.11,-224.49C308,-210.68 209.82,-183.62 162.2,-170.5"/>
</g>
<!-- package -->
<g id="node6" class="node">
<title>package</title>
<polygon fill="#bbdefb" stroke="black" points="416,-180 413,-184 392,-184 389,-180 362,-180 362,-144 416,-144 416,-180"/>
<text xml:space="preserve" text-anchor="middle" x="389" y="-157.75" font-family="Calibri" font-size="10.00">package</text>
</g>
<!-- root&#45;&#45;package -->
<g id="edge2" class="edge">
<title>root&#45;&#45;package</title>
<path fill="none" stroke="black" d="M389,-215.7C389,-204.85 389,-190.92 389,-180.1"/>
</g>
<!-- user -->
<g id="node14" class="node">
<title>user</title>
<polygon fill="#bbdefb" stroke="black" points="562,-180 559,-184 538,-184 535,-180 508,-180 508,-144 562,-144 562,-180"/>
<text xml:space="preserve" text-anchor="middle" x="535" y="-157.75" font-family="Calibri" font-size="10.00">user</text>
</g>
<!-- root&#45;&#45;user -->
<g id="edge3" class="edge">
<title>root&#45;&#45;user</title>
<path fill="none" stroke="black" d="M419.96,-218.15C445.91,-205.71 482.61,-188.12 507.53,-176.17"/>
</g>
<!-- devices -->
<g id="node3" class="node">
<title>devices</title>
<polygon fill="#bbdefb" stroke="black" points="54,-108 51,-112 30,-112 27,-108 0,-108 0,-72 54,-72 54,-108"/>
<text xml:space="preserve" text-anchor="middle" x="27" y="-85.75" font-family="Calibri" font-size="10.00">devices</text>
</g>
<!-- config&#45;&#45;devices -->
<g id="edge4" class="edge">
<title>config&#45;&#45;devices</title>
<path fill="none" stroke="black" d="M108.03,-143.52C91.41,-132.74 70.19,-118.99 53.63,-108.26"/>
</g>
<!-- routes -->
<g id="node4" class="node">
<title>routes</title>
<polygon fill="#bbdefb" stroke="black" points="126,-108 123,-112 102,-112 99,-108 72,-108 72,-72 126,-72 126,-108"/>
<text xml:space="preserve" text-anchor="middle" x="99" y="-85.75" font-family="Calibri" font-size="10.00">routes</text>
</g>
<!-- config&#45;&#45;routes -->
<g id="edge5" class="edge">
<title>config&#45;&#45;routes</title>
<path fill="none" stroke="black" d="M126.1,-143.7C120.52,-132.85 113.36,-118.92 107.8,-108.1"/>
</g>
<!-- targets -->
<g id="node5" class="node">
<title>targets</title>
<polygon fill="#bbdefb" stroke="black" points="198,-108 195,-112 174,-112 171,-108 144,-108 144,-72 198,-72 198,-108"/>
<text xml:space="preserve" text-anchor="middle" x="171" y="-85.75" font-family="Calibri" font-size="10.00">targets</text>
</g>
<!-- config&#45;&#45;targets -->
<g id="edge6" class="edge">
<title>config&#45;&#45;targets</title>
<path fill="none" stroke="black" d="M143.9,-143.7C149.48,-132.85 156.64,-118.92 162.2,-108.1"/>
</g>
<!-- agent -->
<g id="node7" class="node">
<title>agent</title>
<polygon fill="#bbdefb" stroke="black" points="270,-108 267,-112 246,-112 243,-108 216,-108 216,-72 270,-72 270,-108"/>
<text xml:space="preserve" text-anchor="middle" x="243" y="-85.75" font-family="Calibri" font-size="10.00">agent</text>
</g>
<!-- package&#45;&#45;agent -->
<g id="edge7" class="edge">
<title>package&#45;&#45;agent</title>
<path fill="none" stroke="black" d="M361.54,-147.83C335.44,-135.32 296.4,-116.6 270.34,-104.11"/>
</g>
<!-- database -->
<g id="node8" class="node">
<title>database</title>
<polygon fill="#bbdefb" stroke="black" points="342,-108 339,-112 318,-112 315,-108 288,-108 288,-72 342,-72 342,-108"/>
<text xml:space="preserve" text-anchor="middle" x="315" y="-85.75" font-family="Calibri" font-size="10.00">database</text>
</g>
<!-- package&#45;&#45;database -->
<g id="edge8" class="edge">
<title>package&#45;&#45;database</title>
<path fill="none" stroke="black" d="M370.71,-143.7C359.32,-132.93 344.73,-119.12 333.34,-108.35"/>
</g>
<!-- packageDefinitions -->
<g id="node9" class="node">
<title>packageDefinitions</title>
<polygon fill="#bbdefb" stroke="black" points="418.38,-108 415.38,-112 394.38,-112 391.38,-108 359.62,-108 359.62,-72 418.38,-72 418.38,-108"/>
<text xml:space="preserve" text-anchor="middle" x="389" y="-85.75" font-family="Calibri" font-size="10.00">definitions</text>
</g>
<!-- package&#45;&#45;packageDefinitions -->
<g id="edge9" class="edge">
<title>package&#45;&#45;packageDefinitions</title>
<path fill="none" stroke="black" d="M389,-143.7C389,-132.85 389,-118.92 389,-108.1"/>
</g>
<!-- lookups -->
<g id="node12" class="node">
<title>lookups</title>
<polygon fill="#bbdefb" stroke="black" points="490,-108 487,-112 466,-112 463,-108 436,-108 436,-72 490,-72 490,-108"/>
<text xml:space="preserve" text-anchor="middle" x="463" y="-85.75" font-family="Calibri" font-size="10.00">lookups</text>
</g>
<!-- package&#45;&#45;lookups -->
<g id="edge10" class="edge">
<title>package&#45;&#45;lookups</title>
<path fill="none" stroke="black" d="M407.29,-143.7C418.68,-132.93 433.27,-119.12 444.66,-108.35"/>
</g>
<!-- mibs -->
<g id="node13" class="node">
<title>mibs</title>
<polygon fill="#bbdefb" stroke="black" points="562,-108 559,-112 538,-112 535,-108 508,-108 508,-72 562,-72 562,-108"/>
<text xml:space="preserve" text-anchor="middle" x="535" y="-85.75" font-family="Calibri" font-size="10.00">mibs</text>
</g>
<!-- package&#45;&#45;mibs -->
<g id="edge11" class="edge">
<title>package&#45;&#45;mibs</title>
<path fill="none" stroke="black" d="M416.46,-147.83C442.56,-135.32 481.6,-116.6 507.66,-104.11"/>
</g>
<!-- packageDefinitionsModule -->
<g id="node10" class="node">
<title>packageDefinitionsModule</title>
<polygon fill="#bbdefb" stroke="black" points="380,-36 377,-40 356,-40 353,-36 326,-36 326,0 380,0 380,-36"/>
<text xml:space="preserve" text-anchor="middle" x="353" y="-13.75" font-family="Calibri" font-size="10.00">module</text>
</g>
<!-- packageDefinitions&#45;&#45;packageDefinitionsModule -->
<g id="edge12" class="edge">
<title>packageDefinitions&#45;&#45;packageDefinitionsModule</title>
<path fill="none" stroke="black" d="M380.1,-71.7C374.52,-60.85 367.36,-46.92 361.8,-36.1"/>
</g>
<!-- packageDefinitionsPipelines -->
<g id="node11" class="node">
<title>packageDefinitionsPipelines</title>
<polygon fill="#bbdefb" stroke="black" points="452,-36 449,-40 428,-40 425,-36 398,-36 398,0 452,0 452,-36"/>
<text xml:space="preserve" text-anchor="middle" x="425" y="-13.75" font-family="Calibri" font-size="10.00">pipelines</text>
</g>
<!-- packageDefinitions&#45;&#45;packageDefinitionsPipelines -->
<g id="edge13" class="edge">
<title>packageDefinitions&#45;&#45;packageDefinitionsPipelines</title>
<path fill="none" stroke="black" d="M397.9,-71.7C403.48,-60.85 410.64,-46.92 416.2,-36.1"/>
</g>
<!-- userDefinitions -->
<g id="node15" class="node">
<title>userDefinitions</title>
<polygon fill="#bbdefb" stroke="black" points="638.38,-108 635.38,-112 614.38,-112 611.38,-108 579.62,-108 579.62,-72 638.38,-72 638.38,-108"/>
<text xml:space="preserve" text-anchor="middle" x="609" y="-85.75" font-family="Calibri" font-size="10.00">definitions</text>
</g>
<!-- user&#45;&#45;userDefinitions -->
<g id="edge14" class="edge">
<title>user&#45;&#45;userDefinitions</title>
<path fill="none" stroke="black" d="M553.29,-143.7C564.68,-132.93 579.27,-119.12 590.66,-108.35"/>
</g>
<!-- userDefinitionsModule -->
<g id="node16" class="node">
<title>userDefinitionsModule</title>
<polygon fill="#bbdefb" stroke="black" points="600,-36 597,-40 576,-40 573,-36 546,-36 546,0 600,0 600,-36"/>
<text xml:space="preserve" text-anchor="middle" x="573" y="-13.75" font-family="Calibri" font-size="10.00">module</text>
</g>
<!-- userDefinitions&#45;&#45;userDefinitionsModule -->
<g id="edge15" class="edge">
<title>userDefinitions&#45;&#45;userDefinitionsModule</title>
<path fill="none" stroke="black" d="M600.1,-71.7C594.52,-60.85 587.36,-46.92 581.8,-36.1"/>
</g>
<!-- userDefinitionsPipelines -->
<g id="node17" class="node">
<title>userDefinitionsPipelines</title>
<polygon fill="#bbdefb" stroke="black" points="672,-36 669,-40 648,-40 645,-36 618,-36 618,0 672,0 672,-36"/>
<text xml:space="preserve" text-anchor="middle" x="645" y="-13.75" font-family="Calibri" font-size="10.00">pipelines</text>
</g>
<!-- userDefinitions&#45;&#45;userDefinitionsPipelines -->
<g id="edge16" class="edge">
<title>userDefinitions&#45;&#45;userDefinitionsPipelines</title>
<path fill="none" stroke="black" d="M617.9,-71.7C623.48,-60.85 630.64,-46.92 636.2,-36.1"/>
</g>
</g>
</svg>
