<?xml version="1.0" encoding="UTF-8" standalone="no"?>
<!DOCTYPE svg PUBLIC "-//W3C//DTD SVG 1.1//EN"
 "http://www.w3.org/Graphics/SVG/1.1/DTD/svg11.dtd">
<!-- Generated by graphviz version 13.0.1 (20250615.1724)
 -->
<!-- Title: PipelineLifecycle Pages: 1 -->
<svg width="246pt" height="419pt"
 viewBox="0.00 0.00 246.00 419.00" xmlns="http://www.w3.org/2000/svg" xmlns:xlink="http://www.w3.org/1999/xlink">
<g id="graph0" class="graph" transform="scale(1 1) rotate(0) translate(4 414.5)">
<title>PipelineLifecycle</title>
<polygon fill="white" stroke="none" points="-4,4 -4,-414.5 242.38,-414.5 242.38,4 -4,4"/>
<!-- Input -->
<g id="node1" class="node">
<title>Input</title>
<path fill="#e3f2fd" stroke="#90caf9" d="M182.88,-410.5C182.88,-410.5 105.38,-410.5 105.38,-410.5 99.38,-410.5 93.38,-404.5 93.38,-398.5 93.38,-398.5 93.38,-386.5 93.38,-386.5 93.38,-380.5 99.38,-374.5 105.38,-374.5 105.38,-374.5 182.88,-374.5 182.88,-374.5 188.88,-374.5 194.88,-380.5 194.88,-386.5 194.88,-386.5 194.88,-398.5 194.88,-398.5 194.88,-404.5 188.88,-410.5 182.88,-410.5"/>
<text xml:space="preserve" text-anchor="middle" x="144.12" y="-387.68" font-family="Calibri" font-size="11.00">Data Input (Device)</text>
</g>
<!-- PreProcessing -->
<g id="node2" class="node">
<title>PreProcessing</title>
<path fill="#e3f2fd" stroke="#90caf9" d="M189.25,-337.5C189.25,-337.5 99,-337.5 99,-337.5 93,-337.5 87,-331.5 87,-325.5 87,-325.5 87,-313.5 87,-313.5 87,-307.5 93,-301.5 99,-301.5 99,-301.5 189.25,-301.5 189.25,-301.5 195.25,-301.5 201.25,-307.5 201.25,-313.5 201.25,-313.5 201.25,-325.5 201.25,-325.5 201.25,-331.5 195.25,-337.5 189.25,-337.5"/>
<text xml:space="preserve" text-anchor="middle" x="144.12" y="-320.3" font-family="Calibri" font-size="11.00">Pre&#45;Processing</text>
<text xml:space="preserve" text-anchor="middle" x="144.12" y="-309.05" font-family="Calibri" font-size="11.00">(e.g., decrypt, dissect)</text>
</g>
<!-- Input&#45;&gt;PreProcessing -->
<g id="edge1" class="edge">
<title>Input&#45;&gt;PreProcessing</title>
<path fill="none" stroke="#64b5f6" d="M144.12,-374.31C144.12,-366.73 144.12,-357.6 144.12,-349.04"/>
<polygon fill="#64b5f6" stroke="#64b5f6" points="147.63,-349.04 144.13,-339.04 140.63,-349.04 147.63,-349.04"/>
</g>
<!-- CoreProcessors -->
<g id="node3" class="node">
<title>CoreProcessors</title>
<path fill="#e3f2fd" stroke="#90caf9" d="M191.12,-264.5C191.12,-264.5 97.12,-264.5 97.12,-264.5 91.12,-264.5 85.12,-258.5 85.12,-252.5 85.12,-252.5 85.12,-240.5 85.12,-240.5 85.12,-234.5 91.12,-228.5 97.12,-228.5 97.12,-228.5 191.12,-228.5 191.12,-228.5 197.12,-228.5 203.12,-234.5 203.12,-240.5 203.12,-240.5 203.12,-252.5 203.12,-252.5 203.12,-258.5 197.12,-264.5 191.12,-264.5"/>
<text xml:space="preserve" text-anchor="middle" x="144.12" y="-247.3" font-family="Calibri" font-size="11.00">Core Processing</text>
<text xml:space="preserve" text-anchor="middle" x="144.12" y="-236.05" font-family="Calibri" font-size="11.00">(enrich, convert, route)</text>
</g>
<!-- PreProcessing&#45;&gt;CoreProcessors -->
<g id="edge2" class="edge">
<title>PreProcessing&#45;&gt;CoreProcessors</title>
<path fill="none" stroke="#64b5f6" d="M144.12,-301.31C144.12,-293.73 144.12,-284.6 144.12,-276.04"/>
<polygon fill="#64b5f6" stroke="#64b5f6" points="147.63,-276.04 144.13,-266.04 140.63,-276.04 147.63,-276.04"/>
</g>
<!-- Conditional -->
<g id="node4" class="node">
<title>Conditional</title>
<path fill="#e3f2fd" stroke="#90caf9" d="M141.25,-191.5C141.25,-191.5 57,-191.5 57,-191.5 51,-191.5 45,-185.5 45,-179.5 45,-179.5 45,-167.5 45,-167.5 45,-161.5 51,-155.5 57,-155.5 57,-155.5 141.25,-155.5 141.25,-155.5 147.25,-155.5 153.25,-161.5 153.25,-167.5 153.25,-167.5 153.25,-179.5 153.25,-179.5 153.25,-185.5 147.25,-191.5 141.25,-191.5"/>
<text xml:space="preserve" text-anchor="middle" x="99.12" y="-168.68" font-family="Calibri" font-size="11.00">Conditionals / Filters</text>
</g>
<!-- CoreProcessors&#45;&gt;Conditional -->
<g id="edge3" class="edge">
<title>CoreProcessors&#45;&gt;Conditional</title>
<path fill="none" stroke="#64b5f6" d="M133.23,-228.31C128.04,-220.12 121.7,-210.12 115.91,-200.98"/>
<polygon fill="#64b5f6" stroke="#64b5f6" points="119.04,-199.38 110.73,-192.81 113.13,-203.13 119.04,-199.38"/>
</g>
<!-- Reroute -->
<g id="node5" class="node">
<title>Reroute</title>
<path fill="#e3f2fd" stroke="#90caf9" d="M226.38,-109C226.38,-109 151.88,-109 151.88,-109 145.88,-109 139.88,-103 139.88,-97 139.88,-97 139.88,-85 139.88,-85 139.88,-79 145.88,-73 151.88,-73 151.88,-73 226.38,-73 226.38,-73 232.38,-73 238.38,-79 238.38,-85 238.38,-85 238.38,-97 238.38,-97 238.38,-103 232.38,-109 226.38,-109"/>
<text xml:space="preserve" text-anchor="middle" x="189.12" y="-86.17" font-family="Calibri" font-size="11.00">Reroute Processor</text>
</g>
<!-- Conditional&#45;&gt;Reroute -->
<g id="edge6" class="edge">
<title>Conditional&#45;&gt;Reroute</title>
<path fill="none" stroke="#64b5f6" d="M109.1,-155.22C114.91,-146.12 122.81,-135.19 131.62,-127 135.9,-123.03 140.7,-119.27 145.65,-115.8"/>
<polygon fill="#64b5f6" stroke="#64b5f6" points="147.57,-118.73 154.01,-110.32 143.73,-112.88 147.57,-118.73"/>
<text xml:space="preserve" text-anchor="middle" x="153.38" y="-128" font-family="Calibri" font-size="10.00">if matched</text>
</g>
<!-- PostProcessing -->
<g id="node6" class="node">
<title>PostProcessing</title>
<path fill="#e3f2fd" stroke="#90caf9" d="M110.12,-109C110.12,-109 22.12,-109 22.12,-109 16.12,-109 10.13,-103 10.13,-97 10.13,-97 10.13,-85 10.13,-85 10.13,-79 16.13,-73 22.13,-73 22.13,-73 110.12,-73 110.12,-73 116.12,-73 122.12,-79 122.12,-85 122.12,-85 122.12,-97 122.12,-97 122.12,-103 116.12,-109 110.12,-109"/>
<text xml:space="preserve" text-anchor="middle" x="66.12" y="-91.8" font-family="Calibri" font-size="11.00">Post&#45;Processing</text>
<text xml:space="preserve" text-anchor="middle" x="66.12" y="-80.55" font-family="Calibri" font-size="11.00">(e.g., mask, compact)</text>
</g>
<!-- Conditional&#45;&gt;PostProcessing -->
<g id="edge4" class="edge">
<title>Conditional&#45;&gt;PostProcessing</title>
<path fill="none" stroke="#64b5f6" d="M91.96,-155.03C87.77,-144.8 82.37,-131.64 77.6,-119.99"/>
<polygon fill="#64b5f6" stroke="#64b5f6" points="80.88,-118.76 73.85,-110.83 74.4,-121.41 80.88,-118.76"/>
</g>
<!-- Reroute&#45;&gt;CoreProcessors -->
<g id="edge7" class="edge">
<title>Reroute&#45;&gt;CoreProcessors</title>
<path fill="none" stroke="#64b5f6" d="M184.74,-109.34C179.63,-129.26 170.77,-162.89 162.12,-191.5 159.57,-199.95 156.61,-209.09 153.83,-217.4"/>
<polygon fill="#64b5f6" stroke="#64b5f6" points="150.59,-216.04 150.7,-226.64 157.22,-218.29 150.59,-216.04"/>
<text xml:space="preserve" text-anchor="middle" x="193.89" y="-169.25" font-family="Calibri" font-size="10.00">if matched</text>
</g>
<!-- Target -->
<g id="node7" class="node">
<title>Target</title>
<path fill="#e3f2fd" stroke="#90caf9" d="M120.25,-36C120.25,-36 12,-36 12,-36 6,-36 0,-30 0,-24 0,-24 0,-12 0,-12 0,-6 6,0 12,0 12,0 120.25,0 120.25,0 126.25,0 132.25,-6 132.25,-12 132.25,-12 132.25,-24 132.25,-24 132.25,-30 126.25,-36 120.25,-36"/>
<text xml:space="preserve" text-anchor="middle" x="66.12" y="-13.18" font-family="Calibri" font-size="11.00">Target (Blob, Sentinel, etc)</text>
</g>
<!-- PostProcessing&#45;&gt;Target -->
<g id="edge5" class="edge">
<title>PostProcessing&#45;&gt;Target</title>
<path fill="none" stroke="#64b5f6" d="M66.12,-72.81C66.12,-65.23 66.12,-56.1 66.12,-47.54"/>
<polygon fill="#64b5f6" stroke="#64b5f6" points="69.63,-47.54 66.13,-37.54 62.63,-47.54 69.63,-47.54"/>
</g>
</g>
</svg>
