<?xml version="1.0" encoding="UTF-8" standalone="no"?>
<!DOCTYPE svg PUBLIC "-//W3C//DTD SVG 1.1//EN"
 "http://www.w3.org/Graphics/SVG/1.1/DTD/svg11.dtd">
<!-- Generated by graphviz version 13.0.1 (20250615.1724)
 -->
<!-- Title: ProcessorChain Pages: 1 -->
<svg width="422pt" height="44pt"
 viewBox="0.00 0.00 422.00 44.00" xmlns="http://www.w3.org/2000/svg" xmlns:xlink="http://www.w3.org/1999/xlink">
<g id="graph0" class="graph" transform="scale(1 1) rotate(0) translate(4 40)">
<title>ProcessorChain</title>
<g id="a_graph0"><a xlink:title="Processor Chain">
<polygon fill="white" stroke="none" points="-4,4 -4,-40 418,-40 418,4 -4,4"/>
</a>
</g>
<!-- D1 -->
<g id="node1" class="node">
<title>D1</title>
<path fill="#e8e8e8" stroke="#80cc80" d="M42,-36C42,-36 12,-36 12,-36 6,-36 0,-30 0,-24 0,-24 0,-12 0,-12 0,-6 6,0 12,0 12,0 42,0 42,0 48,0 54,-6 54,-12 54,-12 54,-24 54,-24 54,-30 48,-36 42,-36"/>
<text xml:space="preserve" text-anchor="middle" x="27" y="-13.18" font-family="Calibri" font-size="11.00">Data</text>
</g>
<!-- P1 -->
<g id="node2" class="node">
<title>P1</title>
<path fill="#e8e8e8" stroke="#80cc80" d="M132,-36C132,-36 102,-36 102,-36 96,-36 90,-30 90,-24 90,-24 90,-12 90,-12 90,-6 96,0 102,0 102,0 132,0 132,0 138,0 144,-6 144,-12 144,-12 144,-24 144,-24 144,-30 138,-36 132,-36"/>
<text xml:space="preserve" text-anchor="middle" x="117" y="-13.18" font-family="Calibri" font-size="11.00">grok</text>
</g>
<!-- D1&#45;&gt;P1 -->
<g id="edge1" class="edge">
<title>D1&#45;&gt;P1</title>
<path fill="none" stroke="#667788" d="M54.4,-18C61.89,-18 70.18,-18 78.2,-18"/>
<polygon fill="#667788" stroke="#667788" points="78.1,-21.5 88.1,-18 78.1,-14.5 78.1,-21.5"/>
</g>
<!-- P2 -->
<g id="node3" class="node">
<title>P2</title>
<path fill="#e8e8e8" stroke="#80cc80" d="M222,-36C222,-36 192,-36 192,-36 186,-36 180,-30 180,-24 180,-24 180,-12 180,-12 180,-6 186,0 192,0 192,0 222,0 222,0 228,0 234,-6 234,-12 234,-12 234,-24 234,-24 234,-30 228,-36 222,-36"/>
<text xml:space="preserve" text-anchor="middle" x="207" y="-13.18" font-family="Calibri" font-size="11.00">enrich</text>
</g>
<!-- P1&#45;&gt;P2 -->
<g id="edge2" class="edge">
<title>P1&#45;&gt;P2</title>
<path fill="none" stroke="#667788" d="M144.4,-18C151.89,-18 160.18,-18 168.2,-18"/>
<polygon fill="#667788" stroke="#667788" points="168.1,-21.5 178.1,-18 168.1,-14.5 168.1,-21.5"/>
</g>
<!-- P3 -->
<g id="node4" class="node">
<title>P3</title>
<path fill="#e8e8e8" stroke="#80cc80" d="M312,-36C312,-36 282,-36 282,-36 276,-36 270,-30 270,-24 270,-24 270,-12 270,-12 270,-6 276,0 282,0 282,0 312,0 312,0 318,0 324,-6 324,-12 324,-12 324,-24 324,-24 324,-30 318,-36 312,-36"/>
<text xml:space="preserve" text-anchor="middle" x="297" y="-13.18" font-family="Calibri" font-size="11.00">mask</text>
</g>
<!-- P2&#45;&gt;P3 -->
<g id="edge3" class="edge">
<title>P2&#45;&gt;P3</title>
<path fill="none" stroke="#667788" d="M234.4,-18C241.89,-18 250.18,-18 258.2,-18"/>
<polygon fill="#667788" stroke="#667788" points="258.1,-21.5 268.1,-18 258.1,-14.5 258.1,-21.5"/>
</g>
<!-- P4 -->
<g id="node5" class="node">
<title>P4</title>
<path fill="#e8e8e8" stroke="#80cc80" d="M402,-36C402,-36 372,-36 372,-36 366,-36 360,-30 360,-24 360,-24 360,-12 360,-12 360,-6 366,0 372,0 372,0 402,0 402,0 408,0 414,-6 414,-12 414,-12 414,-24 414,-24 414,-30 408,-36 402,-36"/>
<text xml:space="preserve" text-anchor="middle" x="387" y="-13.18" font-family="Calibri" font-size="11.00">serialize</text>
</g>
<!-- P3&#45;&gt;P4 -->
<g id="edge4" class="edge">
<title>P3&#45;&gt;P4</title>
<path fill="none" stroke="#667788" d="M324.4,-18C331.89,-18 340.18,-18 348.2,-18"/>
<polygon fill="#667788" stroke="#667788" points="348.1,-21.5 358.1,-18 348.1,-14.5 348.1,-21.5"/>
</g>
</g>
</svg>
