<?xml version="1.0" encoding="UTF-8" standalone="no"?>
<!DOCTYPE svg PUBLIC "-//W3C//DTD SVG 1.1//EN"
 "http://www.w3.org/Graphics/SVG/1.1/DTD/svg11.dtd">
<!-- Generated by graphviz version 13.0.1 (20250615.1724)
 -->
<!-- Title: TargetFlow Pages: 1 -->
<svg width="622pt" height="44pt"
 viewBox="0.00 0.00 622.00 44.00" xmlns="http://www.w3.org/2000/svg" xmlns:xlink="http://www.w3.org/1999/xlink">
<g id="graph0" class="graph" transform="scale(1 1) rotate(0) translate(4 40)">
<title>TargetFlow</title>
<g id="a_graph0"><a xlink:title="Processor Chain">
<polygon fill="white" stroke="none" points="-4,4 -4,-40 618,-40 618,4 -4,4"/>
</a>
</g>
<!-- Pipeline -->
<g id="node1" class="node">
<title>Pipeline</title>
<path fill="#f3e5f5" stroke="#ce93d8" d="M74.5,-36C74.5,-36 12,-36 12,-36 6,-36 0,-30 0,-24 0,-24 0,-12 0,-12 0,-6 6,0 12,0 12,0 74.5,0 74.5,0 80.5,0 86.5,-6 86.5,-12 86.5,-12 86.5,-24 86.5,-24 86.5,-30 80.5,-36 74.5,-36"/>
<text xml:space="preserve" text-anchor="middle" x="43.25" y="-13.18" font-family="Calibri" font-size="11.00">Pipeline Output</text>
</g>
<!-- Buffer -->
<g id="node2" class="node">
<title>Buffer</title>
<path fill="#f3e5f5" stroke="#ce93d8" d="M200.75,-36C200.75,-36 134.5,-36 134.5,-36 128.5,-36 122.5,-30 122.5,-24 122.5,-24 122.5,-12 122.5,-12 122.5,-6 128.5,0 134.5,0 134.5,0 200.75,0 200.75,0 206.75,0 212.75,-6 212.75,-12 212.75,-12 212.75,-24 212.75,-24 212.75,-30 206.75,-36 200.75,-36"/>
<text xml:space="preserve" text-anchor="middle" x="167.62" y="-18.8" font-family="Calibri" font-size="11.00">Write&#45;Ahead Log</text>
<text xml:space="preserve" text-anchor="middle" x="167.62" y="-7.55" font-family="Calibri" font-size="11.00">(Buffering)</text>
</g>
<!-- Pipeline&#45;&gt;Buffer -->
<g id="edge1" class="edge">
<title>Pipeline&#45;&gt;Buffer</title>
<path fill="none" stroke="#ba68c8" d="M86.71,-18C94.5,-18 102.73,-18 110.84,-18"/>
<polygon fill="#ba68c8" stroke="#ba68c8" points="110.65,-21.5 120.65,-18 110.65,-14.5 110.65,-21.5"/>
</g>
<!-- FieldMapping -->
<g id="node3" class="node">
<title>FieldMapping</title>
<path fill="#f3e5f5" stroke="#ce93d8" d="M316.5,-36C316.5,-36 260.75,-36 260.75,-36 254.75,-36 248.75,-30 248.75,-24 248.75,-24 248.75,-12 248.75,-12 248.75,-6 254.75,0 260.75,0 260.75,0 316.5,0 316.5,0 322.5,0 328.5,-6 328.5,-12 328.5,-12 328.5,-24 328.5,-24 328.5,-30 322.5,-36 316.5,-36"/>
<text xml:space="preserve" text-anchor="middle" x="288.62" y="-13.18" font-family="Calibri" font-size="11.00">Field Mapping</text>
</g>
<!-- Buffer&#45;&gt;FieldMapping -->
<g id="edge2" class="edge">
<title>Buffer&#45;&gt;FieldMapping</title>
<path fill="none" stroke="#ba68c8" d="M212.94,-18C220.75,-18 228.94,-18 236.91,-18"/>
<polygon fill="#ba68c8" stroke="#ba68c8" points="236.86,-21.5 246.86,-18 236.86,-14.5 236.86,-21.5"/>
</g>
<!-- IndexStrategy -->
<g id="node4" class="node">
<title>IndexStrategy</title>
<path fill="#f3e5f5" stroke="#ce93d8" d="M460,-36C460,-36 376.5,-36 376.5,-36 370.5,-36 364.5,-30 364.5,-24 364.5,-24 364.5,-12 364.5,-12 364.5,-6 370.5,0 376.5,0 376.5,0 460,0 460,0 466,0 472,-6 472,-12 472,-12 472,-24 472,-24 472,-30 466,-36 460,-36"/>
<text xml:space="preserve" text-anchor="middle" x="418.25" y="-18.8" font-family="Calibri" font-size="11.00">Index Strategy</text>
<text xml:space="preserve" text-anchor="middle" x="418.25" y="-7.55" font-family="Calibri" font-size="11.00">(e.g., daily, dynamic)</text>
</g>
<!-- FieldMapping&#45;&gt;IndexStrategy -->
<g id="edge3" class="edge">
<title>FieldMapping&#45;&gt;IndexStrategy</title>
<path fill="none" stroke="#ba68c8" d="M328.96,-18C336.52,-18 344.63,-18 352.76,-18"/>
<polygon fill="#ba68c8" stroke="#ba68c8" points="352.68,-21.5 362.68,-18 352.68,-14.5 352.68,-21.5"/>
</g>
<!-- Elasticsearch -->
<g id="node5" class="node">
<title>Elasticsearch</title>
<path fill="#f3e5f5" stroke="#ce93d8" d="M602,-36C602,-36 520,-36 520,-36 514,-36 508,-30 508,-24 508,-24 508,-12 508,-12 508,-6 514,0 520,0 520,0 602,0 602,0 608,0 614,-6 614,-12 614,-12 614,-24 614,-24 614,-30 608,-36 602,-36"/>
<text xml:space="preserve" text-anchor="middle" x="561" y="-13.18" font-family="Calibri" font-size="11.00">Target: Elasticsearch</text>
</g>
<!-- IndexStrategy&#45;&gt;Elasticsearch -->
<g id="edge4" class="edge">
<title>IndexStrategy&#45;&gt;Elasticsearch</title>
<path fill="none" stroke="#ba68c8" d="M472.46,-18C480.2,-18 488.24,-18 496.16,-18"/>
<polygon fill="#ba68c8" stroke="#ba68c8" points="496.13,-21.5 506.13,-18 496.13,-14.5 496.13,-21.5"/>
</g>
</g>
</svg>
