<?xml version="1.0" encoding="UTF-8" standalone="no"?>
<!DOCTYPE svg PUBLIC "-//W3C//DTD SVG 1.1//EN"
 "http://www.w3.org/Graphics/SVG/1.1/DTD/svg11.dtd">
<!-- Generated by graphviz version 13.0.1 (20250615.1724)
 -->
<!-- Title: devicesFlow Pages: 1 -->
<svg width="274pt" height="308pt"
 viewBox="0.00 0.00 274.00 308.00" xmlns="http://www.w3.org/2000/svg" xmlns:xlink="http://www.w3.org/1999/xlink">
<g id="graph0" class="graph" transform="scale(1 1) rotate(0) translate(4 304)">
<title>devicesFlow</title>
<polygon fill="white" stroke="none" points="-4,4 -4,-304 270,-304 270,4 -4,4"/>
<g id="clust1" class="cluster">
<title>cluster_generators</title>
<path fill="#e3f2fd" stroke="black" d="M20,-8C20,-8 66,-8 66,-8 72,-8 78,-14 78,-20 78,-20 78,-280 78,-280 78,-286 72,-292 66,-292 66,-292 20,-292 20,-292 14,-292 8,-286 8,-280 8,-280 8,-20 8,-20 8,-14 14,-8 20,-8"/>
<text xml:space="preserve" text-anchor="middle" x="43" y="-280.4" font-family="Calibri" font-size="8.00">Generators</text>
</g>
<g id="clust2" class="cluster">
<title>cluster_devices</title>
<path fill="#e8f5e9" stroke="black" d="M110,-62C110,-62 156,-62 156,-62 162,-62 168,-68 168,-74 168,-74 168,-280 168,-280 168,-286 162,-292 156,-292 156,-292 110,-292 110,-292 104,-292 98,-286 98,-280 98,-280 98,-74 98,-74 98,-68 104,-62 110,-62"/>
<text xml:space="preserve" text-anchor="middle" x="133" y="-280.4" font-family="Calibri" font-size="8.00">Devices</text>
</g>
<g id="clust3" class="cluster">
<title>cluster_pipeline</title>
<path fill="#fff3e0" stroke="black" d="M200,-143C200,-143 246,-143 246,-143 252,-143 258,-149 258,-155 258,-155 258,-199 258,-199 258,-205 252,-211 246,-211 246,-211 200,-211 200,-211 194,-211 188,-205 188,-199 188,-199 188,-155 188,-155 188,-149 194,-143 200,-143"/>
<text xml:space="preserve" text-anchor="middle" x="223" y="-199.4" font-family="Calibri" font-size="8.00">Pipeline</text>
</g>
<!-- firewall -->
<g id="node1" class="node">
<title>firewall</title>
<polygon fill="#bbdefb" stroke="black" points="70,-52 16,-52 16,-16 70,-16 70,-52"/>
<text xml:space="preserve" text-anchor="middle" x="43" y="-30.52" font-family="Calibri" font-size="8.00">Firewall</text>
</g>
<!-- syslog -->
<g id="node6" class="node">
<title>syslog</title>
<polygon fill="#c8e6c9" stroke="black" points="160,-106 106,-106 106,-70 160,-70 160,-106"/>
<text xml:space="preserve" text-anchor="middle" x="133" y="-84.53" font-family="Calibri" font-size="8.00">Syslog</text>
</g>
<!-- firewall&#45;&gt;syslog -->
<g id="edge1" class="edge">
<title>firewall&#45;&gt;syslog</title>
<path fill="none" stroke="black" d="M70.4,-50.2C78.41,-55.11 87.34,-60.6 95.87,-65.83"/>
<polygon fill="black" stroke="black" points="93.97,-68.77 104.33,-71.02 97.63,-62.8 93.97,-68.77"/>
</g>
<!-- server -->
<g id="node2" class="node">
<title>server</title>
<polygon fill="#bbdefb" stroke="black" points="70,-106 16,-106 16,-70 70,-70 70,-106"/>
<text xml:space="preserve" text-anchor="middle" x="43" y="-84.53" font-family="Calibri" font-size="8.00">Server</text>
</g>
<!-- http -->
<g id="node7" class="node">
<title>http</title>
<polygon fill="#c8e6c9" stroke="black" points="160,-160 106,-160 106,-124 160,-124 160,-160"/>
<text xml:space="preserve" text-anchor="middle" x="133" y="-138.53" font-family="Calibri" font-size="8.00">HTTP</text>
</g>
<!-- server&#45;&gt;http -->
<g id="edge2" class="edge">
<title>server&#45;&gt;http</title>
<path fill="none" stroke="black" d="M70.4,-104.2C78.41,-109.11 87.34,-114.6 95.87,-119.83"/>
<polygon fill="black" stroke="black" points="93.97,-122.77 104.33,-125.02 97.63,-116.8 93.97,-122.77"/>
</g>
<!-- cloudapp -->
<g id="node3" class="node">
<title>cloudapp</title>
<polygon fill="#bbdefb" stroke="black" points="70,-160 16,-160 16,-124 70,-124 70,-160"/>
<text xml:space="preserve" text-anchor="middle" x="43" y="-138.53" font-family="Calibri" font-size="8.00">Cloud App</text>
</g>
<!-- cloudapp&#45;&gt;http -->
<g id="edge3" class="edge">
<title>cloudapp&#45;&gt;http</title>
<path fill="none" stroke="black" d="M70.4,-142C77.89,-142 86.18,-142 94.2,-142"/>
<polygon fill="black" stroke="black" points="94.1,-145.5 104.1,-142 94.1,-138.5 94.1,-145.5"/>
</g>
<!-- database -->
<g id="node4" class="node">
<title>database</title>
<path fill="#bbdefb" stroke="black" d="M70,-210.73C70,-212.53 57.9,-214 43,-214 28.1,-214 16,-212.53 16,-210.73 16,-210.73 16,-181.27 16,-181.27 16,-179.47 28.1,-178 43,-178 57.9,-178 70,-179.47 70,-181.27 70,-181.27 70,-210.73 70,-210.73"/>
<path fill="none" stroke="black" d="M70,-210.73C70,-208.92 57.9,-207.45 43,-207.45 28.1,-207.45 16,-208.92 16,-210.73"/>
<text xml:space="preserve" text-anchor="middle" x="43" y="-192.53" font-family="Calibri" font-size="8.00">Database</text>
</g>
<!-- kafka -->
<g id="node8" class="node">
<title>kafka</title>
<polygon fill="#c8e6c9" stroke="black" points="160,-214 106,-214 106,-178 160,-178 160,-214"/>
<text xml:space="preserve" text-anchor="middle" x="133" y="-192.53" font-family="Calibri" font-size="8.00">Kafka</text>
</g>
<!-- database&#45;&gt;kafka -->
<g id="edge4" class="edge">
<title>database&#45;&gt;kafka</title>
<path fill="none" stroke="black" d="M70.4,-196C77.89,-196 86.18,-196 94.2,-196"/>
<polygon fill="black" stroke="black" points="94.1,-199.5 104.1,-196 94.1,-192.5 94.1,-199.5"/>
</g>
<!-- switch -->
<g id="node5" class="node">
<title>switch</title>
<polygon fill="#bbdefb" stroke="black" points="70,-268 16,-268 16,-232 70,-232 70,-268"/>
<text xml:space="preserve" text-anchor="middle" x="43" y="-246.53" font-family="Calibri" font-size="8.00">Switch</text>
</g>
<!-- snmp -->
<g id="node9" class="node">
<title>snmp</title>
<polygon fill="#c8e6c9" stroke="black" points="160,-268 106,-268 106,-232 160,-232 160,-268"/>
<text xml:space="preserve" text-anchor="middle" x="133" y="-246.53" font-family="Calibri" font-size="8.00">SNMP</text>
</g>
<!-- switch&#45;&gt;snmp -->
<g id="edge5" class="edge">
<title>switch&#45;&gt;snmp</title>
<path fill="none" stroke="black" d="M70.4,-250C77.89,-250 86.18,-250 94.2,-250"/>
<polygon fill="black" stroke="black" points="94.1,-253.5 104.1,-250 94.1,-246.5 94.1,-253.5"/>
</g>
<!-- process -->
<g id="node10" class="node">
<title>process</title>
<polygon fill="#ffe0b2" stroke="black" points="250,-187 196,-187 196,-151 250,-151 250,-187"/>
<text xml:space="preserve" text-anchor="middle" x="223" y="-165.53" font-family="Calibri" font-size="8.00">Process</text>
</g>
<!-- syslog&#45;&gt;process -->
<g id="edge6" class="edge">
<title>syslog&#45;&gt;process</title>
<path fill="none" stroke="black" d="M157.7,-106.25C161.21,-109.11 164.74,-112.09 168,-115 177.85,-123.78 188.2,-133.9 197.18,-142.98"/>
<polygon fill="black" stroke="black" points="194.43,-145.18 203.92,-149.89 199.44,-140.29 194.43,-145.18"/>
</g>
<!-- http&#45;&gt;process -->
<g id="edge7" class="edge">
<title>http&#45;&gt;process</title>
<path fill="none" stroke="black" d="M160.4,-150.1C168.06,-152.45 176.57,-155.06 184.76,-157.57"/>
<polygon fill="black" stroke="black" points="183.58,-160.87 194.17,-160.46 185.64,-154.18 183.58,-160.87"/>
</g>
<!-- kafka&#45;&gt;process -->
<g id="edge8" class="edge">
<title>kafka&#45;&gt;process</title>
<path fill="none" stroke="black" d="M160.4,-187.9C168.06,-185.55 176.57,-182.94 184.76,-180.43"/>
<polygon fill="black" stroke="black" points="185.64,-183.82 194.17,-177.54 183.58,-177.13 185.64,-183.82"/>
</g>
<!-- snmp&#45;&gt;process -->
<g id="edge9" class="edge">
<title>snmp&#45;&gt;process</title>
<path fill="none" stroke="black" d="M157.7,-231.75C161.21,-228.89 164.74,-225.91 168,-223 177.85,-214.22 188.2,-204.1 197.18,-195.02"/>
<polygon fill="black" stroke="black" points="199.44,-197.71 203.92,-188.11 194.43,-192.82 199.44,-197.71"/>
</g>
</g>
</svg>
