<?xml version="1.0" encoding="UTF-8" standalone="no"?>
<!DOCTYPE svg PUBLIC "-//W3C//DTD SVG 1.1//EN"
 "http://www.w3.org/Graphics/SVG/1.1/DTD/svg11.dtd">
<!-- Generated by graphviz version 13.0.1 (20250615.1724)
 -->
<!-- Title: devicesFlow Pages: 1 -->
<svg width="274pt" height="254pt"
 viewBox="0.00 0.00 274.00 254.00" xmlns="http://www.w3.org/2000/svg" xmlns:xlink="http://www.w3.org/1999/xlink">
<g id="graph0" class="graph" transform="scale(1 1) rotate(0) translate(4 250)">
<title>devicesFlow</title>
<polygon fill="white" stroke="none" points="-4,4 -4,-250 270,-250 270,4 -4,4"/>
<g id="clust1" class="cluster">
<title>cluster_generators</title>
<path fill="#e3f2fd" stroke="black" d="M20,-8C20,-8 66,-8 66,-8 72,-8 78,-14 78,-20 78,-20 78,-226 78,-226 78,-232 72,-238 66,-238 66,-238 20,-238 20,-238 14,-238 8,-232 8,-226 8,-226 8,-20 8,-20 8,-14 14,-8 20,-8"/>
<text xml:space="preserve" text-anchor="middle" x="43" y="-226.4" font-family="Calibri" font-size="8.00">Generators</text>
</g>
<g id="clust2" class="cluster">
<title>cluster_devices</title>
<path fill="#e8f5e9" stroke="black" d="M110,-8C110,-8 156,-8 156,-8 162,-8 168,-14 168,-20 168,-20 168,-226 168,-226 168,-232 162,-238 156,-238 156,-238 110,-238 110,-238 104,-238 98,-232 98,-226 98,-226 98,-20 98,-20 98,-14 104,-8 110,-8"/>
<text xml:space="preserve" text-anchor="middle" x="133" y="-226.4" font-family="Calibri" font-size="8.00">Devices</text>
</g>
<g id="clust3" class="cluster">
<title>cluster_pipeline</title>
<path fill="#fff3e0" stroke="black" d="M200,-89C200,-89 246,-89 246,-89 252,-89 258,-95 258,-101 258,-101 258,-145 258,-145 258,-151 252,-157 246,-157 246,-157 200,-157 200,-157 194,-157 188,-151 188,-145 188,-145 188,-101 188,-101 188,-95 194,-89 200,-89"/>
<text xml:space="preserve" text-anchor="middle" x="223" y="-145.4" font-family="Calibri" font-size="8.00">Pipeline</text>
</g>
<!-- firewall -->
<g id="node1" class="node">
<title>firewall</title>
<polygon fill="#bbdefb" stroke="black" points="70,-52 16,-52 16,-16 70,-16 70,-52"/>
<text xml:space="preserve" text-anchor="middle" x="43" y="-30.52" font-family="Calibri" font-size="8.00">Firewall</text>
</g>
<!-- syslog -->
<g id="node5" class="node">
<title>syslog</title>
<polygon fill="#c8e6c9" stroke="black" points="160,-52 106,-52 106,-16 160,-16 160,-52"/>
<text xml:space="preserve" text-anchor="middle" x="133" y="-30.52" font-family="Calibri" font-size="8.00">Syslog</text>
</g>
<!-- firewall&#45;&gt;syslog -->
<g id="edge1" class="edge">
<title>firewall&#45;&gt;syslog</title>
<path fill="none" stroke="black" d="M70.4,-34C77.89,-34 86.18,-34 94.2,-34"/>
<polygon fill="black" stroke="black" points="94.1,-37.5 104.1,-34 94.1,-30.5 94.1,-37.5"/>
</g>
<!-- server -->
<g id="node2" class="node">
<title>server</title>
<polygon fill="#bbdefb" stroke="black" points="70,-106 16,-106 16,-70 70,-70 70,-106"/>
<text xml:space="preserve" text-anchor="middle" x="43" y="-84.53" font-family="Calibri" font-size="8.00">Server</text>
</g>
<!-- http -->
<g id="node6" class="node">
<title>http</title>
<polygon fill="#c8e6c9" stroke="black" points="160,-106 106,-106 106,-70 160,-70 160,-106"/>
<text xml:space="preserve" text-anchor="middle" x="133" y="-84.53" font-family="Calibri" font-size="8.00">HTTP</text>
</g>
<!-- server&#45;&gt;http -->
<g id="edge2" class="edge">
<title>server&#45;&gt;http</title>
<path fill="none" stroke="black" d="M70.4,-88C77.89,-88 86.18,-88 94.2,-88"/>
<polygon fill="black" stroke="black" points="94.1,-91.5 104.1,-88 94.1,-84.5 94.1,-91.5"/>
</g>
<!-- cloudapp -->
<g id="node3" class="node">
<title>cloudapp</title>
<polygon fill="#bbdefb" stroke="black" points="70,-160 16,-160 16,-124 70,-124 70,-160"/>
<text xml:space="preserve" text-anchor="middle" x="43" y="-138.53" font-family="Calibri" font-size="8.00">Cloud App</text>
</g>
<!-- cloudapp&#45;&gt;http -->
<g id="edge3" class="edge">
<title>cloudapp&#45;&gt;http</title>
<path fill="none" stroke="black" d="M70.4,-125.8C78.41,-120.89 87.34,-115.4 95.87,-110.17"/>
<polygon fill="black" stroke="black" points="97.63,-113.2 104.33,-104.98 93.97,-107.23 97.63,-113.2"/>
</g>
<!-- database -->
<g id="node4" class="node">
<title>database</title>
<path fill="#bbdefb" stroke="black" d="M70,-210.73C70,-212.53 57.9,-214 43,-214 28.1,-214 16,-212.53 16,-210.73 16,-210.73 16,-181.27 16,-181.27 16,-179.47 28.1,-178 43,-178 57.9,-178 70,-179.47 70,-181.27 70,-181.27 70,-210.73 70,-210.73"/>
<path fill="none" stroke="black" d="M70,-210.73C70,-208.92 57.9,-207.45 43,-207.45 28.1,-207.45 16,-208.92 16,-210.73"/>
<text xml:space="preserve" text-anchor="middle" x="43" y="-192.53" font-family="Calibri" font-size="8.00">Database</text>
</g>
<!-- kafka -->
<g id="node7" class="node">
<title>kafka</title>
<polygon fill="#c8e6c9" stroke="black" points="160,-160 106,-160 106,-124 160,-124 160,-160"/>
<text xml:space="preserve" text-anchor="middle" x="133" y="-138.53" font-family="Calibri" font-size="8.00">Kafka</text>
</g>
<!-- database&#45;&gt;kafka -->
<g id="edge4" class="edge">
<title>database&#45;&gt;kafka</title>
<path fill="none" stroke="black" d="M70.4,-179.8C78.41,-174.89 87.34,-169.4 95.87,-164.17"/>
<polygon fill="black" stroke="black" points="97.63,-167.2 104.33,-158.98 93.97,-161.23 97.63,-167.2"/>
</g>
<!-- process -->
<g id="node9" class="node">
<title>process</title>
<polygon fill="#ffe0b2" stroke="black" points="250,-133 196,-133 196,-97 250,-97 250,-133"/>
<text xml:space="preserve" text-anchor="middle" x="223" y="-111.53" font-family="Calibri" font-size="8.00">Process</text>
</g>
<!-- syslog&#45;&gt;process -->
<g id="edge5" class="edge">
<title>syslog&#45;&gt;process</title>
<path fill="none" stroke="black" d="M157.7,-52.25C161.21,-55.11 164.74,-58.09 168,-61 177.85,-69.78 188.2,-79.9 197.18,-88.98"/>
<polygon fill="black" stroke="black" points="194.43,-91.18 203.92,-95.89 199.44,-86.29 194.43,-91.18"/>
</g>
<!-- http&#45;&gt;process -->
<g id="edge6" class="edge">
<title>http&#45;&gt;process</title>
<path fill="none" stroke="black" d="M160.4,-96.1C168.06,-98.45 176.57,-101.06 184.76,-103.57"/>
<polygon fill="black" stroke="black" points="183.58,-106.87 194.17,-106.46 185.64,-100.18 183.58,-106.87"/>
</g>
<!-- kafka&#45;&gt;process -->
<g id="edge7" class="edge">
<title>kafka&#45;&gt;process</title>
<path fill="none" stroke="black" d="M160.4,-133.9C168.06,-131.55 176.57,-128.94 184.76,-126.43"/>
<polygon fill="black" stroke="black" points="185.64,-129.82 194.17,-123.54 183.58,-123.13 185.64,-129.82"/>
</g>
<!-- snmp -->
<g id="node8" class="node">
<title>snmp</title>
<polygon fill="#c8e6c9" stroke="black" points="160,-214 106,-214 106,-178 160,-178 160,-214"/>
<text xml:space="preserve" text-anchor="middle" x="133" y="-192.53" font-family="Calibri" font-size="8.00">SNMP</text>
</g>
<!-- snmp&#45;&gt;process -->
<g id="edge8" class="edge">
<title>snmp&#45;&gt;process</title>
<path fill="none" stroke="black" d="M157.7,-177.75C161.21,-174.89 164.74,-171.91 168,-169 177.85,-160.22 188.2,-150.1 197.18,-141.02"/>
<polygon fill="black" stroke="black" points="199.44,-143.71 203.92,-134.11 194.43,-138.82 199.44,-143.71"/>
</g>
</g>
</svg>
