<?xml version="1.0" encoding="UTF-8" standalone="no"?>
<!DOCTYPE svg PUBLIC "-//W3C//DTD SVG 1.1//EN"
 "http://www.w3.org/Graphics/SVG/1.1/DTD/svg11.dtd">
<!-- Generated by graphviz version 13.0.1 (20250615.1724)
 -->
<!-- Title: dirTree Pages: 1 -->
<svg width="605pt" height="260pt"
 viewBox="0.00 0.00 605.00 260.00" xmlns="http://www.w3.org/2000/svg" xmlns:xlink="http://www.w3.org/1999/xlink">
<g id="graph0" class="graph" transform="scale(1 1) rotate(0) translate(4 256)">
<title>dirTree</title>
<g id="a_graph0"><a xlink:title="Directory Tree">
<polygon fill="white" stroke="none" points="-4,4 -4,-256 601,-256 601,4 -4,4"/>
</a>
</g>
<!-- root -->
<g id="node1" class="node">
<title>root</title>
<polygon fill="#bbdefb" stroke="black" points="492.5,-252 489.5,-256 468.5,-256 465.5,-252 431.5,-252 431.5,-216 492.5,-216 492.5,-252"/>
<text xml:space="preserve" text-anchor="middle" x="462" y="-229.75" font-family="Calibri" font-size="10.00">&lt;vm_root&gt;</text>
</g>
<!-- director -->
<g id="node2" class="node">
<title>director</title>
<polygon fill="#bbdefb" stroke="black" points="417,-180 414,-184 393,-184 390,-180 363,-180 363,-144 417,-144 417,-180"/>
<text xml:space="preserve" text-anchor="middle" x="390" y="-157.75" font-family="Calibri" font-size="10.00">Director</text>
</g>
<!-- root&#45;&#45;director -->
<g id="edge1" class="edge">
<title>root&#45;&#45;director</title>
<path fill="none" stroke="black" d="M444.2,-215.7C433.13,-204.93 418.93,-191.12 407.84,-180.35"/>
</g>
<!-- agent -->
<g id="node3" class="node">
<title>agent</title>
<polygon fill="#bbdefb" stroke="black" points="525,-180 522,-184 501,-184 498,-180 471,-180 471,-144 525,-144 525,-180"/>
<text xml:space="preserve" text-anchor="middle" x="498" y="-157.75" font-family="Calibri" font-size="10.00">Agent</text>
</g>
<!-- root&#45;&#45;agent -->
<g id="edge2" class="edge">
<title>root&#45;&#45;agent</title>
<path fill="none" stroke="black" d="M470.9,-215.7C476.48,-204.85 483.64,-190.92 489.2,-180.1"/>
</g>
<!-- directorConfig -->
<g id="node4" class="node">
<title>directorConfig</title>
<polygon fill="#bbdefb" stroke="black" points="162,-108 159,-112 138,-112 135,-108 108,-108 108,-72 162,-72 162,-108"/>
<text xml:space="preserve" text-anchor="middle" x="135" y="-85.75" font-family="Calibri" font-size="10.00">config</text>
</g>
<!-- director&#45;&#45;directorConfig -->
<g id="edge3" class="edge">
<title>director&#45;&#45;directorConfig</title>
<path fill="none" stroke="black" d="M362.71,-153.51C313.76,-140.07 211.57,-112.02 162.48,-98.54"/>
</g>
<!-- directorPackage -->
<g id="node8" class="node">
<title>directorPackage</title>
<polygon fill="#bbdefb" stroke="black" points="381,-108 378,-112 357,-112 354,-108 327,-108 327,-72 381,-72 381,-108"/>
<text xml:space="preserve" text-anchor="middle" x="354" y="-85.75" font-family="Calibri" font-size="10.00">package</text>
</g>
<!-- director&#45;&#45;directorPackage -->
<g id="edge4" class="edge">
<title>director&#45;&#45;directorPackage</title>
<path fill="none" stroke="black" d="M381.1,-143.7C375.52,-132.85 368.36,-118.92 362.8,-108.1"/>
</g>
<!-- directorStorage -->
<g id="node14" class="node">
<title>directorStorage</title>
<polygon fill="#bbdefb" stroke="black" points="453,-108 450,-112 429,-112 426,-108 399,-108 399,-72 453,-72 453,-108"/>
<text xml:space="preserve" text-anchor="middle" x="426" y="-85.75" font-family="Calibri" font-size="10.00">storage</text>
</g>
<!-- director&#45;&#45;directorStorage -->
<g id="edge5" class="edge">
<title>director&#45;&#45;directorStorage</title>
<path fill="none" stroke="black" d="M398.9,-143.7C404.48,-132.85 411.64,-118.92 417.2,-108.1"/>
</g>
<!-- agentConfig -->
<g id="node15" class="node">
<title>agentConfig</title>
<polygon fill="#bbdefb" stroke="black" points="525,-108 522,-112 501,-112 498,-108 471,-108 471,-72 525,-72 525,-108"/>
<text xml:space="preserve" text-anchor="middle" x="498" y="-85.75" font-family="Calibri" font-size="10.00">config</text>
</g>
<!-- agent&#45;&#45;agentConfig -->
<g id="edge14" class="edge">
<title>agent&#45;&#45;agentConfig</title>
<path fill="none" stroke="black" d="M498,-143.7C498,-132.85 498,-118.92 498,-108.1"/>
</g>
<!-- agentStorage -->
<g id="node16" class="node">
<title>agentStorage</title>
<polygon fill="#bbdefb" stroke="black" points="597,-108 594,-112 573,-112 570,-108 543,-108 543,-72 597,-72 597,-108"/>
<text xml:space="preserve" text-anchor="middle" x="570" y="-85.75" font-family="Calibri" font-size="10.00">storage</text>
</g>
<!-- agent&#45;&#45;agentStorage -->
<g id="edge15" class="edge">
<title>agent&#45;&#45;agentStorage</title>
<path fill="none" stroke="black" d="M515.8,-143.7C526.87,-132.93 541.07,-119.12 552.16,-108.35"/>
</g>
<!-- directorDevices -->
<g id="node5" class="node">
<title>directorDevices</title>
<polygon fill="#bbdefb" stroke="black" points="54,-36 51,-40 30,-40 27,-36 0,-36 0,0 54,0 54,-36"/>
<text xml:space="preserve" text-anchor="middle" x="27" y="-13.75" font-family="Calibri" font-size="10.00">devices</text>
</g>
<!-- directorConfig&#45;&#45;directorDevices -->
<g id="edge6" class="edge">
<title>directorConfig&#45;&#45;directorDevices</title>
<path fill="none" stroke="black" d="M108.03,-71.52C91.41,-60.74 70.19,-46.99 53.63,-36.26"/>
</g>
<!-- directorRoutes -->
<g id="node6" class="node">
<title>directorRoutes</title>
<polygon fill="#bbdefb" stroke="black" points="126,-36 123,-40 102,-40 99,-36 72,-36 72,0 126,0 126,-36"/>
<text xml:space="preserve" text-anchor="middle" x="99" y="-13.75" font-family="Calibri" font-size="10.00">routes</text>
</g>
<!-- directorConfig&#45;&#45;directorRoutes -->
<g id="edge7" class="edge">
<title>directorConfig&#45;&#45;directorRoutes</title>
<path fill="none" stroke="black" d="M126.1,-71.7C120.52,-60.85 113.36,-46.92 107.8,-36.1"/>
</g>
<!-- directorTargets -->
<g id="node7" class="node">
<title>directorTargets</title>
<polygon fill="#bbdefb" stroke="black" points="198,-36 195,-40 174,-40 171,-36 144,-36 144,0 198,0 198,-36"/>
<text xml:space="preserve" text-anchor="middle" x="171" y="-13.75" font-family="Calibri" font-size="10.00">targets</text>
</g>
<!-- directorConfig&#45;&#45;directorTargets -->
<g id="edge8" class="edge">
<title>directorConfig&#45;&#45;directorTargets</title>
<path fill="none" stroke="black" d="M143.9,-71.7C149.48,-60.85 156.64,-46.92 162.2,-36.1"/>
</g>
<!-- directorDatabase -->
<g id="node9" class="node">
<title>directorDatabase</title>
<polygon fill="#bbdefb" stroke="black" points="270,-36 267,-40 246,-40 243,-36 216,-36 216,0 270,0 270,-36"/>
<text xml:space="preserve" text-anchor="middle" x="243" y="-13.75" font-family="Calibri" font-size="10.00">database</text>
</g>
<!-- directorPackage&#45;&#45;directorDatabase -->
<g id="edge9" class="edge">
<title>directorPackage&#45;&#45;directorDatabase</title>
<path fill="none" stroke="black" d="M326.56,-71.7C309.36,-60.85 287.27,-46.92 270.12,-36.1"/>
</g>
<!-- directorDefinitions -->
<g id="node10" class="node">
<title>directorDefinitions</title>
<polygon fill="#bbdefb" stroke="black" points="346.38,-36 343.38,-40 322.38,-40 319.38,-36 287.62,-36 287.62,0 346.38,0 346.38,-36"/>
<text xml:space="preserve" text-anchor="middle" x="317" y="-13.75" font-family="Calibri" font-size="10.00">definitions</text>
</g>
<!-- directorPackage&#45;&#45;directorDefinitions -->
<g id="edge10" class="edge">
<title>directorPackage&#45;&#45;directorDefinitions</title>
<path fill="none" stroke="black" d="M344.85,-71.7C339.12,-60.85 331.76,-46.92 326.04,-36.1"/>
</g>
<!-- directorLookups -->
<g id="node11" class="node">
<title>directorLookups</title>
<polygon fill="#bbdefb" stroke="black" points="418,-36 415,-40 394,-40 391,-36 364,-36 364,0 418,0 418,-36"/>
<text xml:space="preserve" text-anchor="middle" x="391" y="-13.75" font-family="Calibri" font-size="10.00">lookups</text>
</g>
<!-- directorPackage&#45;&#45;directorLookups -->
<g id="edge11" class="edge">
<title>directorPackage&#45;&#45;directorLookups</title>
<path fill="none" stroke="black" d="M363.15,-71.7C368.88,-60.85 376.24,-46.92 381.96,-36.1"/>
</g>
<!-- directorMibs -->
<g id="node12" class="node">
<title>directorMibs</title>
<polygon fill="#bbdefb" stroke="black" points="490,-36 487,-40 466,-40 463,-36 436,-36 436,0 490,0 490,-36"/>
<text xml:space="preserve" text-anchor="middle" x="463" y="-13.75" font-family="Calibri" font-size="10.00">mibs</text>
</g>
<!-- directorPackage&#45;&#45;directorMibs -->
<g id="edge12" class="edge">
<title>directorPackage&#45;&#45;directorMibs</title>
<path fill="none" stroke="black" d="M381.22,-71.52C398,-60.74 419.41,-46.99 436.12,-36.26"/>
</g>
<!-- directorAgentBuilds -->
<g id="node13" class="node">
<title>directorAgentBuilds</title>
<polygon fill="#bbdefb" stroke="black" points="562,-36 559,-40 538,-40 535,-36 508,-36 508,0 562,0 562,-36"/>
<text xml:space="preserve" text-anchor="middle" x="535" y="-13.75" font-family="Calibri" font-size="10.00">agent</text>
</g>
<!-- directorPackage&#45;&#45;directorAgentBuilds -->
<g id="edge13" class="edge">
<title>directorPackage&#45;&#45;directorAgentBuilds</title>
<path fill="none" stroke="black" d="M381.36,-75.66C384.26,-74.37 387.18,-73.13 390,-72 437.38,-53.07 451.62,-54.93 499,-36 501.82,-34.87 504.74,-33.63 507.64,-32.34"/>
</g>
</g>
</svg>
