<?xml version="1.0" encoding="UTF-8" standalone="no"?>
<!DOCTYPE svg PUBLIC "-//W3C//DTD SVG 1.1//EN"
 "http://www.w3.org/Graphics/SVG/1.1/DTD/svg11.dtd">
<!-- Generated by graphviz version 13.0.1 (20250615.1724)
 -->
<!-- Title: pipelinesFlow Pages: 1 -->
<svg width="598pt" height="178pt"
 viewBox="0.00 0.00 598.00 178.00" xmlns="http://www.w3.org/2000/svg" xmlns:xlink="http://www.w3.org/1999/xlink">
<g id="graph0" class="graph" transform="scale(1 1) rotate(0) translate(4 174)">
<title>pipelinesFlow</title>
<polygon fill="white" stroke="none" points="-4,4 -4,-174 594.4,-174 594.4,4 -4,4"/>
<g id="clust1" class="cluster">
<title>cluster_pipeline</title>
<path fill="#f1f8e9" stroke="black" d="M39.2,-8C39.2,-8 551.2,-8 551.2,-8 557.2,-8 563.2,-14 563.2,-20 563.2,-20 563.2,-150 563.2,-150 563.2,-156 557.2,-162 551.2,-162 551.2,-162 39.2,-162 39.2,-162 33.2,-162 27.2,-156 27.2,-150 27.2,-150 27.2,-20 27.2,-20 27.2,-14 33.2,-8 39.2,-8"/>
<text xml:space="preserve" text-anchor="middle" x="295.2" y="-150.4" font-family="Calibri" font-size="8.00">Pipeline</text>
</g>
<g id="clust2" class="cluster">
<title>cluster_parse</title>
<path fill="#e3f2fd" stroke="black" d="M47.2,-16C47.2,-16 93.2,-16 93.2,-16 99.2,-16 105.2,-22 105.2,-28 105.2,-28 105.2,-126 105.2,-126 105.2,-132 99.2,-138 93.2,-138 93.2,-138 47.2,-138 47.2,-138 41.2,-138 35.2,-132 35.2,-126 35.2,-126 35.2,-28 35.2,-28 35.2,-22 41.2,-16 47.2,-16"/>
<text xml:space="preserve" text-anchor="middle" x="70.2" y="-127.35" font-family="Calibri" font-size="7.00">Parse</text>
</g>
<g id="clust3" class="cluster">
<title>cluster_transform</title>
<path fill="#e8f5e9" stroke="black" d="M137.2,-43C137.2,-43 273.2,-43 273.2,-43 279.2,-43 285.2,-49 285.2,-55 285.2,-55 285.2,-99 285.2,-99 285.2,-105 279.2,-111 273.2,-111 273.2,-111 137.2,-111 137.2,-111 131.2,-111 125.2,-105 125.2,-99 125.2,-99 125.2,-55 125.2,-55 125.2,-49 131.2,-43 137.2,-43"/>
<text xml:space="preserve" text-anchor="middle" x="205.2" y="-100.35" font-family="Calibri" font-size="7.00">Transform</text>
</g>
<g id="clust4" class="cluster">
<title>cluster_enrich</title>
<path fill="#f3e5f5" stroke="black" d="M317.2,-43C317.2,-43 453.2,-43 453.2,-43 459.2,-43 465.2,-49 465.2,-55 465.2,-55 465.2,-99 465.2,-99 465.2,-105 459.2,-111 453.2,-111 453.2,-111 317.2,-111 317.2,-111 311.2,-111 305.2,-105 305.2,-99 305.2,-99 305.2,-55 305.2,-55 305.2,-49 311.2,-43 317.2,-43"/>
<text xml:space="preserve" text-anchor="middle" x="385.2" y="-100.35" font-family="Calibri" font-size="7.00">Enrich</text>
</g>
<g id="clust5" class="cluster">
<title>cluster_filter</title>
<path fill="#fff8e1" stroke="black" d="M497.2,-16C497.2,-16 543.2,-16 543.2,-16 549.2,-16 555.2,-22 555.2,-28 555.2,-28 555.2,-126 555.2,-126 555.2,-132 549.2,-138 543.2,-138 543.2,-138 497.2,-138 497.2,-138 491.2,-138 485.2,-132 485.2,-126 485.2,-126 485.2,-28 485.2,-28 485.2,-22 491.2,-16 497.2,-16"/>
<text xml:space="preserve" text-anchor="middle" x="520.2" y="-127.35" font-family="Calibri" font-size="7.00">Filter</text>
</g>
<!-- event_in -->
<g id="node1" class="node">
<title>event_in</title>
<ellipse fill="#f0f0f0" stroke="black" cx="3.6" cy="-69" rx="3.6" ry="3.6"/>
</g>
<!-- json -->
<g id="node3" class="node">
<title>json</title>
<polygon fill="#bbdefb" stroke="black" points="97.2,-60 43.2,-60 43.2,-24 97.2,-24 97.2,-60"/>
<text xml:space="preserve" text-anchor="middle" x="70.2" y="-38.52" font-family="Calibri" font-size="8.00">JSON</text>
</g>
<!-- event_in&#45;&gt;json -->
<g id="edge1" class="edge">
<title>event_in&#45;&gt;json</title>
<path fill="none" stroke="black" d="M7.38,-67.84C12.01,-65.9 21.87,-61.78 32.37,-57.39"/>
<polygon fill="black" stroke="black" points="33.65,-60.65 41.53,-53.57 30.95,-54.19 33.65,-60.65"/>
</g>
<!-- cef -->
<g id="node4" class="node">
<title>cef</title>
<polygon fill="#90caf9" stroke="black" points="97.2,-114 43.2,-114 43.2,-78 97.2,-78 97.2,-114"/>
<text xml:space="preserve" text-anchor="middle" x="70.2" y="-92.53" font-family="Calibri" font-size="8.00">CEF</text>
</g>
<!-- event_in&#45;&gt;cef -->
<g id="edge2" class="edge">
<title>event_in&#45;&gt;cef</title>
<path fill="none" stroke="black" d="M7.38,-70.16C12.01,-72.1 21.87,-76.22 32.37,-80.61"/>
<polygon fill="black" stroke="black" points="30.95,-83.81 41.53,-84.43 33.65,-77.35 30.95,-83.81"/>
</g>
<!-- event_out -->
<g id="node2" class="node">
<title>event_out</title>
<ellipse fill="#f0f0f0" stroke="black" cx="586.8" cy="-69" rx="3.6" ry="3.6"/>
</g>
<!-- rename -->
<g id="node5" class="node">
<title>rename</title>
<polygon fill="#c8e6c9" stroke="black" points="187.2,-87 133.2,-87 133.2,-51 187.2,-51 187.2,-87"/>
<text xml:space="preserve" text-anchor="middle" x="160.2" y="-65.53" font-family="Calibri" font-size="8.00">Rename</text>
</g>
<!-- json&#45;&gt;rename -->
<g id="edge3" class="edge">
<title>json&#45;&gt;rename</title>
<path fill="none" stroke="black" d="M97.6,-50.1C105.26,-52.45 113.77,-55.06 121.96,-57.57"/>
<polygon fill="black" stroke="black" points="120.78,-60.87 131.37,-60.46 122.84,-54.18 120.78,-60.87"/>
</g>
<!-- cef&#45;&gt;rename -->
<g id="edge4" class="edge">
<title>cef&#45;&gt;rename</title>
<path fill="none" stroke="black" d="M97.6,-87.9C105.26,-85.55 113.77,-82.94 121.96,-80.43"/>
<polygon fill="black" stroke="black" points="122.84,-83.82 131.37,-77.54 120.78,-77.13 122.84,-83.82"/>
</g>
<!-- set -->
<g id="node6" class="node">
<title>set</title>
<polygon fill="#a5d6a7" stroke="black" points="277.2,-87 223.2,-87 223.2,-51 277.2,-51 277.2,-87"/>
<text xml:space="preserve" text-anchor="middle" x="250.2" y="-65.53" font-family="Calibri" font-size="8.00">Set</text>
</g>
<!-- rename&#45;&gt;set -->
<g id="edge5" class="edge">
<title>rename&#45;&gt;set</title>
<path fill="none" stroke="black" d="M187.6,-69C195.09,-69 203.38,-69 211.4,-69"/>
<polygon fill="black" stroke="black" points="211.3,-72.5 221.3,-69 211.3,-65.5 211.3,-72.5"/>
</g>
<!-- geoip -->
<g id="node7" class="node">
<title>geoip</title>
<polygon fill="#e1bee7" stroke="black" points="367.2,-87 313.2,-87 313.2,-51 367.2,-51 367.2,-87"/>
<text xml:space="preserve" text-anchor="middle" x="340.2" y="-65.53" font-family="Calibri" font-size="8.00">GeoIP</text>
</g>
<!-- set&#45;&gt;geoip -->
<g id="edge6" class="edge">
<title>set&#45;&gt;geoip</title>
<path fill="none" stroke="black" d="M277.6,-69C285.09,-69 293.38,-69 301.4,-69"/>
<polygon fill="black" stroke="black" points="301.3,-72.5 311.3,-69 301.3,-65.5 301.3,-72.5"/>
</g>
<!-- lookup -->
<g id="node8" class="node">
<title>lookup</title>
<polygon fill="#ce93d8" stroke="black" points="457.2,-87 403.2,-87 403.2,-51 457.2,-51 457.2,-87"/>
<text xml:space="preserve" text-anchor="middle" x="430.2" y="-65.53" font-family="Calibri" font-size="8.00">Lookup</text>
</g>
<!-- geoip&#45;&gt;lookup -->
<g id="edge7" class="edge">
<title>geoip&#45;&gt;lookup</title>
<path fill="none" stroke="black" d="M367.6,-69C375.09,-69 383.38,-69 391.4,-69"/>
<polygon fill="black" stroke="black" points="391.3,-72.5 401.3,-69 391.3,-65.5 391.3,-72.5"/>
</g>
<!-- drop -->
<g id="node9" class="node">
<title>drop</title>
<polygon fill="#ffe0b2" stroke="black" points="547.2,-60 493.2,-60 493.2,-24 547.2,-24 547.2,-60"/>
<text xml:space="preserve" text-anchor="middle" x="520.2" y="-38.52" font-family="Calibri" font-size="8.00">Drop</text>
</g>
<!-- lookup&#45;&gt;drop -->
<g id="edge8" class="edge">
<title>lookup&#45;&gt;drop</title>
<path fill="none" stroke="black" d="M457.6,-60.9C465.26,-58.55 473.77,-55.94 481.96,-53.43"/>
<polygon fill="black" stroke="black" points="482.84,-56.82 491.37,-50.54 480.78,-50.13 482.84,-56.82"/>
</g>
<!-- sample -->
<g id="node10" class="node">
<title>sample</title>
<polygon fill="#ffcc80" stroke="black" points="547.2,-114 493.2,-114 493.2,-78 547.2,-78 547.2,-114"/>
<text xml:space="preserve" text-anchor="middle" x="520.2" y="-92.53" font-family="Calibri" font-size="8.00">Sample</text>
</g>
<!-- lookup&#45;&gt;sample -->
<g id="edge9" class="edge">
<title>lookup&#45;&gt;sample</title>
<path fill="none" stroke="black" d="M457.6,-77.1C465.26,-79.45 473.77,-82.06 481.96,-84.57"/>
<polygon fill="black" stroke="black" points="480.78,-87.87 491.37,-87.46 482.84,-81.18 480.78,-87.87"/>
</g>
<!-- drop&#45;&gt;event_out -->
<g id="edge10" class="edge">
<title>drop&#45;&gt;event_out</title>
<path fill="none" stroke="black" d="M547.48,-52.98C556.1,-56.59 565.32,-60.44 572.55,-63.46"/>
<polygon fill="black" stroke="black" points="571.13,-66.66 581.71,-67.29 573.83,-60.2 571.13,-66.66"/>
</g>
<!-- sample&#45;&gt;event_out -->
<g id="edge11" class="edge">
<title>sample&#45;&gt;event_out</title>
<path fill="none" stroke="black" d="M547.48,-85.02C556.1,-81.41 565.32,-77.56 572.55,-74.54"/>
<polygon fill="black" stroke="black" points="573.83,-77.8 581.71,-70.71 571.13,-71.34 573.83,-77.8"/>
</g>
</g>
</svg>
