<?xml version="1.0" encoding="UTF-8" standalone="no"?>
<!DOCTYPE svg PUBLIC "-//W3C//DTD SVG 1.1//EN"
 "http://www.w3.org/Graphics/SVG/1.1/DTD/svg11.dtd">
<!-- Generated by graphviz version 13.0.1 (20250615.1724)
 -->
<!-- Title: pipelinesFlow Pages: 1 -->
<svg width="724pt" height="178pt"
 viewBox="0.00 0.00 724.00 178.00" xmlns="http://www.w3.org/2000/svg" xmlns:xlink="http://www.w3.org/1999/xlink">
<g id="graph0" class="graph" transform="scale(1 1) rotate(0) translate(4 174)">
<title>pipelinesFlow</title>
<polygon fill="white" stroke="none" points="-4,4 -4,-174 720,-174 720,4 -4,4"/>
<g id="clust1" class="cluster">
<title>cluster_input</title>
<path fill="#e3f2fd" stroke="black" d="M20,-43C20,-43 66,-43 66,-43 72,-43 78,-49 78,-55 78,-55 78,-99 78,-99 78,-105 72,-111 66,-111 66,-111 20,-111 20,-111 14,-111 8,-105 8,-99 8,-99 8,-55 8,-55 8,-49 14,-43 20,-43"/>
<text xml:space="preserve" text-anchor="middle" x="43" y="-99.4" font-family="Calibri" font-size="8.00">Input</text>
</g>
<g id="clust2" class="cluster">
<title>cluster_pipeline</title>
<path fill="#e8f5e9" stroke="black" d="M102,-8C102,-8 614,-8 614,-8 620,-8 626,-14 626,-20 626,-20 626,-150 626,-150 626,-156 620,-162 614,-162 614,-162 102,-162 102,-162 96,-162 90,-156 90,-150 90,-150 90,-20 90,-20 90,-14 96,-8 102,-8"/>
<text xml:space="preserve" text-anchor="middle" x="358" y="-150.4" font-family="Calibri" font-size="8.00">Pipeline</text>
</g>
<g id="clust3" class="cluster">
<title>cluster_parse</title>
<path fill="#dcedc8" stroke="black" d="M110,-16C110,-16 156,-16 156,-16 162,-16 168,-22 168,-28 168,-28 168,-126 168,-126 168,-132 162,-138 156,-138 156,-138 110,-138 110,-138 104,-138 98,-132 98,-126 98,-126 98,-28 98,-28 98,-22 104,-16 110,-16"/>
<text xml:space="preserve" text-anchor="middle" x="133" y="-127.35" font-family="Calibri" font-size="7.00">Parse</text>
</g>
<g id="clust4" class="cluster">
<title>cluster_transform</title>
<path fill="#dcedc8" stroke="black" d="M200,-43C200,-43 336,-43 336,-43 342,-43 348,-49 348,-55 348,-55 348,-99 348,-99 348,-105 342,-111 336,-111 336,-111 200,-111 200,-111 194,-111 188,-105 188,-99 188,-99 188,-55 188,-55 188,-49 194,-43 200,-43"/>
<text xml:space="preserve" text-anchor="middle" x="268" y="-100.35" font-family="Calibri" font-size="7.00">Transform</text>
</g>
<g id="clust5" class="cluster">
<title>cluster_enrich</title>
<path fill="#dcedc8" stroke="black" d="M380,-43C380,-43 516,-43 516,-43 522,-43 528,-49 528,-55 528,-55 528,-99 528,-99 528,-105 522,-111 516,-111 516,-111 380,-111 380,-111 374,-111 368,-105 368,-99 368,-99 368,-55 368,-55 368,-49 374,-43 380,-43"/>
<text xml:space="preserve" text-anchor="middle" x="448" y="-100.35" font-family="Calibri" font-size="7.00">Enrich</text>
</g>
<g id="clust6" class="cluster">
<title>cluster_filter</title>
<path fill="#dcedc8" stroke="black" d="M560,-16C560,-16 606,-16 606,-16 612,-16 618,-22 618,-28 618,-28 618,-126 618,-126 618,-132 612,-138 606,-138 606,-138 560,-138 560,-138 554,-138 548,-132 548,-126 548,-126 548,-28 548,-28 548,-22 554,-16 560,-16"/>
<text xml:space="preserve" text-anchor="middle" x="583" y="-127.35" font-family="Calibri" font-size="7.00">Filter</text>
</g>
<g id="clust7" class="cluster">
<title>cluster_output</title>
<path fill="#fff3e0" stroke="black" d="M650,-43C650,-43 696,-43 696,-43 702,-43 708,-49 708,-55 708,-55 708,-99 708,-99 708,-105 702,-111 696,-111 696,-111 650,-111 650,-111 644,-111 638,-105 638,-99 638,-99 638,-55 638,-55 638,-49 644,-43 650,-43"/>
<text xml:space="preserve" text-anchor="middle" x="673" y="-99.4" font-family="Calibri" font-size="8.00">Output</text>
</g>
<!-- event_in -->
<g id="node1" class="node">
<title>event_in</title>
<polygon fill="#bbdefb" stroke="black" points="70,-87 16,-87 16,-51 70,-51 70,-87"/>
<text xml:space="preserve" text-anchor="middle" x="43" y="-65.53" font-family="Calibri" font-size="8.00">Event</text>
</g>
<!-- json -->
<g id="node2" class="node">
<title>json</title>
<polygon fill="#c8e6c9" stroke="black" points="160,-60 106,-60 106,-24 160,-24 160,-60"/>
<text xml:space="preserve" text-anchor="middle" x="133" y="-38.52" font-family="Calibri" font-size="8.00">JSON</text>
</g>
<!-- event_in&#45;&gt;json -->
<g id="edge1" class="edge">
<title>event_in&#45;&gt;json</title>
<path fill="none" stroke="black" d="M70.4,-60.9C78.06,-58.55 86.57,-55.94 94.76,-53.43"/>
<polygon fill="black" stroke="black" points="95.64,-56.82 104.17,-50.54 93.58,-50.13 95.64,-56.82"/>
</g>
<!-- cef -->
<g id="node3" class="node">
<title>cef</title>
<polygon fill="#c8e6c9" stroke="black" points="160,-114 106,-114 106,-78 160,-78 160,-114"/>
<text xml:space="preserve" text-anchor="middle" x="133" y="-92.53" font-family="Calibri" font-size="8.00">CEF</text>
</g>
<!-- event_in&#45;&gt;cef -->
<g id="edge2" class="edge">
<title>event_in&#45;&gt;cef</title>
<path fill="none" stroke="black" d="M70.4,-77.1C78.06,-79.45 86.57,-82.06 94.76,-84.57"/>
<polygon fill="black" stroke="black" points="93.58,-87.87 104.17,-87.46 95.64,-81.18 93.58,-87.87"/>
</g>
<!-- rename -->
<g id="node4" class="node">
<title>rename</title>
<polygon fill="#c8e6c9" stroke="black" points="250,-87 196,-87 196,-51 250,-51 250,-87"/>
<text xml:space="preserve" text-anchor="middle" x="223" y="-65.53" font-family="Calibri" font-size="8.00">Rename</text>
</g>
<!-- json&#45;&gt;rename -->
<g id="edge3" class="edge">
<title>json&#45;&gt;rename</title>
<path fill="none" stroke="black" d="M160.4,-50.1C168.06,-52.45 176.57,-55.06 184.76,-57.57"/>
<polygon fill="black" stroke="black" points="183.58,-60.87 194.17,-60.46 185.64,-54.18 183.58,-60.87"/>
</g>
<!-- cef&#45;&gt;rename -->
<g id="edge4" class="edge">
<title>cef&#45;&gt;rename</title>
<path fill="none" stroke="black" d="M160.4,-87.9C168.06,-85.55 176.57,-82.94 184.76,-80.43"/>
<polygon fill="black" stroke="black" points="185.64,-83.82 194.17,-77.54 183.58,-77.13 185.64,-83.82"/>
</g>
<!-- set -->
<g id="node5" class="node">
<title>set</title>
<polygon fill="#c8e6c9" stroke="black" points="340,-87 286,-87 286,-51 340,-51 340,-87"/>
<text xml:space="preserve" text-anchor="middle" x="313" y="-65.53" font-family="Calibri" font-size="8.00">Set</text>
</g>
<!-- rename&#45;&gt;set -->
<g id="edge5" class="edge">
<title>rename&#45;&gt;set</title>
<path fill="none" stroke="black" d="M250.4,-69C257.89,-69 266.18,-69 274.2,-69"/>
<polygon fill="black" stroke="black" points="274.1,-72.5 284.1,-69 274.1,-65.5 274.1,-72.5"/>
</g>
<!-- geoip -->
<g id="node6" class="node">
<title>geoip</title>
<polygon fill="#c8e6c9" stroke="black" points="430,-87 376,-87 376,-51 430,-51 430,-87"/>
<text xml:space="preserve" text-anchor="middle" x="403" y="-65.53" font-family="Calibri" font-size="8.00">GeoIP</text>
</g>
<!-- set&#45;&gt;geoip -->
<g id="edge6" class="edge">
<title>set&#45;&gt;geoip</title>
<path fill="none" stroke="black" d="M340.4,-69C347.89,-69 356.18,-69 364.2,-69"/>
<polygon fill="black" stroke="black" points="364.1,-72.5 374.1,-69 364.1,-65.5 364.1,-72.5"/>
</g>
<!-- lookup -->
<g id="node7" class="node">
<title>lookup</title>
<polygon fill="#c8e6c9" stroke="black" points="520,-87 466,-87 466,-51 520,-51 520,-87"/>
<text xml:space="preserve" text-anchor="middle" x="493" y="-65.53" font-family="Calibri" font-size="8.00">Lookup</text>
</g>
<!-- geoip&#45;&gt;lookup -->
<g id="edge7" class="edge">
<title>geoip&#45;&gt;lookup</title>
<path fill="none" stroke="black" d="M430.4,-69C437.89,-69 446.18,-69 454.2,-69"/>
<polygon fill="black" stroke="black" points="454.1,-72.5 464.1,-69 454.1,-65.5 454.1,-72.5"/>
</g>
<!-- drop -->
<g id="node8" class="node">
<title>drop</title>
<polygon fill="#c8e6c9" stroke="black" points="610,-60 556,-60 556,-24 610,-24 610,-60"/>
<text xml:space="preserve" text-anchor="middle" x="583" y="-38.52" font-family="Calibri" font-size="8.00">Drop</text>
</g>
<!-- lookup&#45;&gt;drop -->
<g id="edge8" class="edge">
<title>lookup&#45;&gt;drop</title>
<path fill="none" stroke="black" d="M520.4,-60.9C528.06,-58.55 536.57,-55.94 544.76,-53.43"/>
<polygon fill="black" stroke="black" points="545.64,-56.82 554.17,-50.54 543.58,-50.13 545.64,-56.82"/>
</g>
<!-- sample -->
<g id="node9" class="node">
<title>sample</title>
<polygon fill="#c8e6c9" stroke="black" points="610,-114 556,-114 556,-78 610,-78 610,-114"/>
<text xml:space="preserve" text-anchor="middle" x="583" y="-92.53" font-family="Calibri" font-size="8.00">Sample</text>
</g>
<!-- lookup&#45;&gt;sample -->
<g id="edge9" class="edge">
<title>lookup&#45;&gt;sample</title>
<path fill="none" stroke="black" d="M520.4,-77.1C528.06,-79.45 536.57,-82.06 544.76,-84.57"/>
<polygon fill="black" stroke="black" points="543.58,-87.87 554.17,-87.46 545.64,-81.18 543.58,-87.87"/>
</g>
<!-- event_out -->
<g id="node10" class="node">
<title>event_out</title>
<polygon fill="#ffe0b2" stroke="black" points="700,-87 646,-87 646,-51 700,-51 700,-87"/>
<text xml:space="preserve" text-anchor="middle" x="673" y="-65.53" font-family="Calibri" font-size="8.00">Event</text>
</g>
<!-- drop&#45;&gt;event_out -->
<g id="edge10" class="edge">
<title>drop&#45;&gt;event_out</title>
<path fill="none" stroke="black" d="M610.4,-50.1C618.06,-52.45 626.57,-55.06 634.76,-57.57"/>
<polygon fill="black" stroke="black" points="633.58,-60.87 644.17,-60.46 635.64,-54.18 633.58,-60.87"/>
</g>
<!-- sample&#45;&gt;event_out -->
<g id="edge11" class="edge">
<title>sample&#45;&gt;event_out</title>
<path fill="none" stroke="black" d="M610.4,-87.9C618.06,-85.55 626.57,-82.94 634.76,-80.43"/>
<polygon fill="black" stroke="black" points="635.64,-83.82 644.17,-77.54 633.58,-77.13 635.64,-83.82"/>
</g>
</g>
</svg>
