<?xml version="1.0" encoding="UTF-8" standalone="no"?>
<!DOCTYPE svg PUBLIC "-//W3C//DTD SVG 1.1//EN"
 "http://www.w3.org/Graphics/SVG/1.1/DTD/svg11.dtd">
<!-- Generated by graphviz version 13.0.1 (20250615.1724)
 -->
<!-- Title: RoutingBetweenPipelines Pages: 1 -->
<svg width="351pt" height="200pt"
 viewBox="0.00 0.00 351.00 200.00" xmlns="http://www.w3.org/2000/svg" xmlns:xlink="http://www.w3.org/1999/xlink">
<g id="graph0" class="graph" transform="scale(1 1) rotate(0) translate(4 195.5)">
<title>RoutingBetweenPipelines</title>
<polygon fill="white" stroke="none" points="-4,4 -4,-195.5 346.88,-195.5 346.88,4 -4,4"/>
<!-- Entry -->
<g id="node1" class="node">
<title>Entry</title>
<path fill="#fff8e1" stroke="#ffcc80" d="M214.62,-191.5C214.62,-191.5 154.38,-191.5 154.38,-191.5 148.38,-191.5 142.38,-185.5 142.38,-179.5 142.38,-179.5 142.38,-167.5 142.38,-167.5 142.38,-161.5 148.38,-155.5 154.38,-155.5 154.38,-155.5 214.62,-155.5 214.62,-155.5 220.62,-155.5 226.62,-161.5 226.62,-167.5 226.62,-167.5 226.62,-179.5 226.62,-179.5 226.62,-185.5 220.62,-191.5 214.62,-191.5"/>
<text xml:space="preserve" text-anchor="middle" x="184.5" y="-168.68" font-family="Calibri" font-size="11.00">Pipeline: Ingest</text>
</g>
<!-- Reroute -->
<g id="node2" class="node">
<title>Reroute</title>
<path fill="#fff8e1" stroke="#ffcc80" d="M221.75,-118.5C221.75,-118.5 147.25,-118.5 147.25,-118.5 141.25,-118.5 135.25,-112.5 135.25,-106.5 135.25,-106.5 135.25,-94.5 135.25,-94.5 135.25,-88.5 141.25,-82.5 147.25,-82.5 147.25,-82.5 221.75,-82.5 221.75,-82.5 227.75,-82.5 233.75,-88.5 233.75,-94.5 233.75,-94.5 233.75,-106.5 233.75,-106.5 233.75,-112.5 227.75,-118.5 221.75,-118.5"/>
<text xml:space="preserve" text-anchor="middle" x="184.5" y="-95.67" font-family="Calibri" font-size="11.00">Reroute Processor</text>
</g>
<!-- Entry&#45;&gt;Reroute -->
<g id="edge1" class="edge">
<title>Entry&#45;&gt;Reroute</title>
<path fill="none" stroke="#ffa726" d="M184.5,-155.31C184.5,-147.73 184.5,-138.6 184.5,-130.04"/>
<polygon fill="#ffa726" stroke="#ffa726" points="188,-130.04 184.5,-120.04 181,-130.04 188,-130.04"/>
</g>
<!-- Security -->
<g id="node3" class="node">
<title>Security</title>
<path fill="#fff8e1" stroke="#ffcc80" d="M103,-36C103,-36 12,-36 12,-36 6,-36 0,-30 0,-24 0,-24 0,-12 0,-12 0,-6 6,0 12,0 12,0 103,0 103,0 109,0 115,-6 115,-12 115,-12 115,-24 115,-24 115,-30 109,-36 103,-36"/>
<text xml:space="preserve" text-anchor="middle" x="57.5" y="-13.18" font-family="Calibri" font-size="11.00">Pipeline: Security Logs</text>
</g>
<!-- Reroute&#45;&gt;Security -->
<g id="edge2" class="edge">
<title>Reroute&#45;&gt;Security</title>
<path fill="none" stroke="#ffa726" d="M134.83,-86.46C120.16,-81.14 104.65,-73.96 92,-64.5 85.12,-59.36 78.95,-52.49 73.79,-45.64"/>
<polygon fill="#ffa726" stroke="#ffa726" points="76.87,-43.94 68.28,-37.74 71.13,-47.94 76.87,-43.94"/>
<text xml:space="preserve" text-anchor="middle" x="136.25" y="-55" font-family="Calibri" font-size="10.00">if dataset == &#39;security&#39;</text>
</g>
<!-- Audit -->
<g id="node4" class="node">
<title>Audit</title>
<path fill="#fff8e1" stroke="#ffcc80" d="M224,-36C224,-36 145,-36 145,-36 139,-36 133,-30 133,-24 133,-24 133,-12 133,-12 133,-6 139,0 145,0 145,0 224,0 224,0 230,0 236,-6 236,-12 236,-12 236,-24 236,-24 236,-30 230,-36 224,-36"/>
<text xml:space="preserve" text-anchor="middle" x="184.5" y="-13.18" font-family="Calibri" font-size="11.00">Pipeline: Audit Logs</text>
</g>
<!-- Reroute&#45;&gt;Audit -->
<g id="edge3" class="edge">
<title>Reroute&#45;&gt;Audit</title>
<path fill="none" stroke="#ffa726" d="M184.5,-82.03C184.5,-72.01 184.5,-59.18 184.5,-47.71"/>
<polygon fill="#ffa726" stroke="#ffa726" points="188,-47.95 184.5,-37.95 181,-47.95 188,-47.95"/>
<text xml:space="preserve" text-anchor="middle" x="222.75" y="-55" font-family="Calibri" font-size="10.00">if dataset == &#39;audit&#39;</text>
</g>
<!-- Default -->
<g id="node5" class="node">
<title>Default</title>
<path fill="#fff8e1" stroke="#ffcc80" d="M330.88,-36C330.88,-36 266.12,-36 266.12,-36 260.12,-36 254.12,-30 254.12,-24 254.12,-24 254.12,-12 254.12,-12 254.12,-6 260.12,0 266.12,0 266.12,0 330.88,0 330.88,0 336.88,0 342.88,-6 342.88,-12 342.88,-12 342.88,-24 342.88,-24 342.88,-30 336.88,-36 330.88,-36"/>
<text xml:space="preserve" text-anchor="middle" x="298.5" y="-13.18" font-family="Calibri" font-size="11.00">Pipeline: Default</text>
</g>
<!-- Reroute&#45;&gt;Default -->
<g id="edge4" class="edge">
<title>Reroute&#45;&gt;Default</title>
<path fill="none" stroke="#ffa726" d="M234,-83.11C245.01,-78.14 256.18,-71.97 265.5,-64.5 272.1,-59.21 278.01,-52.3 282.94,-45.45"/>
<polygon fill="#ffa726" stroke="#ffa726" points="285.55,-47.85 288.19,-37.59 279.73,-43.96 285.55,-47.85"/>
<text xml:space="preserve" text-anchor="middle" x="283.65" y="-55" font-family="Calibri" font-size="10.00">else</text>
</g>
</g>
</svg>
