<?xml version="1.0" encoding="UTF-8" standalone="no"?>
<!DOCTYPE svg PUBLIC "-//W3C//DTD SVG 1.1//EN"
 "http://www.w3.org/Graphics/SVG/1.1/DTD/svg11.dtd">
<!-- Generated by graphviz version 13.0.1 (20250615.1724)
 -->
<!-- Title: routesFlow Pages: 1 -->
<svg width="364pt" height="218pt"
 viewBox="0.00 0.00 364.00 218.00" xmlns="http://www.w3.org/2000/svg" xmlns:xlink="http://www.w3.org/1999/xlink">
<g id="graph0" class="graph" transform="scale(1 1) rotate(0) translate(4 214)">
<title>routesFlow</title>
<polygon fill="white" stroke="none" points="-4,4 -4,-214 360,-214 360,4 -4,4"/>
<g id="clust1" class="cluster">
<title>cluster_devices</title>
<path fill="#e3f2fd" stroke="black" d="M20,-8C20,-8 66,-8 66,-8 72,-8 78,-14 78,-20 78,-20 78,-172 78,-172 78,-178 72,-184 66,-184 66,-184 20,-184 20,-184 14,-184 8,-178 8,-172 8,-172 8,-20 8,-20 8,-14 14,-8 20,-8"/>
<text xml:space="preserve" text-anchor="middle" x="43" y="-172.4" font-family="Calibri" font-size="8.00">Devices</text>
</g>
<g id="clust2" class="cluster">
<title>cluster_route</title>
<path fill="#fff8e1" stroke="black" d="M110,-48C110,-48 254,-48 254,-48 260,-48 266,-54 266,-60 266,-60 266,-190 266,-190 266,-196 260,-202 254,-202 254,-202 110,-202 110,-202 104,-202 98,-196 98,-190 98,-190 98,-60 98,-60 98,-54 104,-48 110,-48"/>
<text xml:space="preserve" text-anchor="middle" x="182" y="-190.4" font-family="Calibri" font-size="8.00">Route</text>
</g>
<g id="clust3" class="cluster">
<title>cluster_pipelines</title>
<path fill="#e8f5e9" stroke="black" d="M200,-56C200,-56 246,-56 246,-56 252,-56 258,-62 258,-68 258,-68 258,-166 258,-166 258,-172 252,-178 246,-178 246,-178 200,-178 200,-178 194,-178 188,-172 188,-166 188,-166 188,-68 188,-68 188,-62 194,-56 200,-56"/>
<text xml:space="preserve" text-anchor="middle" x="223" y="-167.35" font-family="Calibri" font-size="7.00">Pipelines</text>
</g>
<g id="clust4" class="cluster">
<title>cluster_targets</title>
<path fill="#f3e5f5" stroke="black" d="M290,-14C290,-14 336,-14 336,-14 342,-14 348,-20 348,-26 348,-26 348,-178 348,-178 348,-184 342,-190 336,-190 336,-190 290,-190 290,-190 284,-190 278,-184 278,-178 278,-178 278,-26 278,-26 278,-20 284,-14 290,-14"/>
<text xml:space="preserve" text-anchor="middle" x="313" y="-178.4" font-family="Calibri" font-size="8.00">Targets</text>
</g>
<!-- syslog -->
<g id="node1" class="node">
<title>syslog</title>
<polygon fill="#bbdefb" stroke="black" points="70,-52 16,-52 16,-16 70,-16 70,-52"/>
<text xml:space="preserve" text-anchor="middle" x="43" y="-30.52" font-family="Calibri" font-size="8.00">Syslog</text>
</g>
<!-- filter -->
<g id="node4" class="node">
<title>filter</title>
<polygon fill="#ffe0b2" stroke="black" points="133,-106 106,-88 133,-70 160,-88 133,-106"/>
<text xml:space="preserve" text-anchor="middle" x="133" y="-84.53" font-family="Calibri" font-size="8.00">Filter</text>
</g>
<!-- syslog&#45;&gt;filter -->
<g id="edge1" class="edge">
<title>syslog&#45;&gt;filter</title>
<path fill="none" stroke="#666666" d="M70.4,-50.2C82.62,-57.7 97,-66.52 108.8,-73.76"/>
<polygon fill="#666666" stroke="#666666" points="106.73,-76.6 117.09,-78.85 110.39,-70.64 106.73,-76.6"/>
</g>
<!-- http -->
<g id="node2" class="node">
<title>http</title>
<polygon fill="#90caf9" stroke="black" points="70,-106 16,-106 16,-70 70,-70 70,-106"/>
<text xml:space="preserve" text-anchor="middle" x="43" y="-84.53" font-family="Calibri" font-size="8.00">HTTP</text>
</g>
<!-- http&#45;&gt;filter -->
<g id="edge2" class="edge">
<title>http&#45;&gt;filter</title>
<path fill="none" stroke="#666666" d="M70.4,-88C77.82,-88 86.03,-88 93.98,-88"/>
<polygon fill="#666666" stroke="#666666" points="93.8,-91.5 103.8,-88 93.8,-84.5 93.8,-91.5"/>
</g>
<!-- kafka -->
<g id="node3" class="node">
<title>kafka</title>
<polygon fill="#64b5f6" stroke="black" points="70,-160 16,-160 16,-124 70,-124 70,-160"/>
<text xml:space="preserve" text-anchor="middle" x="43" y="-138.53" font-family="Calibri" font-size="8.00">Kafka</text>
</g>
<!-- kafka&#45;&gt;filter -->
<g id="edge3" class="edge">
<title>kafka&#45;&gt;filter</title>
<path fill="none" stroke="#666666" d="M70.4,-125.8C82.62,-118.3 97,-109.48 108.8,-102.24"/>
<polygon fill="#666666" stroke="#666666" points="110.39,-105.36 117.09,-97.15 106.73,-99.4 110.39,-105.36"/>
</g>
<!-- normalize -->
<g id="node5" class="node">
<title>normalize</title>
<polygon fill="#c8e6c9" stroke="black" points="250,-100 196,-100 196,-64 250,-64 250,-100"/>
<text xml:space="preserve" text-anchor="middle" x="223" y="-78.53" font-family="Calibri" font-size="8.00">Normalize</text>
</g>
<!-- filter&#45;&gt;normalize -->
<g id="edge4" class="edge">
<title>filter&#45;&gt;normalize</title>
<path fill="none" stroke="#666666" d="M158.05,-86.36C166.11,-85.81 175.32,-85.18 184.18,-84.58"/>
<polygon fill="#666666" stroke="#666666" points="184.26,-88.08 194,-83.91 183.78,-81.1 184.26,-88.08"/>
</g>
<!-- enrich -->
<g id="node6" class="node">
<title>enrich</title>
<polygon fill="#a5d6a7" stroke="black" points="250,-154 196,-154 196,-118 250,-118 250,-154"/>
<text xml:space="preserve" text-anchor="middle" x="223" y="-132.53" font-family="Calibri" font-size="8.00">Enrich</text>
</g>
<!-- filter&#45;&gt;enrich -->
<g id="edge5" class="edge">
<title>filter&#45;&gt;enrich</title>
<path fill="none" stroke="#666666" d="M148.53,-95.93C158.72,-101.49 172.82,-109.17 185.94,-116.33"/>
<polygon fill="#666666" stroke="#666666" points="183.92,-119.22 194.38,-120.93 187.27,-113.07 183.92,-119.22"/>
</g>
<!-- sentinel -->
<g id="node7" class="node">
<title>sentinel</title>
<polygon fill="#e1bee7" stroke="black" points="340,-112 286,-112 286,-76 340,-76 340,-112"/>
<text xml:space="preserve" text-anchor="middle" x="313" y="-90.53" font-family="Calibri" font-size="8.00">Sentinel</text>
</g>
<!-- normalize&#45;&gt;sentinel -->
<g id="edge6" class="edge">
<title>normalize&#45;&gt;sentinel</title>
<path fill="none" stroke="#666666" d="M250.4,-85.6C257.97,-86.63 266.38,-87.78 274.48,-88.88"/>
<polygon fill="#666666" stroke="#666666" points="273.73,-92.31 284.12,-90.2 274.68,-85.38 273.73,-92.31"/>
</g>
<!-- storage -->
<g id="node8" class="node">
<title>storage</title>
<polygon fill="#d1c4e9" stroke="black" points="340,-58 337,-62 316,-62 313,-58 286,-58 286,-22 340,-22 340,-58"/>
<text xml:space="preserve" text-anchor="middle" x="313" y="-36.52" font-family="Calibri" font-size="8.00">Storage</text>
</g>
<!-- normalize&#45;&gt;storage -->
<g id="edge7" class="edge">
<title>normalize&#45;&gt;storage</title>
<path fill="none" stroke="#666666" d="M250.4,-69.4C258.23,-65.66 266.96,-61.5 275.32,-57.51"/>
<polygon fill="#666666" stroke="#666666" points="276.73,-60.71 284.25,-53.24 273.72,-54.39 276.73,-60.71"/>
</g>
<!-- enrich&#45;&gt;sentinel -->
<g id="edge8" class="edge">
<title>enrich&#45;&gt;sentinel</title>
<path fill="none" stroke="#666666" d="M250.4,-123.4C258.23,-119.66 266.96,-115.5 275.32,-111.51"/>
<polygon fill="#666666" stroke="#666666" points="276.73,-114.71 284.25,-107.24 273.72,-108.39 276.73,-114.71"/>
</g>
<!-- elastic -->
<g id="node9" class="node">
<title>elastic</title>
<path fill="#ce93d8" stroke="black" d="M340,-162.73C340,-164.53 327.9,-166 313,-166 298.1,-166 286,-164.53 286,-162.73 286,-162.73 286,-133.27 286,-133.27 286,-131.47 298.1,-130 313,-130 327.9,-130 340,-131.47 340,-133.27 340,-133.27 340,-162.73 340,-162.73"/>
<path fill="none" stroke="black" d="M340,-162.73C340,-160.92 327.9,-159.45 313,-159.45 298.1,-159.45 286,-160.92 286,-162.73"/>
<text xml:space="preserve" text-anchor="middle" x="313" y="-144.53" font-family="Calibri" font-size="8.00">Elastic</text>
</g>
<!-- enrich&#45;&gt;elastic -->
<g id="edge9" class="edge">
<title>enrich&#45;&gt;elastic</title>
<path fill="none" stroke="#666666" d="M250.4,-139.6C257.97,-140.63 266.38,-141.78 274.48,-142.88"/>
<polygon fill="#666666" stroke="#666666" points="273.73,-146.31 284.12,-144.2 274.68,-139.38 273.73,-146.31"/>
</g>
</g>
</svg>
