<?xml version="1.0" encoding="UTF-8" standalone="no"?>
<!DOCTYPE svg PUBLIC "-//W3C//DTD SVG 1.1//EN"
 "http://www.w3.org/Graphics/SVG/1.1/DTD/svg11.dtd">
<!-- Generated by graphviz version 13.0.1 (20250615.1724)
 -->
<!-- Title: targetsFlow Pages: 1 -->
<svg width="367pt" height="420pt"
 viewBox="0.00 0.00 367.00 420.00" xmlns="http://www.w3.org/2000/svg" xmlns:xlink="http://www.w3.org/1999/xlink">
<g id="graph0" class="graph" transform="scale(1 1) rotate(0) translate(4 416)">
<title>targetsFlow</title>
<polygon fill="white" stroke="none" points="-4,4 -4,-416 362.5,-416 362.5,4 -4,4"/>
<g id="clust1" class="cluster">
<title>cluster_pipeline</title>
<path fill="#e8f5e9" stroke="black" d="M20,-179C20,-179 66,-179 66,-179 72,-179 78,-185 78,-191 78,-191 78,-235 78,-235 78,-241 72,-247 66,-247 66,-247 20,-247 20,-247 14,-247 8,-241 8,-235 8,-235 8,-191 8,-191 8,-185 14,-179 20,-179"/>
<text xml:space="preserve" text-anchor="middle" x="43" y="-235.4" font-family="Calibri" font-size="8.00">Pipeline</text>
</g>
<g id="clust2" class="cluster">
<title>cluster_amazon</title>
<path fill="#fff8e1" stroke="black" d="M110,-282C110,-282 158.5,-282 158.5,-282 164.5,-282 170.5,-288 170.5,-294 170.5,-294 170.5,-392 170.5,-392 170.5,-398 164.5,-404 158.5,-404 158.5,-404 110,-404 110,-404 104,-404 98,-398 98,-392 98,-392 98,-294 98,-294 98,-288 104,-282 110,-282"/>
<text xml:space="preserve" text-anchor="middle" x="134.25" y="-393.35" font-family="Calibri" font-size="7.00">Amazon</text>
</g>
<g id="clust3" class="cluster">
<title>cluster_azure</title>
<path fill="#e3f2fd" stroke="black" d="M202.5,-206C202.5,-206 248.5,-206 248.5,-206 254.5,-206 260.5,-212 260.5,-218 260.5,-218 260.5,-316 260.5,-316 260.5,-322 254.5,-328 248.5,-328 248.5,-328 202.5,-328 202.5,-328 196.5,-328 190.5,-322 190.5,-316 190.5,-316 190.5,-218 190.5,-218 190.5,-212 196.5,-206 202.5,-206"/>
<text xml:space="preserve" text-anchor="middle" x="225.5" y="-317.35" font-family="Calibri" font-size="7.00">Azure</text>
</g>
<g id="clust4" class="cluster">
<title>cluster_analytics</title>
<path fill="#fce4ec" stroke="black" d="M292.5,-114C292.5,-114 338.5,-114 338.5,-114 344.5,-114 350.5,-120 350.5,-126 350.5,-126 350.5,-224 350.5,-224 350.5,-230 344.5,-236 338.5,-236 338.5,-236 292.5,-236 292.5,-236 286.5,-236 280.5,-230 280.5,-224 280.5,-224 280.5,-126 280.5,-126 280.5,-120 286.5,-114 292.5,-114"/>
<text xml:space="preserve" text-anchor="middle" x="315.5" y="-225.35" font-family="Calibri" font-size="7.00">Analytics</text>
</g>
<g id="clust5" class="cluster">
<title>cluster_mq</title>
<path fill="#f3e5f5" stroke="black" d="M202.5,-8C202.5,-8 248.5,-8 248.5,-8 254.5,-8 260.5,-14 260.5,-20 260.5,-20 260.5,-118 260.5,-118 260.5,-124 254.5,-130 248.5,-130 248.5,-130 202.5,-130 202.5,-130 196.5,-130 190.5,-124 190.5,-118 190.5,-118 190.5,-20 190.5,-20 190.5,-14 196.5,-8 202.5,-8"/>
<text xml:space="preserve" text-anchor="middle" x="225.5" y="-119.35" font-family="Calibri" font-size="7.00">Messaging</text>
</g>
<!-- output -->
<g id="node1" class="node">
<title>output</title>
<polygon fill="#c8e6c9" stroke="black" points="70,-223 16,-223 16,-187 70,-187 70,-223"/>
<text xml:space="preserve" text-anchor="middle" x="43" y="-201.53" font-family="Calibri" font-size="8.00">Output</text>
</g>
<!-- s3 -->
<g id="node2" class="node">
<title>s3</title>
<polygon fill="#ffe0b2" stroke="black" points="161.25,-326 158.25,-330 137.25,-330 134.25,-326 107.25,-326 107.25,-290 161.25,-290 161.25,-326"/>
<text xml:space="preserve" text-anchor="middle" x="134.25" y="-304.52" font-family="Calibri" font-size="8.00">S3</text>
</g>
<!-- output&#45;&gt;s3 -->
<g id="edge1" class="edge">
<title>output&#45;&gt;s3</title>
<path fill="none" stroke="#666666" d="M56.45,-223.23C66.88,-238.01 82.51,-259.1 98,-276 99.86,-278.03 101.83,-280.07 103.85,-282.08"/>
<polygon fill="#666666" stroke="#666666" points="101.03,-284.23 110.68,-288.61 105.87,-279.17 101.03,-284.23"/>
</g>
<!-- cloudwatch -->
<g id="node3" class="node">
<title>cloudwatch</title>
<polygon fill="#ffe0b2" stroke="black" points="162.5,-380 106,-380 106,-344 162.5,-344 162.5,-380"/>
<text xml:space="preserve" text-anchor="middle" x="134.25" y="-358.52" font-family="Calibri" font-size="8.00">CloudWatch</text>
</g>
<!-- output&#45;&gt;cloudwatch -->
<g id="edge2" class="edge">
<title>output&#45;&gt;cloudwatch</title>
<path fill="none" stroke="#666666" d="M48.36,-223.35C55.38,-250.02 71.19,-300.13 98,-335 98.07,-335.1 98.15,-335.19 98.22,-335.29"/>
<polygon fill="#666666" stroke="#666666" points="95.63,-337.64 105.03,-342.52 100.73,-332.84 95.63,-337.64"/>
</g>
<!-- blob -->
<g id="node4" class="node">
<title>blob</title>
<polygon fill="#bbdefb" stroke="black" points="252.5,-304 249.5,-308 228.5,-308 225.5,-304 198.5,-304 198.5,-268 252.5,-268 252.5,-304"/>
<text xml:space="preserve" text-anchor="middle" x="225.5" y="-282.52" font-family="Calibri" font-size="8.00">Blob</text>
</g>
<!-- output&#45;&gt;blob -->
<g id="edge3" class="edge">
<title>output&#45;&gt;blob</title>
<path fill="none" stroke="#666666" d="M70.43,-219.25C79.13,-223.8 88.91,-228.75 98,-233 127.68,-246.89 162.02,-261.16 187.42,-271.39"/>
<polygon fill="#666666" stroke="#666666" points="186.07,-274.62 196.66,-275.09 188.67,-268.13 186.07,-274.62"/>
</g>
<!-- sentinel -->
<g id="node5" class="node">
<title>sentinel</title>
<polygon fill="#bbdefb" stroke="black" points="252.5,-250 198.5,-250 198.5,-214 252.5,-214 252.5,-250"/>
<text xml:space="preserve" text-anchor="middle" x="225.5" y="-228.53" font-family="Calibri" font-size="8.00">Sentinel</text>
</g>
<!-- output&#45;&gt;sentinel -->
<g id="edge4" class="edge">
<title>output&#45;&gt;sentinel</title>
<path fill="none" stroke="#666666" d="M70.25,-208.93C100.99,-213.53 152.16,-221.18 187.06,-226.4"/>
<polygon fill="#666666" stroke="#666666" points="186.32,-229.83 196.73,-227.85 187.35,-222.9 186.32,-229.83"/>
</g>
<!-- splunk -->
<g id="node6" class="node">
<title>splunk</title>
<path fill="#f8bbd0" stroke="black" d="M342.5,-208.73C342.5,-210.53 330.4,-212 315.5,-212 300.6,-212 288.5,-210.53 288.5,-208.73 288.5,-208.73 288.5,-179.27 288.5,-179.27 288.5,-177.47 300.6,-176 315.5,-176 330.4,-176 342.5,-177.47 342.5,-179.27 342.5,-179.27 342.5,-208.73 342.5,-208.73"/>
<path fill="none" stroke="black" d="M342.5,-208.73C342.5,-206.92 330.4,-205.45 315.5,-205.45 300.6,-205.45 288.5,-206.92 288.5,-208.73"/>
<text xml:space="preserve" text-anchor="middle" x="315.5" y="-190.53" font-family="Calibri" font-size="8.00">Splunk</text>
</g>
<!-- output&#45;&gt;splunk -->
<g id="edge5" class="edge">
<title>output&#45;&gt;splunk</title>
<path fill="none" stroke="#666666" d="M70.43,-203.93C118.73,-201.96 221.39,-197.79 276.94,-195.53"/>
<polygon fill="#666666" stroke="#666666" points="277,-199.03 286.85,-195.12 276.72,-192.03 277,-199.03"/>
</g>
<!-- elastic -->
<g id="node7" class="node">
<title>elastic</title>
<path fill="#f8bbd0" stroke="black" d="M342.5,-154.73C342.5,-156.53 330.4,-158 315.5,-158 300.6,-158 288.5,-156.53 288.5,-154.73 288.5,-154.73 288.5,-125.27 288.5,-125.27 288.5,-123.47 300.6,-122 315.5,-122 330.4,-122 342.5,-123.47 342.5,-125.27 342.5,-125.27 342.5,-154.73 342.5,-154.73"/>
<path fill="none" stroke="black" d="M342.5,-154.73C342.5,-152.92 330.4,-151.45 315.5,-151.45 300.6,-151.45 288.5,-152.92 288.5,-154.73"/>
<text xml:space="preserve" text-anchor="middle" x="315.5" y="-136.53" font-family="Calibri" font-size="8.00">Elastic</text>
</g>
<!-- output&#45;&gt;elastic -->
<g id="edge6" class="edge">
<title>output&#45;&gt;elastic</title>
<path fill="none" stroke="#666666" d="M70.43,-198.65C118.83,-187.02 221.82,-162.27 277.28,-148.94"/>
<polygon fill="#666666" stroke="#666666" points="277.98,-152.37 286.89,-146.63 276.35,-145.57 277.98,-152.37"/>
</g>
<!-- kafka -->
<g id="node8" class="node">
<title>kafka</title>
<polygon fill="#e1bee7" stroke="black" points="252.5,-106 198.5,-106 198.5,-70 252.5,-70 252.5,-106"/>
<text xml:space="preserve" text-anchor="middle" x="225.5" y="-84.53" font-family="Calibri" font-size="8.00">Kafka</text>
</g>
<!-- output&#45;&gt;kafka -->
<g id="edge7" class="edge">
<title>output&#45;&gt;kafka</title>
<path fill="none" stroke="#666666" d="M53.92,-186.59C63.36,-170.67 78.92,-148.05 98,-134 124.67,-114.36 160.59,-102.37 187.34,-95.57"/>
<polygon fill="#666666" stroke="#666666" points="187.81,-99.06 196.72,-93.33 186.18,-92.25 187.81,-99.06"/>
</g>
<!-- file -->
<g id="node9" class="node">
<title>file</title>
<polygon fill="#e1bee7" stroke="black" points="246.5,-52 198.5,-52 198.5,-16 252.5,-16 252.5,-46 246.5,-52"/>
<polyline fill="none" stroke="black" points="246.5,-52 246.5,-46"/>
<polyline fill="none" stroke="black" points="252.5,-46 246.5,-46"/>
<text xml:space="preserve" text-anchor="middle" x="225.5" y="-30.52" font-family="Calibri" font-size="8.00">File</text>
</g>
<!-- output&#45;&gt;file -->
<g id="edge8" class="edge">
<title>output&#45;&gt;file</title>
<path fill="none" stroke="#666666" d="M49.06,-186.59C56.37,-162.97 71.96,-121.93 98,-96 122.98,-71.13 159.93,-54.61 187.46,-44.92"/>
<polygon fill="#666666" stroke="#666666" points="188.44,-48.28 196.81,-41.78 186.21,-41.65 188.44,-48.28"/>
</g>
</g>
</svg>
