<?xml version="1.0" encoding="UTF-8" standalone="no"?>
<!DOCTYPE svg PUBLIC "-//W3C//DTD SVG 1.1//EN"
 "http://www.w3.org/Graphics/SVG/1.1/DTD/svg11.dtd">
<!-- Generated by graphviz version 13.0.1 (20250615.1724)
 -->
<!-- Title: targetsFlow Pages: 1 -->
<svg width="457pt" height="398pt"
 viewBox="0.00 0.00 457.00 398.00" xmlns="http://www.w3.org/2000/svg" xmlns:xlink="http://www.w3.org/1999/xlink">
<g id="graph0" class="graph" transform="scale(1 1) rotate(0) translate(4 394)">
<title>targetsFlow</title>
<polygon fill="white" stroke="none" points="-4,4 -4,-394 452.5,-394 452.5,4 -4,4"/>
<g id="clust1" class="cluster">
<title>cluster_pipeline</title>
<path fill="#e8f5e9" stroke="black" d="M20,-157C20,-157 66,-157 66,-157 72,-157 78,-163 78,-169 78,-169 78,-213 78,-213 78,-219 72,-225 66,-225 66,-225 20,-225 20,-225 14,-225 8,-219 8,-213 8,-213 8,-169 8,-169 8,-163 14,-157 20,-157"/>
<text xml:space="preserve" text-anchor="middle" x="43" y="-213.4" font-family="Calibri" font-size="8.00">Pipeline</text>
</g>
<g id="clust2" class="cluster">
<title>cluster_aws</title>
<path fill="#fff8e1" stroke="black" d="M110,-260C110,-260 158.5,-260 158.5,-260 164.5,-260 170.5,-266 170.5,-272 170.5,-272 170.5,-370 170.5,-370 170.5,-376 164.5,-382 158.5,-382 158.5,-382 110,-382 110,-382 104,-382 98,-376 98,-370 98,-370 98,-272 98,-272 98,-266 104,-260 110,-260"/>
<text xml:space="preserve" text-anchor="middle" x="134.25" y="-371.35" font-family="Calibri" font-size="7.00">AWS</text>
</g>
<g id="clust3" class="cluster">
<title>cluster_azure</title>
<path fill="#e3f2fd" stroke="black" d="M202.5,-184C202.5,-184 248.5,-184 248.5,-184 254.5,-184 260.5,-190 260.5,-196 260.5,-196 260.5,-294 260.5,-294 260.5,-300 254.5,-306 248.5,-306 248.5,-306 202.5,-306 202.5,-306 196.5,-306 190.5,-300 190.5,-294 190.5,-294 190.5,-196 190.5,-196 190.5,-190 196.5,-184 202.5,-184"/>
<text xml:space="preserve" text-anchor="middle" x="225.5" y="-295.35" font-family="Calibri" font-size="7.00">Azure</text>
</g>
<g id="clust4" class="cluster">
<title>cluster_analytics</title>
<path fill="#fce4ec" stroke="black" d="M292.5,-104C292.5,-104 338.5,-104 338.5,-104 344.5,-104 350.5,-110 350.5,-116 350.5,-116 350.5,-214 350.5,-214 350.5,-220 344.5,-226 338.5,-226 338.5,-226 292.5,-226 292.5,-226 286.5,-226 280.5,-220 280.5,-214 280.5,-214 280.5,-116 280.5,-116 280.5,-110 286.5,-104 292.5,-104"/>
<text xml:space="preserve" text-anchor="middle" x="315.5" y="-215.35" font-family="Calibri" font-size="7.00">Analytics</text>
</g>
<g id="clust5" class="cluster">
<title>cluster_mq</title>
<path fill="#f3e5f5" stroke="black" d="M382.5,-8C382.5,-8 428.5,-8 428.5,-8 434.5,-8 440.5,-14 440.5,-20 440.5,-20 440.5,-118 440.5,-118 440.5,-124 434.5,-130 428.5,-130 428.5,-130 382.5,-130 382.5,-130 376.5,-130 370.5,-124 370.5,-118 370.5,-118 370.5,-20 370.5,-20 370.5,-14 376.5,-8 382.5,-8"/>
<text xml:space="preserve" text-anchor="middle" x="405.5" y="-119.35" font-family="Calibri" font-size="7.00">Messaging</text>
</g>
<!-- output -->
<g id="node1" class="node">
<title>output</title>
<polygon fill="#c8e6c9" stroke="black" points="70,-201 16,-201 16,-165 70,-165 70,-201"/>
<text xml:space="preserve" text-anchor="middle" x="43" y="-179.53" font-family="Calibri" font-size="8.00">Output</text>
</g>
<!-- s3 -->
<g id="node2" class="node">
<title>s3</title>
<polygon fill="#ffe0b2" stroke="black" points="161.25,-304 158.25,-308 137.25,-308 134.25,-304 107.25,-304 107.25,-268 161.25,-268 161.25,-304"/>
<text xml:space="preserve" text-anchor="middle" x="134.25" y="-282.52" font-family="Calibri" font-size="8.00">S3</text>
</g>
<!-- output&#45;&gt;s3 -->
<g id="edge1" class="edge">
<title>output&#45;&gt;s3</title>
<path fill="none" stroke="#666666" d="M56.45,-201.23C66.88,-216.01 82.51,-237.1 98,-254 99.86,-256.03 101.83,-258.07 103.85,-260.08"/>
<polygon fill="#666666" stroke="#666666" points="101.03,-262.23 110.68,-266.61 105.87,-257.17 101.03,-262.23"/>
</g>
<!-- cloudwatch -->
<g id="node3" class="node">
<title>cloudwatch</title>
<polygon fill="#ffe0b2" stroke="black" points="162.5,-358 106,-358 106,-322 162.5,-322 162.5,-358"/>
<text xml:space="preserve" text-anchor="middle" x="134.25" y="-336.52" font-family="Calibri" font-size="8.00">CloudWatch</text>
</g>
<!-- output&#45;&gt;cloudwatch -->
<g id="edge2" class="edge">
<title>output&#45;&gt;cloudwatch</title>
<path fill="none" stroke="#666666" d="M48.36,-201.35C55.38,-228.02 71.19,-278.13 98,-313 98.07,-313.1 98.15,-313.19 98.22,-313.29"/>
<polygon fill="#666666" stroke="#666666" points="95.63,-315.64 105.03,-320.52 100.73,-310.84 95.63,-315.64"/>
</g>
<!-- blob -->
<g id="node4" class="node">
<title>blob</title>
<polygon fill="#bbdefb" stroke="black" points="252.5,-282 249.5,-286 228.5,-286 225.5,-282 198.5,-282 198.5,-246 252.5,-246 252.5,-282"/>
<text xml:space="preserve" text-anchor="middle" x="225.5" y="-260.52" font-family="Calibri" font-size="8.00">Blob</text>
</g>
<!-- output&#45;&gt;blob -->
<g id="edge3" class="edge">
<title>output&#45;&gt;blob</title>
<path fill="none" stroke="#666666" d="M70.43,-197.25C79.13,-201.8 88.91,-206.75 98,-211 127.68,-224.89 162.02,-239.16 187.42,-249.39"/>
<polygon fill="#666666" stroke="#666666" points="186.07,-252.62 196.66,-253.09 188.67,-246.13 186.07,-252.62"/>
</g>
<!-- sentinel -->
<g id="node5" class="node">
<title>sentinel</title>
<polygon fill="#bbdefb" stroke="black" points="252.5,-228 198.5,-228 198.5,-192 252.5,-192 252.5,-228"/>
<text xml:space="preserve" text-anchor="middle" x="225.5" y="-206.53" font-family="Calibri" font-size="8.00">Sentinel</text>
</g>
<!-- output&#45;&gt;sentinel -->
<g id="edge4" class="edge">
<title>output&#45;&gt;sentinel</title>
<path fill="none" stroke="#666666" d="M70.25,-186.93C100.99,-191.53 152.16,-199.18 187.06,-204.4"/>
<polygon fill="#666666" stroke="#666666" points="186.32,-207.83 196.73,-205.85 187.35,-200.9 186.32,-207.83"/>
</g>
<!-- splunk -->
<g id="node6" class="node">
<title>splunk</title>
<path fill="#f8bbd0" stroke="black" d="M342.5,-198.73C342.5,-200.53 330.4,-202 315.5,-202 300.6,-202 288.5,-200.53 288.5,-198.73 288.5,-198.73 288.5,-169.27 288.5,-169.27 288.5,-167.47 300.6,-166 315.5,-166 330.4,-166 342.5,-167.47 342.5,-169.27 342.5,-169.27 342.5,-198.73 342.5,-198.73"/>
<path fill="none" stroke="black" d="M342.5,-198.73C342.5,-196.92 330.4,-195.45 315.5,-195.45 300.6,-195.45 288.5,-196.92 288.5,-198.73"/>
<text xml:space="preserve" text-anchor="middle" x="315.5" y="-180.53" font-family="Calibri" font-size="8.00">Splunk</text>
</g>
<!-- output&#45;&gt;splunk -->
<g id="edge5" class="edge">
<title>output&#45;&gt;splunk</title>
<path fill="none" stroke="#666666" d="M70.34,-181.77C111.11,-180.07 191.94,-177.46 260.5,-180 265.85,-180.2 271.5,-180.51 277.05,-180.87"/>
<polygon fill="#666666" stroke="#666666" points="276.42,-184.33 286.64,-181.55 276.92,-177.35 276.42,-184.33"/>
</g>
<!-- elastic -->
<g id="node7" class="node">
<title>elastic</title>
<path fill="#f8bbd0" stroke="black" d="M342.5,-144.73C342.5,-146.53 330.4,-148 315.5,-148 300.6,-148 288.5,-146.53 288.5,-144.73 288.5,-144.73 288.5,-115.27 288.5,-115.27 288.5,-113.47 300.6,-112 315.5,-112 330.4,-112 342.5,-113.47 342.5,-115.27 342.5,-115.27 342.5,-144.73 342.5,-144.73"/>
<path fill="none" stroke="black" d="M342.5,-144.73C342.5,-142.92 330.4,-141.45 315.5,-141.45 300.6,-141.45 288.5,-142.92 288.5,-144.73"/>
<text xml:space="preserve" text-anchor="middle" x="315.5" y="-126.53" font-family="Calibri" font-size="8.00">Elastic</text>
</g>
<!-- output&#45;&gt;elastic -->
<g id="edge6" class="edge">
<title>output&#45;&gt;elastic</title>
<path fill="none" stroke="#666666" d="M70.43,-177.82C118.83,-168.34 221.82,-148.16 277.28,-137.29"/>
<polygon fill="#666666" stroke="#666666" points="277.74,-140.77 286.88,-135.41 276.39,-133.9 277.74,-140.77"/>
</g>
<!-- kafka -->
<g id="node8" class="node">
<title>kafka</title>
<polygon fill="#e1bee7" stroke="black" points="432.5,-106 378.5,-106 378.5,-70 432.5,-70 432.5,-106"/>
<text xml:space="preserve" text-anchor="middle" x="405.5" y="-84.53" font-family="Calibri" font-size="8.00">Kafka</text>
</g>
<!-- output&#45;&gt;kafka -->
<g id="edge7" class="edge">
<title>output&#45;&gt;kafka</title>
<path fill="none" stroke="#666666" d="M70.45,-168.04C79.08,-163.5 88.8,-158.73 98,-155 176.5,-123.14 197.38,-116.38 280.5,-100 309.13,-94.36 342.03,-91.33 366.74,-89.73"/>
<polygon fill="#666666" stroke="#666666" points="366.87,-93.23 376.65,-89.14 366.46,-86.24 366.87,-93.23"/>
</g>
<!-- file -->
<g id="node9" class="node">
<title>file</title>
<polygon fill="#e1bee7" stroke="black" points="426.5,-52 378.5,-52 378.5,-16 432.5,-16 432.5,-46 426.5,-52"/>
<polyline fill="none" stroke="black" points="426.5,-52 426.5,-46"/>
<polyline fill="none" stroke="black" points="432.5,-46 426.5,-46"/>
<text xml:space="preserve" text-anchor="middle" x="405.5" y="-30.52" font-family="Calibri" font-size="8.00">File</text>
</g>
<!-- output&#45;&gt;file -->
<g id="edge8" class="edge">
<title>output&#45;&gt;file</title>
<path fill="none" stroke="#666666" d="M56.15,-164.75C65.96,-151.37 80.91,-133.72 98,-123 184.91,-68.48 306.44,-46.27 367.04,-38.15"/>
<polygon fill="#666666" stroke="#666666" points="367.34,-41.64 376.82,-36.9 366.46,-34.69 367.34,-41.64"/>
</g>
</g>
</svg>
